<svg width="330" height="560" viewBox="0 0 330 560" fill="none" xmlns="http://www.w3.org/2000/svg">
<path fill-rule="evenodd" clip-rule="evenodd" d="M131.197 0C137.611 3.3789 141.807 -0.0869851 146.086 0.516602C151.336 1.25892 157.502 4.38093 164.199 4.24902C174.113 4.05385 185.318 4.40425 195.177 4.04492C203.047 3.6421 211.824 1.5991 219.686 2.65137C236.086 4.84386 251.799 9.98116 268.529 11.0859C272.112 11.3229 273.789 8.72923 277.564 9.4834C286.533 15.9548 283.95 12.9769 283.895 21.4082C283.914 21.4103 286.48 24.8414 286.744 25.4336C287.413 26.9235 288.137 28.4308 287.321 30.0518C285.544 33.6013 282.071 36.1961 280.642 40.0518C272.341 62.3436 264.48 85.1667 255.152 107.027C253.073 111.903 246.824 113.442 245.248 117.944C243.736 122.273 241.336 126.796 239.605 131.117C239.467 131.458 240.665 136.575 240.713 136.454C238.642 142.071 230.571 152.572 228.473 157.168C222.609 169.977 219.612 184.055 214.793 197.263C213.043 202.048 207.472 209.69 205.97 214.968C205.978 215.022 207.042 221.703 207.151 222.403C215.37 230.326 225.376 227.909 235.316 225.551C242.839 223.768 241.629 226.653 248.336 228.099C254.355 225.875 255.904 226.494 262.134 227.369C273.541 228.973 285.608 228.79 297.134 228.881C309.952 237.998 324.694 223.352 327.424 250.964C327.436 251.08 329.403 254.33 329.77 255.191C328.624 268.685 310.52 285.326 302.988 296.127C301.128 298.108 297.995 308.119 296.712 309.013C286.689 316.004 287.651 318.364 284.196 328.293C283.307 330.836 274.77 331.579 272.332 335.62C268.695 341.646 268.86 345.963 265.763 352.007C261.915 358.099 255.29 363.053 251.424 369.044C243.15 380.413 234.638 403.067 224.083 412.24C208.553 425.726 203.249 440.47 191.915 457.198C187.682 463.446 179.656 469.625 174.81 476.575C172.767 478.015 166.517 489.325 164.95 492.236C160.443 500.597 154.149 502.255 147.598 508.329C145.326 510.972 143.868 518.848 141.761 521.075C131.582 530.095 121.449 545.594 112.158 554.644C99.3679 567.113 80.9332 556.345 85.4044 537.447C87.1818 529.924 90.0585 523 91.2862 517.029L107.421 436.765C111.352 418.015 118.922 397.678 118.154 377.645L115.364 374.01C113.074 373.682 110.326 374.063 108.869 373.753C106.176 373.267 99.5047 369.223 96.921 370.097C84.525 374.277 82.1975 373.946 69.9601 369.809C65.1087 368.997 53.7612 371.434 49.6427 370.96C39.5707 369.801 34.4679 365.022 25.0685 369.628C22.5049 370.884 7.95228 359.436 4.91318 356.503C3.91524 353.978 -0.598179 338.659 0.066497 336.376C2.91594 326.601 5.94837 314.077 8.72177 304.09C9.25267 302.181 14.4121 296.605 14.8692 294.615C16.3846 288.015 16.326 280.513 18.1739 274.094C18.5697 271.916 25.7123 264.038 25.671 262.664C25.3796 253.084 28.5295 247.743 31.1261 239.204L47.4454 184.096C49.3584 177.569 50.3925 168.983 52.4356 162.933C56.0721 152.167 61.9804 141.267 65.9073 130.469C67.5234 126.025 68.0085 114.412 69.6456 110.941C72.6288 104.618 77.2044 98.5297 79.8614 91.5605C81.8037 88.6261 78.3312 82.7233 79.2657 80.0586C85.2853 62.8905 90.8739 45.6981 95.9864 28.2471C100.045 14.3866 119.085 6.00789 131.197 0ZM162.331 234.236C150.855 242.905 151.483 266.421 136.626 278.765C127.369 286.459 97.3945 293.04 93.9454 299.72C101.705 300.671 108.158 307.774 115.574 309.375C115.216 309.297 120.069 306.251 123.342 310.416C125.602 312.183 129.921 317.581 131.981 318.714C136.969 321.459 135.755 317.628 141.003 322.667C146.812 328.241 154.162 358.579 157.803 361.615C168.173 365.735 168.643 348.257 171.371 341.896C177.85 326.816 187.978 314.912 203.187 308C203.89 307.681 204.4 307.693 205.137 307.812L206.811 309.363C210.368 308.566 224.196 301.452 225.945 298.321C219.132 291.136 209.389 290.357 200.424 287.455C198.758 286.917 197.068 284.624 195.745 283.991C190.966 281.701 187.66 280.594 183.81 276.698C177.432 270.251 172.656 256.816 169.563 248.113L169.429 247.737C168.249 244.406 167.244 240.613 165.838 237.344C165.361 236.238 162.875 234.859 162.331 234.236Z" fill="black"/>
</svg>
