<svg width="1457" height="330" viewBox="0 0 1457 330" fill="none" xmlns="http://www.w3.org/2000/svg">
<path d="M161.007 0.173334C161.161 0.152863 161.316 0.134668 161.47 0.11899C174.955 -1.23686 176.11 9.3085 185.726 15.7582C191.391 19.4212 197.65 22.0351 203.6 25.2163C228.514 38.5458 251.868 57.8263 268.06 81.1303C270.474 84.6046 272.214 90.3729 274.359 94.2315C276.725 98.5035 280.326 101.585 282.415 105.991C284.406 115.951 291.104 131.835 290.787 141.727C290.291 157.302 291.259 171 292.746 186.519C293.356 192.88 290.779 203.292 291.186 210.168C292.088 225.754 293.941 240.963 292.226 256.579C290.755 269.476 292.34 283.931 292.836 296.971C293.47 314.043 321.83 302.374 331.048 310.64C335.194 314.31 335.437 321.943 331.861 326.169C329.78 328.522 319.871 329.637 316.652 329.693C301.688 329.876 286.731 328.722 271.75 328.533C257.07 327.921 242.187 329.782 227.596 329.794C209.258 329.808 192.651 328.756 174.199 330C156.56 328.106 142.969 329.101 125.509 329.469C111.455 329.764 96.913 328.055 82.5824 328.409L46.7355 329.071C32.9819 329.411 18.8463 331.005 5.34481 327.782C0.191307 326.553 -0.800306 319.779 0.540906 315.535C4.7515 302.2 26.7473 308.94 36.5748 303.591C41.2649 297.563 38.737 279.452 38.6232 271.82L38.4118 223.494C38.3387 205.77 40.7528 185.673 40.8991 167.662C42.0452 157.387 39.4035 141.349 41.6958 131.572C45.2967 116.18 58.8308 88.7645 68.1867 76.0768C79.3554 60.931 96.5229 48.2522 110.732 36.5591C114.032 33.8396 121.583 31.1857 125.314 28.5139C132.776 23.7777 140.913 18.7201 148.074 13.6132C153.488 9.75309 154.203 4.95411 161.007 0.173334ZM110.472 84.5721C102.351 97.8162 98.0917 98.302 89.8494 108.198C87.7522 120.996 84.1593 121.232 80.0219 131.62C76.2177 141.161 75.2911 154.438 74.5595 164.661C73.5516 178.89 74.5839 192.617 74.4864 206.778C74.4295 214.507 73.2996 222.225 73.3809 229.952C73.5435 246.167 78.3149 280.007 72.7062 294.008C73.7791 296.388 75.5756 301.633 78.1442 302.59C88.8495 306.573 110.171 304.096 122.266 304.301C129.712 304.427 137.19 305.279 144.644 305.114C152.423 304.942 160.145 303.522 167.924 304.287C174.939 305.022 182.035 305.897 189.091 305.996C199.26 306.139 209.347 304.474 219.492 304.166C227.864 303.91 236.342 305.098 244.674 304.381C247.649 304.124 252.16 303.859 254.575 301.939C256.086 300.734 256.542 295.462 256.704 293.65C257.216 287.971 256.501 282.182 256.59 276.485L257.395 236.825C257.485 230.379 258.484 223.967 258.59 217.529C258.679 211.781 257.867 206.068 257.777 200.329C257.68 193.897 258.484 187.458 258.387 181.025C258.273 173.725 257.2 166.419 256.777 159.126C256.42 152.876 256.916 146.157 255.761 140.018C253.437 127.616 246.584 118.207 243.967 106.922C236.131 99.8966 231.107 90.775 223.645 83.7354C220.321 80.6014 215.598 78.1003 211.794 75.5155C206.917 72.2012 202.625 68.0827 197.748 64.8228C192.773 61.4972 187.213 59.1081 182.32 55.6419C176.857 51.7736 170.663 44.1888 164.526 42.0301C157.674 46.5823 152.423 53.4015 146.213 58.7718C141.766 62.6166 136.58 65.5458 132.158 69.4003C123.615 76.842 121.925 81.0149 110.472 84.5721Z" fill="black"/>
<path d="M165.487 138.445C175.7 139.228 176.75 162.012 180.705 170.906C186.455 183.828 214.06 185.304 217.579 193.968C216.406 203.842 193.363 205.891 186.365 213.829C176.89 224.573 179.572 243.942 169.162 252.243C166.988 252.281 163.658 251.86 162.591 249.58C157.378 238.401 155.425 226.66 149.292 215.689C144.245 206.659 116.235 203.738 116.793 193.811C120.926 188.584 141.31 181.206 150.118 175.805C155.159 166.097 150.634 165.044 159.777 154.219C160.442 145.986 159.548 143.953 165.487 138.445Z" fill="black"/>
<path d="M442.918 294.056C442.918 293.649 443.122 293.191 443.529 292.682C443.936 292.07 444.395 291.561 444.904 291.154C445.413 290.645 445.922 290.237 446.432 289.932C447.043 289.626 447.45 289.423 447.654 289.321C447.755 289.219 448.061 289.117 448.57 289.015C449.079 288.913 449.589 288.812 450.098 288.71C450.709 288.608 451.218 288.506 451.625 288.404C452.135 288.302 452.491 288.251 452.695 288.251C453.102 288.048 453.815 287.895 454.833 287.793C455.852 287.589 456.412 287.488 456.514 287.488L467.665 283.821C469.397 280.868 470.415 278.271 470.721 276.03C471.026 273.79 471.179 271.244 471.179 268.392L470.262 257.393C470.262 256.273 470.364 255.458 470.568 254.949C470.873 254.338 471.23 253.371 471.637 252.047L472.401 240.895L471.179 231.118C471.586 229.285 471.841 227.401 471.943 225.466C472.146 223.531 472.248 221.647 472.248 219.814C472.248 217.166 472.096 214.518 471.79 211.87C471.586 209.222 471.383 206.574 471.179 203.927C470.364 202.705 469.702 201.33 469.193 199.802C468.684 198.173 468.073 196.645 467.36 195.219C466.749 193.793 465.985 192.469 465.068 191.247C464.152 190.025 462.93 189.16 461.402 188.65C459.773 187.937 458.143 187.53 456.514 187.428C454.884 187.326 453.408 187.276 452.084 187.276C449.843 187.276 447.806 187.021 445.973 186.512C444.14 185.901 442.816 184.22 442.001 181.471C442.001 180.045 442.765 178.823 444.293 177.804C445.82 176.684 447.603 175.767 449.64 175.055C451.778 174.24 453.866 173.629 455.903 173.221C457.94 172.712 459.467 172.305 460.486 171.999C460.689 171.897 461.148 171.694 461.86 171.388C462.573 171.083 463.286 170.777 463.999 170.472C464.814 170.064 465.578 169.657 466.291 169.25C467.105 168.74 467.665 168.333 467.971 168.027C468.073 167.824 468.175 167.366 468.277 166.653C468.378 166.042 468.48 165.176 468.582 164.056C468.684 162.935 468.735 161.357 468.735 159.32L470.262 155.654V149.543C470.262 149.441 470.313 149.136 470.415 148.627C470.619 148.117 470.823 147.608 471.026 147.099C471.332 146.488 471.535 145.979 471.637 145.571C471.841 145.062 471.943 144.808 471.943 144.808C473.063 141.854 473.827 138.85 474.234 135.795C474.642 132.739 475.1 129.582 475.609 126.323C475.711 126.018 475.813 125.61 475.915 125.101C476.118 124.49 476.322 123.879 476.526 123.268C476.729 122.657 476.933 122.148 477.137 121.741C477.34 121.231 477.544 120.875 477.748 120.671C477.85 120.264 478.257 119.347 478.97 117.921C479.683 116.394 480.447 114.815 481.261 113.186C482.076 111.556 482.891 110.029 483.705 108.603C484.622 107.075 485.284 106.006 485.691 105.395C486.608 103.562 487.474 102.085 488.288 100.965C489.205 99.8446 490.122 98.8771 491.038 98.0624C492.057 97.1458 493.126 96.382 494.246 95.7709C495.366 95.058 496.639 94.2942 498.065 93.4795C499.796 92.7666 501.477 91.7482 503.106 90.4242C504.736 89.1003 506.162 88.0819 507.384 87.369L507.995 87.0635C508.198 86.9616 508.402 86.8089 508.606 86.6052C508.809 86.6052 509.217 86.6052 509.828 86.6052C510.439 86.5033 511.05 86.4524 511.661 86.4524C512.374 86.3506 512.985 86.2487 513.494 86.1469C514.105 86.0451 514.411 85.9432 514.411 85.8414L520.216 81.8696C520.929 81.564 521.743 81.3603 522.66 81.2585C523.576 81.0548 524.493 80.9021 525.41 80.8002C526.326 80.5965 527.141 80.4438 527.854 80.3419C528.669 80.1383 529.229 79.9346 529.534 79.7309L532.131 78.9671C535.39 78.1523 538.7 77.5922 542.061 77.2867C545.421 76.9812 548.629 76.8284 551.685 76.8284L568.641 78.9671L573.377 79.2726L575.821 79.7309C577.654 80.8511 579.538 81.8186 581.473 82.6334C583.408 83.4481 585.14 84.4156 586.667 85.5359C588.297 86.6561 589.621 88.1328 590.639 89.966C591.658 91.6973 592.167 94.0396 592.167 96.993C592.167 98.928 591.658 101.27 590.639 104.02C589.723 106.77 587.788 109.316 584.834 111.658L579.487 111.964C579.08 111.964 578.571 111.964 577.96 111.964C577.349 111.964 576.738 111.913 576.127 111.811C575.414 111.811 574.599 111.76 573.682 111.658C573.071 111.658 572.206 111.556 571.086 111.353C570.067 111.047 568.998 110.793 567.878 110.589C566.757 110.283 565.688 110.029 564.67 109.825C563.753 109.52 563.142 109.265 562.836 109.061C562.633 108.959 562.276 108.705 561.767 108.297C561.36 107.788 560.85 107.228 560.239 106.617C559.628 106.006 559.017 105.395 558.406 104.784C557.897 104.071 557.439 103.46 557.031 102.951L554.587 97.9096L551.685 91.0353C551.583 91.0353 551.481 90.9844 551.379 90.8825C551.277 90.7807 551.125 90.7298 550.921 90.7298C550.819 90.7298 550.717 90.6788 550.615 90.577C550.208 90.4752 549.852 90.3224 549.546 90.1187C549.139 89.915 548.528 89.7623 547.713 89.6604C547 89.4567 546.185 89.3549 545.269 89.3549C544.454 89.2531 543.69 89.2021 542.977 89.2021C542.264 89.1003 541.755 89.0494 541.45 89.0494C540.94 89.0494 540.278 89.1003 539.464 89.2021C538.751 89.2021 537.987 89.2531 537.172 89.3549C536.358 89.3549 535.645 89.4567 535.034 89.6604C534.423 89.7623 534.066 89.915 533.964 90.1187C533.455 90.1187 532.539 90.3733 531.215 90.8825C529.992 91.3917 528.669 91.9519 527.243 92.5629C525.817 93.174 524.442 93.785 523.118 94.3961C521.794 94.9053 520.827 95.3126 520.216 95.6182C519.808 95.8218 519.299 96.2292 518.688 96.8403C518.179 97.4513 517.822 97.8078 517.619 97.9096C517.619 98.0114 517.517 98.266 517.313 98.6734C517.11 98.9789 516.855 99.3354 516.549 99.7427C516.244 100.15 515.938 100.557 515.633 100.965C515.429 101.27 515.327 101.423 515.327 101.423C515.022 102.034 514.614 102.442 514.105 102.645C513.596 102.849 513.036 103.053 512.425 103.256C511.916 103.358 511.406 103.562 510.897 103.867C510.388 104.071 509.981 104.58 509.675 105.395C509.471 105.599 509.013 106.057 508.3 106.77C507.689 107.483 507.384 108.094 507.384 108.603C507.078 108.705 506.722 109.214 506.314 110.131C505.907 111.047 505.703 111.556 505.703 111.658C505.703 111.862 505.652 112.218 505.551 112.728C505.449 113.135 505.347 113.644 505.245 114.255C505.143 114.764 505.041 115.274 504.939 115.783C504.939 116.292 504.939 116.598 504.939 116.699C504.736 117.412 504.532 118.227 504.328 119.144C504.227 119.958 504.176 120.467 504.176 120.671L500.662 126.323V130.295C500.56 130.906 500.458 131.466 500.357 131.976C500.255 132.485 500.153 132.943 500.051 133.35C500.051 133.656 500 133.911 499.898 134.114L499.134 137.322V146.03L498.523 146.946C498.32 147.354 498.218 147.557 498.218 147.557C498.116 147.659 498.065 147.761 498.065 147.863C497.25 150.307 496.741 152.802 496.538 155.348C496.334 157.894 496.232 160.44 496.232 162.986C496.232 165.329 496.843 167.315 498.065 168.944C499.389 170.472 501.222 171.235 503.565 171.235C503.87 171.235 504.277 171.235 504.787 171.235C505.296 171.235 505.601 171.134 505.703 170.93C506.009 170.93 506.518 170.828 507.231 170.624C508.046 170.421 508.504 170.268 508.606 170.166C510.337 169.759 512.119 169.504 513.952 169.402C515.786 169.199 517.568 169.046 519.299 168.944C521.132 168.74 522.914 168.537 524.646 168.333C526.377 168.027 528.007 167.569 529.534 166.958L533.964 165.431C535.39 165.634 536.918 166.245 538.547 167.264C540.177 168.18 541.144 168.893 541.45 169.402C542.061 169.912 542.417 170.624 542.519 171.541C542.621 172.356 542.672 173.221 542.672 174.138C542.672 175.666 542.57 177.346 542.366 179.179C542.163 180.91 541.704 182.591 540.991 184.22C540.38 185.748 539.413 187.072 538.089 188.192C536.867 189.211 535.237 189.72 533.2 189.72C532.691 189.72 532.284 189.618 531.978 189.414C529.534 188.701 526.937 187.988 524.188 187.276C521.54 186.563 519.095 186.206 516.855 186.206C515.225 186.206 513.494 186.308 511.661 186.512C509.828 186.715 508.402 187.428 507.384 188.65L503.106 195.983C503.106 196.187 502.954 196.492 502.648 196.9C502.444 197.307 502.19 197.765 501.884 198.274C501.579 198.682 501.273 199.14 500.968 199.649C500.764 200.057 500.662 200.413 500.662 200.719C500.662 201.839 501.019 203.061 501.731 204.385C502.444 205.709 502.801 207.084 502.801 208.509C502.801 210.037 502.393 211.412 501.579 212.634C500.866 213.754 500.509 214.976 500.509 216.3C500.509 218.032 500.917 219.61 501.731 221.036C502.648 222.462 503.106 223.989 503.106 225.619L499.898 237.534V242.728C500.204 243.747 500.611 244.867 501.12 246.089C501.731 247.209 502.037 248.941 502.037 251.283C502.037 252.607 501.935 253.88 501.731 255.102C501.528 256.222 501.171 257.648 500.662 259.379C500.458 260.092 500.255 260.703 500.051 261.212C499.949 261.722 499.898 262.435 499.898 263.351L502.495 269.767C502.495 269.971 502.342 270.429 502.037 271.142C501.833 271.855 501.324 273.688 500.509 276.641C500.611 276.845 500.764 277.1 500.968 277.405C501.069 277.914 501.273 278.271 501.579 278.475C502.597 280.104 503.768 281.224 505.092 281.835C506.518 282.345 508.147 282.803 509.981 283.21L512.119 283.821C512.323 283.821 512.832 283.872 513.647 283.974C514.563 283.974 515.531 284.025 516.549 284.127C517.67 284.229 518.688 284.33 519.605 284.432C520.623 284.432 521.285 284.483 521.591 284.585C521.692 284.585 522.1 284.789 522.813 285.196C523.526 285.502 524.289 285.909 525.104 286.418C525.919 286.927 526.683 287.437 527.396 287.946C528.21 288.455 528.719 288.913 528.923 289.321L528.77 294.056V294.515C528.77 294.616 528.821 294.667 528.923 294.667C528.719 295.38 528.567 295.991 528.465 296.501C528.363 297.01 528.261 297.468 528.159 297.875C528.159 298.283 528.159 298.537 528.159 298.639C526.122 299.759 524.289 300.472 522.66 300.778C521.132 301.083 519.452 301.236 517.619 301.236H507.384L499.898 302L474.54 300.625C472.401 300.625 470.313 300.727 468.277 300.931C466.342 301.134 464.407 301.338 462.472 301.542L457.583 302H446.737C445.922 302 445.26 301.745 444.751 301.236C444.344 300.625 443.987 299.912 443.682 299.098C443.376 298.181 443.173 297.264 443.071 296.348C442.969 295.431 442.918 294.667 442.918 294.056ZM622.872 283.974C622.465 284.178 621.803 284.789 620.886 285.807C620.071 286.724 619.409 287.182 618.9 287.182L613.095 290.085C612.891 290.186 612.535 290.441 612.026 290.848C611.618 291.154 611.109 291.561 610.498 292.07C609.989 292.478 609.531 292.885 609.123 293.293C608.716 293.598 608.461 293.751 608.36 293.751C608.156 293.853 607.748 293.955 607.137 294.056C606.628 294.158 606.017 294.26 605.304 294.362C604.693 294.464 604.082 294.566 603.471 294.667C602.962 294.667 602.555 294.667 602.249 294.667C601.434 294.871 600.67 295.228 599.958 295.737C599.347 296.246 598.685 296.857 597.972 297.57C597.361 298.181 596.648 298.843 595.833 299.556C595.018 300.167 594.102 300.727 593.083 301.236H578.571C578.062 301.236 577.349 301.134 576.432 300.931C575.617 300.727 574.701 300.472 573.682 300.167C572.766 299.861 571.849 299.505 570.933 299.098C570.016 298.69 569.303 298.334 568.794 298.028C568.794 297.824 568.489 297.366 567.878 296.653C567.368 295.839 567.063 295.177 566.961 294.667C566.757 294.464 566.604 294.209 566.503 293.904C566.197 293.598 566.044 293.293 566.044 292.987L561.92 289.015C561.105 287.386 560.392 285.349 559.781 282.905C559.272 280.359 559.017 278.271 559.017 276.641L560.087 273.433L559.017 270.225V268.392C559.017 267.883 559.119 267.221 559.323 266.406C559.628 265.49 559.934 264.624 560.239 263.809C560.545 262.893 560.85 262.078 561.156 261.365C561.461 260.551 561.716 259.99 561.92 259.685C562.022 259.583 562.378 259.227 562.989 258.616C563.702 257.903 564.466 257.139 565.281 256.324C566.095 255.408 566.808 254.593 567.419 253.88C568.132 253.167 568.59 252.658 568.794 252.352C568.896 252.352 569.252 251.996 569.863 251.283C570.576 250.57 570.933 250.112 570.933 249.908L571.238 249.297C571.34 249.093 571.391 248.89 571.391 248.686C573.122 247.566 574.803 246.395 576.432 245.172C578.062 243.848 579.895 242.728 581.932 241.812C582.033 241.71 582.746 241.404 584.07 240.895C585.496 240.284 587.024 239.673 588.653 239.062C590.384 238.349 592.065 237.738 593.694 237.229C595.324 236.72 596.546 236.363 597.361 236.159C598.379 235.65 599.448 234.988 600.569 234.174C601.689 233.359 602.758 232.595 603.777 231.882C604.897 231.169 605.915 230.558 606.832 230.049C607.748 229.438 608.512 229.132 609.123 229.132H613.095C613.197 229.132 613.503 228.98 614.012 228.674C614.215 228.572 614.47 228.42 614.776 228.216C615.183 228.114 616.15 227.961 617.678 227.758C619.307 227.554 620.377 227.452 620.886 227.452L622.872 224.855C623.585 224.448 624.298 224.142 625.011 223.938C625.723 223.633 626.385 223.327 626.997 223.022C627.608 222.716 628.117 222.309 628.524 221.8C629.033 221.189 629.441 220.374 629.746 219.356C630.459 217.217 630.917 214.976 631.121 212.634C631.427 210.19 631.579 207.898 631.579 205.76V202.399C631.579 202.195 631.274 201.635 630.663 200.719C630.052 199.802 629.746 199.14 629.746 198.733L627.913 190.942L624.552 186.817L622.872 183.609C622.465 183.406 622.057 182.896 621.65 182.082C621.242 181.267 620.988 180.605 620.886 180.096C620.682 179.485 619.919 178.925 618.595 178.415C617.271 177.804 615.794 177.295 614.164 176.888C612.535 176.378 610.906 176.022 609.276 175.818C607.748 175.513 606.679 175.36 606.068 175.36C605.864 175.36 605.05 175.36 603.624 175.36C602.3 175.258 601.18 175.207 600.263 175.207C599.347 175.207 598.074 175.309 596.444 175.513C594.916 175.615 593.44 175.92 592.014 176.429C590.588 176.837 589.315 177.448 588.195 178.263C587.176 179.077 586.667 180.147 586.667 181.471V182.845C586.769 183.049 586.973 183.507 587.278 184.22C587.584 184.831 587.889 185.544 588.195 186.359C588.5 187.072 588.755 187.785 588.959 188.498C589.264 189.109 589.417 189.516 589.417 189.72C589.417 190.127 589.264 190.738 588.959 191.553C588.755 192.266 588.551 193.03 588.348 193.844C587.635 197.103 586.667 199.598 585.445 201.33C584.223 203.061 582.288 204.741 579.64 206.371L577.807 207.746C577.4 208.051 577.043 208.357 576.738 208.662H565.128C564.211 208.662 563.447 208.306 562.836 207.593C562.225 206.88 561.716 206.065 561.309 205.149C560.901 204.13 560.596 203.163 560.392 202.246C560.188 201.228 560.087 200.464 560.087 199.955C560.087 199.344 560.188 198.529 560.392 197.511C560.596 196.492 560.901 195.525 561.309 194.608C561.716 193.59 562.123 192.673 562.531 191.858C563.04 190.942 563.549 190.229 564.058 189.72C564.364 189.007 564.72 188.396 565.128 187.887C565.331 187.377 565.535 186.97 565.739 186.664C566.044 186.359 566.248 186.155 566.35 186.053L568.794 183.609C571.035 182.183 572.919 180.707 574.446 179.179C575.974 177.652 577.756 176.022 579.793 174.291L590.486 167.264C591.505 166.347 592.421 165.685 593.236 165.278C594.153 164.769 595.069 164.361 595.986 164.056C596.902 163.75 597.819 163.496 598.735 163.292C599.754 163.088 600.925 162.732 602.249 162.223C602.351 162.223 602.605 162.121 603.013 161.917C603.522 161.713 604.031 161.51 604.54 161.306C605.05 161 605.559 160.746 606.068 160.542C606.577 160.338 606.934 160.186 607.137 160.084C607.647 159.982 608.614 159.778 610.04 159.473C611.568 159.167 613.146 158.862 614.776 158.556C616.507 158.251 618.136 157.996 619.664 157.792C621.192 157.589 622.261 157.487 622.872 157.487C623.381 157.487 623.839 157.691 624.247 158.098C624.756 158.403 625.112 158.556 625.316 158.556C625.622 158.556 626.08 158.607 626.691 158.709C627.302 158.709 627.913 158.76 628.524 158.862C629.237 158.964 629.848 159.065 630.357 159.167C630.968 159.167 631.376 159.218 631.579 159.32C632.19 159.524 633.005 159.829 634.024 160.237C635.042 160.542 636.06 160.899 637.079 161.306C638.097 161.713 639.014 162.07 639.829 162.375C640.643 162.681 641.152 162.884 641.356 162.986C641.458 163.088 641.713 163.343 642.12 163.75C642.527 164.158 642.986 164.667 643.495 165.278C644.106 165.787 644.666 166.296 645.175 166.805C645.684 167.315 646.041 167.722 646.245 168.027C647.365 169.657 648.485 171.134 649.605 172.458C650.827 173.782 651.693 175.309 652.202 177.04C652.711 178.059 653.068 179.179 653.272 180.401C653.577 181.521 653.832 182.642 654.035 183.762C654.341 184.882 654.697 185.952 655.105 186.97C655.512 187.988 656.174 188.905 657.091 189.72V199.191C657.091 205.913 656.836 212.532 656.327 219.05C655.92 225.466 655.614 232.086 655.41 238.909C655.003 239.928 654.646 240.946 654.341 241.964C654.035 242.881 653.883 243.95 653.883 245.172C653.883 246.089 653.985 247.107 654.188 248.228C654.494 249.348 654.646 250.163 654.646 250.672L653.272 253.574C653.17 253.982 653.119 254.389 653.119 254.796V256.477C653.119 258.004 653.17 259.634 653.272 261.365C653.373 263.097 653.628 264.828 654.035 266.559C654.443 268.29 655.003 269.92 655.716 271.448C656.531 272.975 657.651 274.248 659.077 275.267C659.586 275.674 660.248 276.285 661.063 277.1C661.979 277.813 662.641 278.169 663.048 278.169H663.659C664.678 278.169 665.849 278.016 667.173 277.711C668.497 277.303 669.872 276.896 671.298 276.489C672.723 275.979 674.149 275.521 675.575 275.114C677.103 274.706 678.579 274.503 680.005 274.503C681.94 274.503 682.908 275.114 682.908 276.336C682.908 279.595 682.246 282.752 680.922 285.807C679.7 288.862 677.968 291.612 675.728 294.056C673.487 296.399 670.89 298.334 667.937 299.861C664.983 301.287 661.775 302 658.313 302C654.85 302 651.489 301.847 648.23 301.542C644.972 301.134 641.407 300.218 637.537 298.792L636.468 298.028C636.264 297.824 635.755 297.213 634.94 296.195C634.227 295.075 633.413 293.904 632.496 292.682C631.681 291.459 630.917 290.339 630.205 289.321C629.492 288.2 629.084 287.488 628.982 287.182L625.316 283.974H624.247H622.872ZM588.348 261.06C588.348 262.689 588.602 264.573 589.111 266.712C589.723 268.851 590.588 270.887 591.708 272.822C592.829 274.656 594.204 276.234 595.833 277.558C597.462 278.882 599.296 279.544 601.332 279.544C601.74 279.544 602.096 279.493 602.402 279.391C602.707 279.289 603.573 278.882 604.999 278.169L618.9 276.947C619.206 276.743 619.664 276.336 620.275 275.725C620.988 275.012 621.65 274.299 622.261 273.586C622.974 272.873 623.585 272.211 624.094 271.6C624.705 270.989 625.112 270.531 625.316 270.225C625.418 270.225 625.571 269.92 625.774 269.309C626.08 268.698 626.436 267.934 626.844 267.017C627.251 266.101 627.608 265.133 627.913 264.115C628.32 263.097 628.677 262.18 628.982 261.365C629.186 260.856 629.339 260.092 629.441 259.074C629.644 258.055 629.746 257.495 629.746 257.393C629.644 256.273 629.543 255.153 629.441 254.033C629.339 252.912 629.288 251.792 629.288 250.672C629.288 249.653 629.339 248.737 629.441 247.922C629.543 247.006 629.644 246.089 629.746 245.172L630.816 241.812V239.062C630.816 237.331 630.255 235.752 629.135 234.326C628.015 232.901 626.385 232.188 624.247 232.188C622.515 232.188 621.039 232.595 619.817 233.41C618.696 234.123 617.372 235.039 615.845 236.159C615.336 236.465 614.317 237.025 612.79 237.84C611.262 238.553 609.633 239.317 607.901 240.131C606.272 240.844 604.693 241.557 603.166 242.27C601.74 242.983 600.772 243.441 600.263 243.645L597.361 245.172C597.157 245.172 596.75 245.274 596.139 245.478C595.527 245.682 595.222 245.834 595.222 245.936L593.083 249.908L589.417 253.574C588.908 254.695 588.602 256.019 588.5 257.546C588.399 258.972 588.348 260.143 588.348 261.06ZM716.974 300.931C714.224 301.644 711.525 302.102 708.877 302.306C706.229 302.611 703.479 302.764 700.628 302.764L696.656 303.069C695.434 303.069 694.67 302.866 694.365 302.458C693.652 301.542 692.99 300.574 692.379 299.556C691.768 298.436 691.462 297.061 691.462 295.431C691.462 294.311 691.768 293.242 692.379 292.223C692.99 291.205 693.652 290.492 694.365 290.085C695.485 289.677 696.503 289.473 697.42 289.473C698.337 289.372 699.253 289.321 700.17 289.321C701.086 289.321 701.952 289.27 702.767 289.168C703.581 288.964 704.447 288.761 705.364 288.557C707.706 287.64 709.539 286.622 710.863 285.502C712.187 284.381 713.205 283.21 713.918 281.988C714.631 280.664 715.039 279.34 715.14 278.016C715.344 276.692 715.446 275.368 715.446 274.045L714.988 265.795C714.784 265.592 714.529 265.184 714.224 264.573C713.918 263.86 713.613 263.402 713.307 263.198L712.543 260.754C712.543 259.736 712.951 258.972 713.765 258.463C714.58 257.954 714.988 256.986 714.988 255.56L713.918 248.075C713.918 246.445 714.02 244.816 714.224 243.187C714.427 241.455 715.089 239.928 716.21 238.604V228.063L714.988 224.855L716.974 218.439V214.314C716.974 211.768 716.77 209.171 716.362 206.524C715.955 203.876 715.242 201.431 714.224 199.191C713.307 196.849 711.983 194.71 710.252 192.775C708.622 190.84 706.586 189.261 704.141 188.039L696.656 184.068C695.841 183.864 695.078 183.253 694.365 182.234C693.652 181.216 693.194 180.248 692.99 179.332C693.194 178.823 693.55 178.11 694.059 177.193C694.568 176.277 695.128 175.411 695.74 174.596C696.452 173.68 697.216 172.916 698.031 172.305C698.948 171.592 699.813 171.235 700.628 171.235H708.266C708.368 171.235 708.673 171.083 709.183 170.777C709.692 170.472 710.201 170.166 710.71 169.861C711.219 169.453 711.729 169.097 712.238 168.791C712.747 168.384 713.104 168.129 713.307 168.027C713.409 167.926 713.715 167.773 714.224 167.569C714.427 167.467 714.682 167.366 714.988 167.264H721.862C721.964 167.162 722.167 166.958 722.473 166.653C722.88 166.347 723.339 165.991 723.848 165.583C724.357 165.176 724.917 164.667 725.528 164.056C725.732 163.852 726.241 163.75 727.056 163.75C727.871 163.75 728.685 163.75 729.5 163.75C729.907 163.75 730.518 163.852 731.333 164.056C732.25 164.158 733.115 164.412 733.93 164.819C734.847 165.227 735.61 165.736 736.222 166.347C736.833 166.856 737.138 167.518 737.138 168.333C737.138 168.435 737.087 168.486 736.985 168.486C736.985 168.486 736.985 168.537 736.985 168.639L736.833 168.791C736.833 168.995 736.629 169.657 736.222 170.777C735.916 171.897 735.712 172.559 735.61 172.763V174.291C735.61 174.494 735.763 174.851 736.069 175.36C736.374 175.767 736.68 176.226 736.985 176.735C737.291 177.142 737.545 177.55 737.749 177.957C738.055 178.263 738.207 178.466 738.207 178.568L741.415 184.068C741.619 184.882 742.23 185.391 743.249 185.595C744.267 185.697 745.133 185.748 745.846 185.748C747.271 185.748 748.595 185.188 749.817 184.068C751.039 182.845 752.109 181.827 753.025 181.012L757.761 174.291L758.067 173.985C758.372 173.68 758.525 173.527 758.525 173.527C758.729 173.527 759.289 173.323 760.205 172.916C761.122 172.509 761.733 172.203 762.038 171.999C762.14 171.897 762.497 171.49 763.108 170.777C763.719 170.064 764.381 169.301 765.094 168.486C765.807 167.671 766.468 166.958 767.08 166.347C767.691 165.634 768.098 165.227 768.302 165.125C768.403 165.023 768.76 164.87 769.371 164.667C770.084 164.463 770.797 164.259 771.51 164.056C772.324 163.852 773.037 163.699 773.648 163.597C774.361 163.394 774.769 163.292 774.87 163.292C776.194 162.783 777.213 162.273 777.926 161.764C778.639 161.255 779.301 160.848 779.912 160.542C780.624 160.135 781.439 159.829 782.356 159.626C783.272 159.422 784.596 159.32 786.328 159.32H789.383L795.799 162.528C795.901 162.528 796.206 162.579 796.715 162.681C797.225 162.681 797.785 162.732 798.396 162.834C799.007 162.935 799.567 163.037 800.076 163.139C800.585 163.139 800.942 163.19 801.146 163.292C801.553 163.292 802.317 163.394 803.437 163.597C804.659 163.699 805.27 163.852 805.27 164.056C805.474 164.056 806.034 164.361 806.95 164.972C807.867 165.481 808.478 165.991 808.784 166.5C808.885 166.5 809.14 166.347 809.547 166.042C809.955 165.736 810.311 165.583 810.617 165.583C812.043 166.092 813.417 167.009 814.741 168.333C816.065 169.657 817.135 170.777 817.949 171.694C818.459 172.305 819.07 173.17 819.783 174.291C820.597 175.309 821.361 176.328 822.074 177.346C822.787 178.364 823.398 179.281 823.907 180.096C824.518 180.809 824.824 181.165 824.824 181.165C824.824 181.267 824.875 181.776 824.976 182.693C825.18 183.609 825.384 184.729 825.587 186.053C825.791 187.276 825.995 188.549 826.199 189.872C826.402 191.196 826.555 192.266 826.657 193.08L825.587 209.273L827.726 223.022C827.726 224.651 827.573 225.873 827.268 226.688C826.962 227.503 826.606 228.165 826.199 228.674C825.791 229.183 825.435 229.693 825.129 230.202C824.824 230.609 824.671 231.271 824.671 232.188C824.671 233.613 824.926 234.836 825.435 235.854C826.046 236.872 826.453 237.942 826.657 239.062C826.657 239.266 826.708 239.826 826.81 240.742C826.911 241.659 827.013 242.779 827.115 244.103C827.217 245.325 827.319 246.598 827.421 247.922C827.522 249.144 827.573 250.163 827.573 250.977V263.351C826.86 264.777 826.402 265.897 826.199 266.712C825.995 267.425 825.893 268.341 825.893 269.462L825.587 277.405L826.199 283.974C826.199 284.28 826.249 284.687 826.351 285.196C826.555 285.604 826.759 285.909 826.962 286.113C827.675 286.622 828.948 287.029 830.781 287.335C832.716 287.64 834.55 288.404 836.281 289.626L837.503 290.848C837.808 292.274 838.47 293.496 839.489 294.515C840.507 295.533 841.016 296.602 841.016 297.723C841.016 298.843 840.864 299.963 840.558 301.083C840.355 302.204 839.54 302.764 838.114 302.764H837.503C835.466 302.967 833.582 303.12 831.851 303.222C830.119 303.426 828.235 303.528 826.199 303.528C825.282 303.528 824.264 303.477 823.143 303.375C822.023 303.375 820.903 303.273 819.783 303.069C817.949 302.866 816.167 302.713 814.436 302.611C812.806 302.509 811.177 302.458 809.547 302.458C807.307 302.458 805.066 302.509 802.826 302.611C800.687 302.713 798.447 302.866 796.104 303.069C795.595 302.866 794.933 302.713 794.118 302.611C793.406 302.509 792.642 302.458 791.827 302.458C790.401 302.458 789.026 302.356 787.702 302.153C786.378 302.051 785.105 302 783.883 302H779.912C778.486 302 777.518 301.338 777.009 300.014C776.5 298.69 776.245 296.908 776.245 294.667C776.245 293.242 776.653 291.867 777.467 290.543C778.282 289.219 779.708 288.455 781.745 288.251L791.827 286.877C793.253 286.775 794.068 286.164 794.271 285.043C794.577 283.821 794.831 282.854 795.035 282.141L795.799 280.613C796.512 279.391 797.021 278.424 797.326 277.711C797.632 276.896 797.836 276.183 797.938 275.572C798.141 274.859 798.243 274.095 798.243 273.281C798.345 272.466 798.498 271.397 798.701 270.073L799.465 266.865L798.701 262.893V254.185L797.632 245.936L799.465 238.909C799.261 237.178 799.109 235.497 799.007 233.868C799.007 232.137 799.007 230.354 799.007 228.521C799.007 226.79 799.007 225.059 799.007 223.327C799.109 221.494 799.261 219.712 799.465 217.981C799.872 217.064 800.076 216.3 800.076 215.689C800.178 214.976 800.229 213.907 800.229 212.481C800.127 212.278 799.669 211.717 798.854 210.801C798.039 209.783 797.632 209.171 797.632 208.968C797.428 208.662 797.174 208 796.868 206.982C796.664 205.862 796.41 204.69 796.104 203.468C795.901 202.246 795.697 201.075 795.493 199.955C795.29 198.835 795.137 198.122 795.035 197.816C794.933 197.714 794.628 197.409 794.118 196.9C793.711 196.39 793.253 195.881 792.744 195.372C792.234 194.863 791.725 194.404 791.216 193.997C790.809 193.488 790.554 193.182 790.452 193.08C790.452 192.979 790.35 192.52 790.147 191.706C789.943 190.891 789.688 190.484 789.383 190.484C789.179 190.178 788.925 189.771 788.619 189.261C788.313 188.65 788.059 188.243 787.855 188.039C787.55 187.937 786.939 187.785 786.022 187.581C785.105 187.276 784.138 187.021 783.12 186.817C782.203 186.614 781.286 186.41 780.37 186.206C779.555 186.003 778.995 185.85 778.689 185.748H776.704C770.797 185.748 765.603 186.563 761.122 188.192C756.743 189.72 752.363 192.419 747.984 196.289C747.577 196.594 747.017 197.103 746.304 197.816C745.591 198.529 744.878 199.242 744.165 199.955C743.452 200.668 742.79 201.33 742.179 201.941C741.67 202.45 741.415 202.755 741.415 202.857C741.314 202.959 741.212 203.316 741.11 203.927C741.008 204.538 740.906 205.2 740.804 205.913C740.703 206.625 740.601 207.287 740.499 207.898C740.499 208.509 740.499 208.866 740.499 208.968C740.092 210.394 739.684 211.768 739.277 213.092C738.869 214.416 738.666 215.944 738.666 217.675C738.666 220.629 738.819 223.175 739.124 225.313C739.531 227.452 739.735 229.845 739.735 232.493C739.735 234.123 739.48 235.599 738.971 236.923C738.462 238.145 738.207 239.928 738.207 242.27L739.735 253.116L738.207 260.754V262.893C738.411 263.097 738.615 263.759 738.819 264.879C739.124 265.999 739.277 266.661 739.277 266.865V276.641L739.735 279.849C739.837 280.155 740.142 280.562 740.652 281.072C741.161 281.479 741.721 281.937 742.332 282.446C742.943 282.854 743.503 283.261 744.012 283.669C744.522 283.974 744.878 284.178 745.082 284.28C745.285 284.483 745.693 284.738 746.304 285.043C747.017 285.247 747.781 285.502 748.595 285.807C749.41 286.011 750.174 286.215 750.887 286.418C751.701 286.622 752.313 286.775 752.72 286.877C753.535 287.284 754.247 287.539 754.859 287.64C755.47 287.742 756.03 287.844 756.539 287.946C757.15 287.946 757.659 288.048 758.067 288.251C758.576 288.455 759.085 288.913 759.594 289.626C759.9 289.932 760.256 290.135 760.664 290.237C761.071 290.237 761.427 290.339 761.733 290.543C762.14 290.645 762.446 290.848 762.649 291.154C762.853 291.459 762.955 291.969 762.955 292.682L763.26 296.195C763.26 297.01 763.108 297.723 762.802 298.334C762.497 298.843 761.784 299.454 760.664 300.167C759.747 300.676 758.983 301.287 758.372 302C757.863 302.713 757.048 303.069 755.928 303.069C754.808 303.069 753.687 303.273 752.567 303.68C751.447 304.19 750.632 304.444 750.123 304.444H748.29C744.012 303.731 739.531 302.917 734.847 302C730.264 300.982 725.63 300.472 720.945 300.472L716.974 300.931ZM874.471 243.339L873.555 228.063L874.471 212.176V207.593C874.573 207.084 874.726 206.473 874.93 205.76C875.133 205.047 875.235 204.436 875.235 203.927C875.235 200.973 874.777 197.969 873.86 194.914C872.944 191.757 872.231 188.701 871.722 185.748C870.703 185.035 869.227 184.526 867.292 184.22C865.458 183.915 863.625 183.558 861.792 183.151C859.959 182.642 858.33 181.929 856.904 181.012C855.58 180.096 854.918 178.67 854.918 176.735C854.918 174.596 855.631 173.018 857.057 171.999C858.482 170.879 860.163 169.962 862.098 169.25C864.134 168.435 866.171 167.722 868.208 167.111C870.347 166.5 872.078 165.583 873.402 164.361C874.726 163.241 876.203 161.866 877.832 160.237C879.462 158.607 880.633 157.334 881.346 156.418C882.16 154.788 883.23 152.751 884.554 150.307C885.979 147.863 887.507 145.521 889.137 143.28C890.766 140.938 892.497 138.952 894.33 137.322C896.164 135.591 897.997 134.725 899.83 134.725C901.052 134.725 902.02 135.082 902.732 135.795C903.547 136.406 904.158 137.22 904.566 138.239C905.075 139.155 905.431 140.174 905.635 141.294C905.839 142.414 905.991 143.484 906.093 144.502V162.223L906.857 163.292H914.037C916.583 163.292 918.925 163.139 921.064 162.834C923.203 162.426 925.188 162.019 927.022 161.611C928.957 161.102 930.79 160.695 932.521 160.389C934.354 159.982 936.289 159.778 938.326 159.778C941.178 159.778 943.571 160.848 945.506 162.986C947.441 165.125 948.408 167.671 948.408 170.624C948.408 172.967 948.001 174.902 947.186 176.429C946.473 177.957 945.404 179.179 943.978 180.096C942.552 181.012 940.872 181.674 938.937 182.082C937.002 182.387 934.863 182.54 932.521 182.54L922.439 181.776L914.801 182.54L907.468 181.776C906.042 181.776 904.718 182.438 903.496 183.762C902.376 184.984 901.816 186.155 901.816 187.276L903.191 198.733C903.191 200.158 902.987 201.533 902.58 202.857C902.172 204.181 901.714 205.556 901.205 206.982C900.696 208.306 900.237 209.681 899.83 211.106C899.423 212.532 899.219 214.009 899.219 215.537V218.286L900.594 236.007C900.288 236.618 900.085 237.229 899.983 237.84C899.983 238.451 899.983 239.215 899.983 240.131C899.983 240.844 900.085 241.506 900.288 242.117C900.492 242.728 900.594 243.288 900.594 243.798C900.899 246.751 901.052 249.653 901.052 252.505C901.052 255.051 900.95 257.495 900.747 259.838C900.543 262.18 900.237 264.522 899.83 266.865C899.932 266.967 900.135 267.272 900.441 267.781C900.747 268.189 901.052 268.698 901.358 269.309C901.765 269.818 902.121 270.378 902.427 270.989C902.732 271.498 902.987 271.804 903.191 271.906C904.005 273.128 904.922 274.045 905.94 274.656C906.959 275.267 907.977 275.827 908.996 276.336C910.116 276.743 911.236 277.202 912.356 277.711C913.579 278.22 914.75 278.984 915.87 280.002H921.675C924.017 280.002 926.258 279.748 928.396 279.238C930.535 278.729 932.572 278.22 934.507 277.711C936.544 277.1 938.479 276.54 940.312 276.03C942.247 275.521 944.233 275.267 946.27 275.267C947.492 275.267 948.408 275.878 949.019 277.1C949.63 278.322 949.936 279.493 949.936 280.613C949.936 281.224 949.885 281.734 949.783 282.141C949.783 282.446 949.681 282.752 949.478 283.057C949.274 283.363 948.968 283.719 948.561 284.127C948.256 284.534 947.848 285.094 947.339 285.807L945.2 288.862C944.895 289.066 944.386 289.575 943.673 290.39C943.062 291.205 942.349 292.121 941.534 293.14C940.719 294.056 939.905 294.973 939.09 295.89C938.275 296.704 937.664 297.315 937.257 297.723C936.238 298.843 934.711 299.912 932.674 300.931C930.637 301.949 928.498 302.815 926.258 303.528C924.017 304.342 921.828 304.953 919.689 305.361C917.652 305.768 916.023 305.972 914.801 305.972L895.247 302C893.516 301.491 891.581 300.727 889.442 299.709C887.303 298.69 885.216 297.519 883.179 296.195C881.244 294.769 879.513 293.191 877.985 291.459C876.559 289.728 875.643 287.844 875.235 285.807V275.267C874.726 271.804 874.115 268.545 873.402 265.49C872.791 262.333 872.485 259.074 872.485 255.713L874.471 243.339ZM1031.66 283.974C1031.26 284.178 1030.59 284.789 1029.68 285.807C1028.86 286.724 1028.2 287.182 1027.69 287.182L1021.89 290.085C1021.68 290.186 1021.33 290.441 1020.82 290.848C1020.41 291.154 1019.9 291.561 1019.29 292.07C1018.78 292.478 1018.32 292.885 1017.92 293.293C1017.51 293.598 1017.25 293.751 1017.15 293.751C1016.95 293.853 1016.54 293.955 1015.93 294.056C1015.42 294.158 1014.81 294.26 1014.1 294.362C1013.49 294.464 1012.87 294.566 1012.26 294.667C1011.75 294.667 1011.35 294.667 1011.04 294.667C1010.23 294.871 1009.46 295.228 1008.75 295.737C1008.14 296.246 1007.48 296.857 1006.76 297.57C1006.15 298.181 1005.44 298.843 1004.62 299.556C1003.81 300.167 1002.89 300.727 1001.88 301.236H987.363C986.854 301.236 986.141 301.134 985.224 300.931C984.409 300.727 983.493 300.472 982.474 300.167C981.558 299.861 980.641 299.505 979.725 299.098C978.808 298.69 978.095 298.334 977.586 298.028C977.586 297.824 977.28 297.366 976.669 296.653C976.16 295.839 975.855 295.177 975.753 294.667C975.549 294.464 975.396 294.209 975.295 293.904C974.989 293.598 974.836 293.293 974.836 292.987L970.712 289.015C969.897 287.386 969.184 285.349 968.573 282.905C968.064 280.359 967.809 278.271 967.809 276.641L968.879 273.433L967.809 270.225V268.392C967.809 267.883 967.911 267.221 968.115 266.406C968.42 265.49 968.726 264.624 969.031 263.809C969.337 262.893 969.642 262.078 969.948 261.365C970.253 260.551 970.508 259.99 970.712 259.685C970.814 259.583 971.17 259.227 971.781 258.616C972.494 257.903 973.258 257.139 974.072 256.324C974.887 255.408 975.6 254.593 976.211 253.88C976.924 253.167 977.382 252.658 977.586 252.352C977.688 252.352 978.044 251.996 978.655 251.283C979.368 250.57 979.725 250.112 979.725 249.908L980.03 249.297C980.132 249.093 980.183 248.89 980.183 248.686C981.914 247.566 983.595 246.395 985.224 245.172C986.854 243.848 988.687 242.728 990.724 241.812C990.825 241.71 991.538 241.404 992.862 240.895C994.288 240.284 995.816 239.673 997.445 239.062C999.176 238.349 1000.86 237.738 1002.49 237.229C1004.12 236.72 1005.34 236.363 1006.15 236.159C1007.17 235.65 1008.24 234.988 1009.36 234.174C1010.48 233.359 1011.55 232.595 1012.57 231.882C1013.69 231.169 1014.71 230.558 1015.62 230.049C1016.54 229.438 1017.3 229.132 1017.92 229.132H1021.89C1021.99 229.132 1022.29 228.98 1022.8 228.674C1023.01 228.572 1023.26 228.42 1023.57 228.216C1023.97 228.114 1024.94 227.961 1026.47 227.758C1028.1 227.554 1029.17 227.452 1029.68 227.452L1031.66 224.855C1032.38 224.448 1033.09 224.142 1033.8 223.938C1034.52 223.633 1035.18 223.327 1035.79 223.022C1036.4 222.716 1036.91 222.309 1037.32 221.8C1037.83 221.189 1038.23 220.374 1038.54 219.356C1039.25 217.217 1039.71 214.976 1039.91 212.634C1040.22 210.19 1040.37 207.898 1040.37 205.76V202.399C1040.37 202.195 1040.07 201.635 1039.45 200.719C1038.84 199.802 1038.54 199.14 1038.54 198.733L1036.7 190.942L1033.34 186.817L1031.66 183.609C1031.26 183.406 1030.85 182.896 1030.44 182.082C1030.03 181.267 1029.78 180.605 1029.68 180.096C1029.47 179.485 1028.71 178.925 1027.39 178.415C1026.06 177.804 1024.59 177.295 1022.96 176.888C1021.33 176.378 1019.7 176.022 1018.07 175.818C1016.54 175.513 1015.47 175.36 1014.86 175.36C1014.66 175.36 1013.84 175.36 1012.42 175.36C1011.09 175.258 1009.97 175.207 1009.06 175.207C1008.14 175.207 1006.87 175.309 1005.24 175.513C1003.71 175.615 1002.23 175.92 1000.81 176.429C999.38 176.837 998.107 177.448 996.987 178.263C995.968 179.077 995.459 180.147 995.459 181.471V182.845C995.561 183.049 995.765 183.507 996.07 184.22C996.376 184.831 996.681 185.544 996.987 186.359C997.292 187.072 997.547 187.785 997.751 188.498C998.056 189.109 998.209 189.516 998.209 189.72C998.209 190.127 998.056 190.738 997.751 191.553C997.547 192.266 997.343 193.03 997.14 193.844C996.427 197.103 995.459 199.598 994.237 201.33C993.015 203.061 991.08 204.741 988.432 206.371L986.599 207.746C986.192 208.051 985.835 208.357 985.53 208.662H973.92C973.003 208.662 972.239 208.306 971.628 207.593C971.017 206.88 970.508 206.065 970.101 205.149C969.693 204.13 969.388 203.163 969.184 202.246C968.98 201.228 968.879 200.464 968.879 199.955C968.879 199.344 968.98 198.529 969.184 197.511C969.388 196.492 969.693 195.525 970.101 194.608C970.508 193.59 970.915 192.673 971.323 191.858C971.832 190.942 972.341 190.229 972.85 189.72C973.156 189.007 973.512 188.396 973.92 187.887C974.123 187.377 974.327 186.97 974.531 186.664C974.836 186.359 975.04 186.155 975.142 186.053L977.586 183.609C979.826 182.183 981.711 180.707 983.238 179.179C984.766 177.652 986.548 176.022 988.585 174.291L999.278 167.264C1000.3 166.347 1001.21 165.685 1002.03 165.278C1002.94 164.769 1003.86 164.361 1004.78 164.056C1005.69 163.75 1006.61 163.496 1007.53 163.292C1008.55 163.088 1009.72 162.732 1011.04 162.223C1011.14 162.223 1011.4 162.121 1011.8 161.917C1012.31 161.713 1012.82 161.51 1013.33 161.306C1013.84 161 1014.35 160.746 1014.86 160.542C1015.37 160.338 1015.73 160.186 1015.93 160.084C1016.44 159.982 1017.41 159.778 1018.83 159.473C1020.36 159.167 1021.94 158.862 1023.57 158.556C1025.3 158.251 1026.93 157.996 1028.46 157.792C1029.98 157.589 1031.05 157.487 1031.66 157.487C1032.17 157.487 1032.63 157.691 1033.04 158.098C1033.55 158.403 1033.9 158.556 1034.11 158.556C1034.41 158.556 1034.87 158.607 1035.48 158.709C1036.09 158.709 1036.7 158.76 1037.32 158.862C1038.03 158.964 1038.64 159.065 1039.15 159.167C1039.76 159.167 1040.17 159.218 1040.37 159.32C1040.98 159.524 1041.8 159.829 1042.82 160.237C1043.83 160.542 1044.85 160.899 1045.87 161.306C1046.89 161.713 1047.81 162.07 1048.62 162.375C1049.44 162.681 1049.94 162.884 1050.15 162.986C1050.25 163.088 1050.5 163.343 1050.91 163.75C1051.32 164.158 1051.78 164.667 1052.29 165.278C1052.9 165.787 1053.46 166.296 1053.97 166.805C1054.48 167.315 1054.83 167.722 1055.04 168.027C1056.16 169.657 1057.28 171.134 1058.4 172.458C1059.62 173.782 1060.48 175.309 1060.99 177.04C1061.5 178.059 1061.86 179.179 1062.06 180.401C1062.37 181.521 1062.62 182.642 1062.83 183.762C1063.13 184.882 1063.49 185.952 1063.9 186.97C1064.3 187.988 1064.97 188.905 1065.88 189.72V199.191C1065.88 205.913 1065.63 212.532 1065.12 219.05C1064.71 225.466 1064.41 232.086 1064.2 238.909C1063.79 239.928 1063.44 240.946 1063.13 241.964C1062.83 242.881 1062.67 243.95 1062.67 245.172C1062.67 246.089 1062.78 247.107 1062.98 248.228C1063.29 249.348 1063.44 250.163 1063.44 250.672L1062.06 253.574C1061.96 253.982 1061.91 254.389 1061.91 254.796V256.477C1061.91 258.004 1061.96 259.634 1062.06 261.365C1062.17 263.097 1062.42 264.828 1062.83 266.559C1063.23 268.29 1063.79 269.92 1064.51 271.448C1065.32 272.975 1066.44 274.248 1067.87 275.267C1068.38 275.674 1069.04 276.285 1069.85 277.1C1070.77 277.813 1071.43 278.169 1071.84 278.169H1072.45C1073.47 278.169 1074.64 278.016 1075.96 277.711C1077.29 277.303 1078.66 276.896 1080.09 276.489C1081.52 275.979 1082.94 275.521 1084.37 275.114C1085.89 274.706 1087.37 274.503 1088.8 274.503C1090.73 274.503 1091.7 275.114 1091.7 276.336C1091.7 279.595 1091.04 282.752 1089.71 285.807C1088.49 288.862 1086.76 291.612 1084.52 294.056C1082.28 296.399 1079.68 298.334 1076.73 299.861C1073.78 301.287 1070.57 302 1067.1 302C1063.64 302 1060.28 301.847 1057.02 301.542C1053.76 301.134 1050.2 300.218 1046.33 298.792L1045.26 298.028C1045.06 297.824 1044.55 297.213 1043.73 296.195C1043.02 295.075 1042.2 293.904 1041.29 292.682C1040.47 291.459 1039.71 290.339 1039 289.321C1038.28 288.2 1037.88 287.488 1037.77 287.182L1034.11 283.974H1033.04H1031.66ZM997.14 261.06C997.14 262.689 997.394 264.573 997.903 266.712C998.514 268.851 999.38 270.887 1000.5 272.822C1001.62 274.656 1003 276.234 1004.62 277.558C1006.25 278.882 1008.09 279.544 1010.12 279.544C1010.53 279.544 1010.89 279.493 1011.19 279.391C1011.5 279.289 1012.36 278.882 1013.79 278.169L1027.69 276.947C1028 276.743 1028.46 276.336 1029.07 275.725C1029.78 275.012 1030.44 274.299 1031.05 273.586C1031.77 272.873 1032.38 272.211 1032.89 271.6C1033.5 270.989 1033.9 270.531 1034.11 270.225C1034.21 270.225 1034.36 269.92 1034.57 269.309C1034.87 268.698 1035.23 267.934 1035.64 267.017C1036.04 266.101 1036.4 265.133 1036.7 264.115C1037.11 263.097 1037.47 262.18 1037.77 261.365C1037.98 260.856 1038.13 260.092 1038.23 259.074C1038.44 258.055 1038.54 257.495 1038.54 257.393C1038.44 256.273 1038.33 255.153 1038.23 254.033C1038.13 252.912 1038.08 251.792 1038.08 250.672C1038.08 249.653 1038.13 248.737 1038.23 247.922C1038.33 247.006 1038.44 246.089 1038.54 245.172L1039.61 241.812V239.062C1039.61 237.331 1039.05 235.752 1037.93 234.326C1036.81 232.901 1035.18 232.188 1033.04 232.188C1031.31 232.188 1029.83 232.595 1028.61 233.41C1027.49 234.123 1026.16 235.039 1024.64 236.159C1024.13 236.465 1023.11 237.025 1021.58 237.84C1020.05 238.553 1018.42 239.317 1016.69 240.131C1015.06 240.844 1013.49 241.557 1011.96 242.27C1010.53 242.983 1009.56 243.441 1009.06 243.645L1006.15 245.172C1005.95 245.172 1005.54 245.274 1004.93 245.478C1004.32 245.682 1004.01 245.834 1004.01 245.936L1001.88 249.908L998.209 253.574C997.7 254.695 997.394 256.019 997.292 257.546C997.19 258.972 997.14 260.143 997.14 261.06ZM1158 302C1156.88 302 1155.76 301.847 1154.64 301.542C1153.62 301.236 1152.6 300.931 1151.58 300.625C1150.56 300.218 1149.49 299.861 1148.37 299.556C1147.36 299.25 1146.24 299.098 1145.01 299.098C1142.37 299.098 1139.62 299.301 1136.76 299.709C1134.01 300.014 1131.11 300.167 1128.06 300.167C1126.63 300.167 1125.36 300.167 1124.24 300.167C1123.12 300.065 1122 299.963 1120.88 299.861C1119.86 299.658 1118.79 299.505 1117.67 299.403C1116.55 299.199 1115.28 298.996 1113.85 298.792L1109.88 298.334C1108.45 297.621 1107.08 296.551 1105.75 295.126C1104.43 293.598 1103.77 291.918 1103.77 290.085V287.946L1114.31 277.405L1119.65 269.003C1120.06 268.29 1120.42 267.883 1120.72 267.781C1121.13 267.578 1121.49 267.476 1121.79 267.476C1122.1 267.476 1122.46 267.425 1122.86 267.323C1123.27 267.119 1123.78 266.712 1124.39 266.101C1125.61 264.37 1126.53 262.638 1127.14 260.907C1127.85 259.074 1128.72 257.444 1129.74 256.019C1131.06 253.88 1132.13 251.792 1132.95 249.755C1133.76 247.617 1134.27 245.376 1134.47 243.034C1136.82 241.201 1138.95 239.469 1140.89 237.84C1142.93 236.109 1144.76 234.428 1146.39 232.799C1147.92 231.169 1149.29 229.591 1150.51 228.063C1151.84 226.535 1153.06 225.11 1154.18 223.786C1155.5 219.508 1157.03 215.537 1158.76 211.87C1159.17 210.75 1159.98 209.681 1161.21 208.662C1162.43 207.542 1163.34 206.422 1163.96 205.301C1164.67 204.079 1165.03 202.959 1165.03 201.941C1165.03 200.82 1165.48 199.751 1166.4 198.733L1171.44 196.594C1171.75 196.39 1172.05 195.779 1172.36 194.761C1172.77 193.641 1173.17 192.469 1173.58 191.247C1173.99 189.923 1174.29 188.65 1174.5 187.428C1174.8 186.104 1175.01 185.188 1175.11 184.679C1176.02 183.966 1176.64 182.744 1176.94 181.012C1177.35 179.281 1177.55 177.957 1177.55 177.04C1177.55 176.328 1177.25 175.717 1176.64 175.207C1176.02 174.596 1175.26 174.087 1174.34 173.68C1173.53 173.272 1172.66 172.967 1171.75 172.763C1170.93 172.559 1170.22 172.458 1169.61 172.458C1168.18 172.356 1166.76 172.254 1165.33 172.152C1164.01 172.05 1162.78 171.999 1161.66 171.999L1153.42 172.458C1152.3 173.17 1151.07 173.629 1149.75 173.832C1148.53 174.036 1147.2 174.138 1145.78 174.138H1134.47C1131.72 174.24 1128.97 175.055 1126.22 176.582C1123.47 178.11 1120.83 179.943 1118.28 182.082C1115.84 184.118 1113.49 186.206 1111.25 188.345C1109.11 190.484 1107.23 192.266 1105.6 193.692L1103.77 193.844C1102.85 193.844 1102.09 193.284 1101.48 192.164C1100.87 191.044 1100.51 189.974 1100.41 188.956L1113.85 161.611C1113.95 161.408 1114.26 161.204 1114.77 161C1115.38 160.695 1115.94 160.288 1116.45 159.778H1117.82C1118.94 160.186 1119.71 160.491 1120.11 160.695C1120.62 160.797 1121.03 160.848 1121.34 160.848C1121.74 160.848 1122.15 160.899 1122.56 161C1123.07 161 1123.83 161.153 1124.85 161.459C1126.78 161.764 1128.57 162.019 1130.2 162.223C1131.82 162.324 1133.4 162.426 1134.93 162.528C1136.46 162.63 1137.99 162.681 1139.51 162.681C1141.04 162.681 1142.67 162.681 1144.4 162.681C1146.95 162.681 1149.29 162.273 1151.43 161.459C1153.67 160.542 1155.91 160.084 1158.15 160.084C1171.19 162.63 1184.43 164.056 1197.87 164.361C1200.42 164.361 1202.81 163.954 1205.05 163.139C1207.39 162.324 1209.73 161.917 1212.08 161.917C1212.89 161.917 1213.91 162.019 1215.13 162.223C1216.46 162.324 1217.73 162.63 1218.95 163.139C1220.17 163.546 1221.24 164.158 1222.16 164.972C1223.07 165.787 1223.53 166.805 1223.53 168.027L1223.23 169.097C1220.99 172.05 1218.85 175.309 1216.81 178.874C1214.88 182.336 1212.79 185.391 1210.55 188.039C1207.9 190.993 1205.66 194.048 1203.83 197.205C1201.99 200.26 1200.52 203.672 1199.4 207.44L1188.55 217.675L1185.95 224.55L1179.08 231.118C1177.35 232.85 1175.92 234.581 1174.8 236.312C1173.78 238.044 1172.87 239.775 1172.05 241.506C1171.24 243.237 1170.42 245.02 1169.61 246.853C1168.9 248.686 1167.98 250.57 1166.86 252.505L1162.12 257.852C1161.21 260.194 1159.98 262.231 1158.46 263.962C1156.93 265.693 1155.6 267.272 1154.48 268.698C1153.36 270.531 1152.45 272.415 1151.73 274.35C1151.12 276.285 1150.36 278.271 1149.44 280.308C1149.34 280.511 1149.29 280.664 1149.29 280.766V281.377C1149.29 283.923 1150.26 285.654 1152.19 286.571C1154.13 287.386 1156.22 287.844 1158.46 287.946C1159.78 288.15 1161.26 288.353 1162.89 288.557C1164.52 288.761 1166.15 288.964 1167.77 289.168C1169.4 289.27 1170.98 289.372 1172.51 289.473C1174.14 289.575 1175.62 289.626 1176.94 289.626C1184.27 289.626 1190.89 288.506 1196.8 286.265C1202.71 283.923 1208.26 280.359 1213.45 275.572C1214.67 274.35 1215.64 273.332 1216.35 272.517C1217.17 271.6 1217.93 270.786 1218.64 270.073C1219.36 269.36 1220.17 268.698 1221.09 268.087C1222.01 267.374 1223.23 266.712 1224.76 266.101C1225.26 266.101 1226.03 266.406 1227.05 267.017C1228.07 267.628 1228.63 268.189 1228.73 268.698C1228.73 269.513 1228.57 270.531 1228.27 271.753C1227.96 272.975 1227.71 273.994 1227.51 274.808C1227.3 278.882 1226.84 283.057 1226.13 287.335C1225.52 291.612 1224.81 295.89 1223.99 300.167C1222.67 302.204 1220.83 303.375 1218.49 303.68C1216.15 303.986 1213.5 304.139 1210.55 304.139C1207.49 304.139 1204.44 303.884 1201.38 303.375C1198.33 302.967 1195.32 302.509 1192.37 302C1189.42 301.491 1186.46 301.033 1183.51 300.625C1180.56 300.116 1177.6 299.861 1174.65 299.861L1158 302ZM1253.78 302C1252.56 302 1251.59 302.204 1250.88 302.611C1250.27 303.12 1249.6 303.375 1248.89 303.375C1248.48 303.375 1247.98 303.171 1247.36 302.764C1246.85 302.356 1246.04 301.847 1244.92 301.236C1244.72 301.134 1244.56 300.88 1244.46 300.472C1244.46 299.963 1244.36 299.403 1244.16 298.792C1243.95 298.181 1243.8 297.417 1243.7 296.501C1243.7 296.399 1243.8 296.144 1244 295.737C1244.31 295.228 1244.61 294.718 1244.92 294.209C1245.23 293.598 1245.53 293.038 1245.84 292.529C1246.14 292.02 1246.4 291.663 1246.6 291.459L1249.5 289.779H1252.86C1255.21 289.779 1257.29 289.626 1259.13 289.321C1261.06 288.913 1262.59 287.742 1263.71 285.807C1264.12 282.345 1264.42 279.035 1264.63 275.878C1264.83 272.721 1265.34 269.614 1266.15 266.559L1267.99 259.379V245.172L1268.75 231.424V222.411C1268.75 222.207 1268.65 221.698 1268.45 220.883C1268.24 219.967 1268.04 218.999 1267.83 217.981C1267.63 216.86 1267.43 215.842 1267.22 214.926C1267.02 213.907 1266.92 213.143 1266.92 212.634V198.122C1266.51 197.001 1265.85 195.627 1264.93 193.997C1264.02 192.368 1263.1 191.196 1262.18 190.484L1257.45 188.956C1255.72 187.734 1254.14 186.41 1252.71 184.984C1251.39 183.558 1250.32 181.776 1249.5 179.637C1249.5 178.517 1249.76 177.652 1250.27 177.04C1250.78 176.429 1251.44 175.971 1252.25 175.666C1253.07 175.36 1253.93 175.105 1254.85 174.902C1255.77 174.698 1256.63 174.494 1257.45 174.291L1268.75 168.486C1269.67 168.078 1270.43 167.773 1271.04 167.569C1271.76 167.264 1272.42 166.958 1273.03 166.653C1273.64 166.347 1274.2 165.991 1274.71 165.583C1275.32 165.176 1275.98 164.565 1276.69 163.75L1281.12 163.445C1281.63 163.445 1282.4 163.496 1283.42 163.597C1284.54 163.699 1285.2 163.75 1285.4 163.75C1285.71 163.75 1286.22 163.801 1286.93 163.903C1287.64 164.005 1288.41 164.158 1289.22 164.361C1290.04 164.565 1290.8 164.769 1291.51 164.972C1292.23 165.176 1292.73 165.329 1293.04 165.431C1293.96 165.838 1294.52 166.704 1294.72 168.027C1295.03 169.25 1295.18 170.37 1295.18 171.388V176.277L1294.11 179.943C1293.6 186.563 1293.35 193.08 1293.35 199.497C1293.35 205.913 1293.24 212.532 1293.04 219.356L1292.28 224.855C1292.17 224.957 1292.07 225.313 1291.97 225.924C1291.97 226.535 1291.97 227.248 1291.97 228.063C1291.97 228.878 1291.97 229.693 1291.97 230.507C1291.97 231.22 1291.97 231.78 1291.97 232.188C1291.97 232.901 1291.97 233.715 1291.97 234.632C1291.97 235.548 1291.97 236.414 1291.97 237.229C1291.97 238.044 1291.97 238.756 1291.97 239.367C1292.07 239.877 1292.17 240.131 1292.28 240.131C1292.28 240.437 1292.38 241.15 1292.58 242.27C1292.79 243.288 1292.94 243.899 1293.04 244.103V247.311C1293.04 247.617 1292.99 248.431 1292.89 249.755C1292.79 251.079 1292.68 252.607 1292.58 254.338C1292.48 255.968 1292.38 257.597 1292.28 259.227C1292.28 260.754 1292.28 261.874 1292.28 262.587C1292.28 263.504 1292.33 264.981 1292.43 267.017C1292.63 268.952 1292.84 271.04 1293.04 273.281C1293.35 275.521 1293.6 277.66 1293.8 279.697C1294.01 281.632 1294.11 283.007 1294.11 283.821C1294.11 284.942 1294.67 285.858 1295.79 286.571C1297.01 287.182 1297.98 287.589 1298.69 287.793C1299 287.793 1299.61 287.844 1300.53 287.946C1301.54 288.048 1302.61 288.15 1303.73 288.251C1304.85 288.353 1305.87 288.455 1306.79 288.557C1307.81 288.557 1308.52 288.557 1308.93 288.557C1309.64 289.372 1310.2 290.237 1310.61 291.154C1311.12 292.07 1311.37 293.242 1311.37 294.667C1311.37 296.093 1311.22 297.468 1310.91 298.792C1310.71 300.116 1310.15 301.033 1309.23 301.542C1308.01 302.56 1306.64 303.12 1305.11 303.222C1303.68 303.426 1302.15 303.528 1300.53 303.528H1297.78L1294.11 302H1275.32C1275.22 302 1274.56 301.898 1273.33 301.694C1272.11 301.389 1271.3 301.236 1270.89 301.236H1266.61L1253.78 302ZM1258.21 99.59L1262.95 94.8543L1267.99 90.8825L1269.51 87.6745C1270.74 86.7579 1272.11 86.2487 1273.64 86.1469C1275.17 85.9432 1276.54 85.8414 1277.76 85.8414H1279.29C1279.39 85.9432 1279.7 86.096 1280.21 86.2997C1280.72 86.5033 1281.23 86.707 1281.74 86.9107C1282.24 87.1144 1282.7 87.3181 1283.11 87.5218C1283.62 87.6236 1283.98 87.6745 1284.18 87.6745C1284.59 87.8782 1285.2 88.0819 1286.01 88.2856C1286.93 88.3874 1287.85 88.5402 1288.76 88.7439C1289.68 88.8457 1290.54 88.9475 1291.36 89.0494C1292.17 89.0494 1292.73 89.0494 1293.04 89.0494C1293.45 89.1512 1293.91 89.7623 1294.41 90.8825C1294.92 92.0028 1295.33 93.2758 1295.64 94.7016C1296.04 96.0255 1296.35 97.3495 1296.55 98.6734C1296.86 99.8955 1297.01 100.71 1297.01 101.118C1297.01 103.664 1296.71 106.057 1296.1 108.297C1295.59 110.436 1294.31 112.371 1292.28 114.102C1292.17 114.204 1291.87 114.357 1291.36 114.561C1290.95 114.663 1290.49 114.815 1289.98 115.019C1289.48 115.121 1288.97 115.274 1288.46 115.477C1288.05 115.579 1287.85 115.63 1287.85 115.63C1287.74 115.834 1287.49 116.19 1287.08 116.699C1286.67 117.107 1286.22 117.565 1285.71 118.074C1285.2 118.482 1284.69 118.889 1284.18 119.296C1283.67 119.602 1283.37 119.806 1283.26 119.907C1282.65 120.62 1281.74 121.028 1280.51 121.129C1279.39 121.231 1278.32 121.282 1277.31 121.282H1271.35C1270.23 121.282 1269.26 121.231 1268.45 121.129C1267.63 120.926 1266.51 120.264 1265.08 119.144C1263.35 116.598 1261.72 114.255 1260.2 112.116C1258.67 109.978 1257.9 107.279 1257.9 104.02L1258.21 99.59ZM1395.54 283.974C1395.14 284.178 1394.47 284.789 1393.56 285.807C1392.74 286.724 1392.08 287.182 1391.57 287.182L1385.77 290.085C1385.56 290.186 1385.21 290.441 1384.7 290.848C1384.29 291.154 1383.78 291.561 1383.17 292.07C1382.66 292.478 1382.2 292.885 1381.79 293.293C1381.39 293.598 1381.13 293.751 1381.03 293.751C1380.83 293.853 1380.42 293.955 1379.81 294.056C1379.3 294.158 1378.69 294.26 1377.98 294.362C1377.36 294.464 1376.75 294.566 1376.14 294.667C1375.63 294.667 1375.23 294.667 1374.92 294.667C1374.11 294.871 1373.34 295.228 1372.63 295.737C1372.02 296.246 1371.36 296.857 1370.64 297.57C1370.03 298.181 1369.32 298.843 1368.5 299.556C1367.69 300.167 1366.77 300.727 1365.75 301.236H1351.24C1350.73 301.236 1350.02 301.134 1349.1 300.931C1348.29 300.727 1347.37 300.472 1346.35 300.167C1345.44 299.861 1344.52 299.505 1343.6 299.098C1342.69 298.69 1341.97 298.334 1341.47 298.028C1341.47 297.824 1341.16 297.366 1340.55 296.653C1340.04 295.839 1339.73 295.177 1339.63 294.667C1339.43 294.464 1339.28 294.209 1339.17 293.904C1338.87 293.598 1338.72 293.293 1338.72 292.987L1334.59 289.015C1333.78 287.386 1333.06 285.349 1332.45 282.905C1331.94 280.359 1331.69 278.271 1331.69 276.641L1332.76 273.433L1331.69 270.225V268.392C1331.69 267.883 1331.79 267.221 1331.99 266.406C1332.3 265.49 1332.61 264.624 1332.91 263.809C1333.22 262.893 1333.52 262.078 1333.83 261.365C1334.13 260.551 1334.39 259.99 1334.59 259.685C1334.69 259.583 1335.05 259.227 1335.66 258.616C1336.37 257.903 1337.14 257.139 1337.95 256.324C1338.77 255.408 1339.48 254.593 1340.09 253.88C1340.8 253.167 1341.26 252.658 1341.47 252.352C1341.57 252.352 1341.92 251.996 1342.54 251.283C1343.25 250.57 1343.6 250.112 1343.6 249.908L1343.91 249.297C1344.01 249.093 1344.06 248.89 1344.06 248.686C1345.79 247.566 1347.47 246.395 1349.1 245.172C1350.73 243.848 1352.57 242.728 1354.6 241.812C1354.71 241.71 1355.42 241.404 1356.74 240.895C1358.17 240.284 1359.7 239.673 1361.32 239.062C1363.06 238.349 1364.74 237.738 1366.37 237.229C1368 236.72 1369.22 236.363 1370.03 236.159C1371.05 235.65 1372.12 234.988 1373.24 234.174C1374.36 233.359 1375.43 232.595 1376.45 231.882C1377.57 231.169 1378.59 230.558 1379.5 230.049C1380.42 229.438 1381.18 229.132 1381.79 229.132H1385.77C1385.87 229.132 1386.17 228.98 1386.68 228.674C1386.89 228.572 1387.14 228.42 1387.45 228.216C1387.85 228.114 1388.82 227.961 1390.35 227.758C1391.98 227.554 1393.05 227.452 1393.56 227.452L1395.54 224.855C1396.26 224.448 1396.97 224.142 1397.68 223.938C1398.4 223.633 1399.06 223.327 1399.67 223.022C1400.28 222.716 1400.79 222.309 1401.2 221.8C1401.7 221.189 1402.11 220.374 1402.42 219.356C1403.13 217.217 1403.59 214.976 1403.79 212.634C1404.1 210.19 1404.25 207.898 1404.25 205.76V202.399C1404.25 202.195 1403.95 201.635 1403.33 200.719C1402.72 199.802 1402.42 199.14 1402.42 198.733L1400.58 190.942L1397.22 186.817L1395.54 183.609C1395.14 183.406 1394.73 182.896 1394.32 182.082C1393.91 181.267 1393.66 180.605 1393.56 180.096C1393.35 179.485 1392.59 178.925 1391.27 178.415C1389.94 177.804 1388.47 177.295 1386.84 176.888C1385.21 176.378 1383.58 176.022 1381.95 175.818C1380.42 175.513 1379.35 175.36 1378.74 175.36C1378.54 175.36 1377.72 175.36 1376.3 175.36C1374.97 175.258 1373.85 175.207 1372.93 175.207C1372.02 175.207 1370.75 175.309 1369.12 175.513C1367.59 175.615 1366.11 175.92 1364.69 176.429C1363.26 176.837 1361.99 177.448 1360.87 178.263C1359.85 179.077 1359.34 180.147 1359.34 181.471V182.845C1359.44 183.049 1359.64 183.507 1359.95 184.22C1360.26 184.831 1360.56 185.544 1360.87 186.359C1361.17 187.072 1361.43 187.785 1361.63 188.498C1361.94 189.109 1362.09 189.516 1362.09 189.72C1362.09 190.127 1361.94 190.738 1361.63 191.553C1361.43 192.266 1361.22 193.03 1361.02 193.844C1360.31 197.103 1359.34 199.598 1358.12 201.33C1356.89 203.061 1354.96 204.741 1352.31 206.371L1350.48 207.746C1350.07 208.051 1349.71 208.357 1349.41 208.662H1337.8C1336.88 208.662 1336.12 208.306 1335.51 207.593C1334.9 206.88 1334.39 206.065 1333.98 205.149C1333.57 204.13 1333.27 203.163 1333.06 202.246C1332.86 201.228 1332.76 200.464 1332.76 199.955C1332.76 199.344 1332.86 198.529 1333.06 197.511C1333.27 196.492 1333.57 195.525 1333.98 194.608C1334.39 193.59 1334.8 192.673 1335.2 191.858C1335.71 190.942 1336.22 190.229 1336.73 189.72C1337.04 189.007 1337.39 188.396 1337.8 187.887C1338 187.377 1338.21 186.97 1338.41 186.664C1338.72 186.359 1338.92 186.155 1339.02 186.053L1341.47 183.609C1343.71 182.183 1345.59 180.707 1347.12 179.179C1348.65 177.652 1350.43 176.022 1352.46 174.291L1363.16 167.264C1364.18 166.347 1365.09 165.685 1365.91 165.278C1366.82 164.769 1367.74 164.361 1368.66 164.056C1369.57 163.75 1370.49 163.496 1371.41 163.292C1372.43 163.088 1373.6 162.732 1374.92 162.223C1375.02 162.223 1375.28 162.121 1375.68 161.917C1376.19 161.713 1376.7 161.51 1377.21 161.306C1377.72 161 1378.23 160.746 1378.74 160.542C1379.25 160.338 1379.61 160.186 1379.81 160.084C1380.32 159.982 1381.29 159.778 1382.71 159.473C1384.24 159.167 1385.82 158.862 1387.45 158.556C1389.18 158.251 1390.81 157.996 1392.34 157.792C1393.86 157.589 1394.93 157.487 1395.54 157.487C1396.05 157.487 1396.51 157.691 1396.92 158.098C1397.43 158.403 1397.78 158.556 1397.99 158.556C1398.29 158.556 1398.75 158.607 1399.36 158.709C1399.97 158.709 1400.58 158.76 1401.2 158.862C1401.91 158.964 1402.52 159.065 1403.03 159.167C1403.64 159.167 1404.05 159.218 1404.25 159.32C1404.86 159.524 1405.68 159.829 1406.7 160.237C1407.71 160.542 1408.73 160.899 1409.75 161.306C1410.77 161.713 1411.69 162.07 1412.5 162.375C1413.31 162.681 1413.82 162.884 1414.03 162.986C1414.13 163.088 1414.38 163.343 1414.79 163.75C1415.2 164.158 1415.66 164.667 1416.17 165.278C1416.78 165.787 1417.34 166.296 1417.85 166.805C1418.36 167.315 1418.71 167.722 1418.92 168.027C1420.04 169.657 1421.16 171.134 1422.28 172.458C1423.5 173.782 1424.36 175.309 1424.87 177.04C1425.38 178.059 1425.74 179.179 1425.94 180.401C1426.25 181.521 1426.5 182.642 1426.71 183.762C1427.01 184.882 1427.37 185.952 1427.78 186.97C1428.18 187.988 1428.85 188.905 1429.76 189.72V199.191C1429.76 205.913 1429.51 212.532 1429 219.05C1428.59 225.466 1428.29 232.086 1428.08 238.909C1427.67 239.928 1427.32 240.946 1427.01 241.964C1426.71 242.881 1426.55 243.95 1426.55 245.172C1426.55 246.089 1426.66 247.107 1426.86 248.228C1427.17 249.348 1427.32 250.163 1427.32 250.672L1425.94 253.574C1425.84 253.982 1425.79 254.389 1425.79 254.796V256.477C1425.79 258.004 1425.84 259.634 1425.94 261.365C1426.05 263.097 1426.3 264.828 1426.71 266.559C1427.11 268.29 1427.67 269.92 1428.39 271.448C1429.2 272.975 1430.32 274.248 1431.75 275.267C1432.26 275.674 1432.92 276.285 1433.73 277.1C1434.65 277.813 1435.31 278.169 1435.72 278.169H1436.33C1437.35 278.169 1438.52 278.016 1439.84 277.711C1441.17 277.303 1442.54 276.896 1443.97 276.489C1445.39 275.979 1446.82 275.521 1448.25 275.114C1449.77 274.706 1451.25 274.503 1452.68 274.503C1454.61 274.503 1455.58 275.114 1455.58 276.336C1455.58 279.595 1454.92 282.752 1453.59 285.807C1452.37 288.862 1450.64 291.612 1448.4 294.056C1446.16 296.399 1443.56 298.334 1440.61 299.861C1437.65 301.287 1434.45 302 1430.98 302C1427.52 302 1424.16 301.847 1420.9 301.542C1417.64 301.134 1414.08 300.218 1410.21 298.792L1409.14 298.028C1408.94 297.824 1408.43 297.213 1407.61 296.195C1406.9 295.075 1406.08 293.904 1405.17 292.682C1404.35 291.459 1403.59 290.339 1402.88 289.321C1402.16 288.2 1401.76 287.488 1401.65 287.182L1397.99 283.974H1396.92H1395.54ZM1361.02 261.06C1361.02 262.689 1361.27 264.573 1361.78 266.712C1362.39 268.851 1363.26 270.887 1364.38 272.822C1365.5 274.656 1366.88 276.234 1368.5 277.558C1370.13 278.882 1371.97 279.544 1374 279.544C1374.41 279.544 1374.77 279.493 1375.07 279.391C1375.38 279.289 1376.24 278.882 1377.67 278.169L1391.57 276.947C1391.88 276.743 1392.34 276.336 1392.95 275.725C1393.66 275.012 1394.32 274.299 1394.93 273.586C1395.65 272.873 1396.26 272.211 1396.77 271.6C1397.38 270.989 1397.78 270.531 1397.99 270.225C1398.09 270.225 1398.24 269.92 1398.45 269.309C1398.75 268.698 1399.11 267.934 1399.52 267.017C1399.92 266.101 1400.28 265.133 1400.58 264.115C1400.99 263.097 1401.35 262.18 1401.65 261.365C1401.86 260.856 1402.01 260.092 1402.11 259.074C1402.32 258.055 1402.42 257.495 1402.42 257.393C1402.32 256.273 1402.21 255.153 1402.11 254.033C1402.01 252.912 1401.96 251.792 1401.96 250.672C1401.96 249.653 1402.01 248.737 1402.11 247.922C1402.21 247.006 1402.32 246.089 1402.42 245.172L1403.49 241.812V239.062C1403.49 237.331 1402.93 235.752 1401.81 234.326C1400.69 232.901 1399.06 232.188 1396.92 232.188C1395.19 232.188 1393.71 232.595 1392.49 233.41C1391.37 234.123 1390.04 235.039 1388.52 236.159C1388.01 236.465 1386.99 237.025 1385.46 237.84C1383.93 238.553 1382.3 239.317 1380.57 240.131C1378.94 240.844 1377.36 241.557 1375.84 242.27C1374.41 242.983 1373.44 243.441 1372.93 243.645L1370.03 245.172C1369.83 245.172 1369.42 245.274 1368.81 245.478C1368.2 245.682 1367.89 245.834 1367.89 245.936L1365.75 249.908L1362.09 253.574C1361.58 254.695 1361.27 256.019 1361.17 257.546C1361.07 258.972 1361.02 260.143 1361.02 261.06Z" fill="black"/>
</svg>
