<svg xmlns="http://www.w3.org/2000/svg" viewBox="0 0 335 330" role="img" aria-labelledby="title desc">
<title id="title">Fantazia favicon</title>
<desc id="desc">The Fantazia symbol. Black in light mode, white in dark mode.</desc>
<style>path{fill:#080808}@media (prefers-color-scheme:dark){path{fill:#FFFFFF}}</style>
<path d="M161.007 0.173334C161.161 0.152863 161.316 0.134668 161.47 0.11899C174.955 -1.23686 176.11 9.3085 185.726 15.7582C191.391 19.4212 197.65 22.0351 203.6 25.2163C228.514 38.5458 251.868 57.8263 268.06 81.1303C270.474 84.6046 272.214 90.3729 274.359 94.2315C276.725 98.5035 280.326 101.585 282.415 105.991C284.406 115.951 291.104 131.835 290.787 141.727C290.291 157.302 291.259 171 292.746 186.519C293.356 192.88 290.779 203.292 291.186 210.168C292.088 225.754 293.941 240.963 292.226 256.579C290.755 269.476 292.34 283.931 292.836 296.971C293.47 314.043 321.83 302.374 331.048 310.64C335.194 314.31 335.437 321.943 331.861 326.169C329.78 328.522 319.871 329.637 316.652 329.693C301.688 329.876 286.731 328.722 271.75 328.533C257.07 327.921 242.187 329.782 227.596 329.794C209.258 329.808 192.651 328.756 174.199 330C156.56 328.106 142.969 329.101 125.509 329.469C111.455 329.764 96.913 328.055 82.5824 328.409L46.7355 329.071C32.9819 329.411 18.8463 331.005 5.34481 327.782C0.191307 326.553 -0.800306 319.779 0.540906 315.535C4.7515 302.2 26.7473 308.94 36.5748 303.591C41.2649 297.563 38.737 279.452 38.6232 271.82L38.4118 223.494C38.3387 205.77 40.7528 185.673 40.8991 167.662C42.0452 157.387 39.4035 141.349 41.6958 131.572C45.2967 116.18 58.8308 88.7645 68.1867 76.0768C79.3554 60.931 96.5229 48.2522 110.732 36.5591C114.032 33.8396 121.583 31.1857 125.314 28.5139C132.776 23.7777 140.913 18.7201 148.074 13.6132C153.488 9.75309 154.203 4.95411 161.007 0.173334ZM110.472 84.5721C102.351 97.8162 98.0917 98.302 89.8494 108.198C87.7522 120.996 84.1593 121.232 80.0219 131.62C76.2177 141.161 75.2911 154.438 74.5595 164.661C73.5516 178.89 74.5839 192.617 74.4864 206.778C74.4295 214.507 73.2996 222.225 73.3809 229.952C73.5435 246.167 78.3149 280.007 72.7062 294.008C73.7791 296.388 75.5756 301.633 78.1442 302.59C88.8495 306.573 110.171 304.096 122.266 304.301C129.712 304.427 137.19 305.279 144.644 305.114C152.423 304.942 160.145 303.522 167.924 304.287C174.939 305.022 182.035 305.897 189.091 305.996C199.26 306.139 209.347 304.474 219.492 304.166C227.864 303.91 236.342 305.098 244.674 304.381C247.649 304.124 252.16 303.859 254.575 301.939C256.086 300.734 256.542 295.462 256.704 293.65C257.216 287.971 256.501 282.182 256.59 276.485L257.395 236.825C257.485 230.379 258.484 223.967 258.59 217.529C258.679 211.781 257.867 206.068 257.777 200.329C257.68 193.897 258.484 187.458 258.387 181.025C258.273 173.725 257.2 166.419 256.777 159.126C256.42 152.876 256.916 146.157 255.761 140.018C253.437 127.616 246.584 118.207 243.967 106.922C236.131 99.8966 231.107 90.775 223.645 83.7354C220.321 80.6014 215.598 78.1003 211.794 75.5155C206.917 72.2012 202.625 68.0827 197.748 64.8228C192.773 61.4972 187.213 59.1081 182.32 55.6419C176.857 51.7736 170.663 44.1888 164.526 42.0301C157.674 46.5823 152.423 53.4015 146.213 58.7718C141.766 62.6166 136.58 65.5458 132.158 69.4003C123.615 76.842 121.925 81.0149 110.472 84.5721Z"/>
<path d="M165.487 138.445C175.7 139.228 176.75 162.012 180.705 170.906C186.455 183.828 214.06 185.304 217.579 193.968C216.406 203.842 193.363 205.891 186.365 213.829C176.89 224.573 179.572 243.942 169.162 252.243C166.988 252.281 163.658 251.86 162.591 249.58C157.378 238.401 155.425 226.66 149.292 215.689C144.245 206.659 116.235 203.738 116.793 193.811C120.926 188.584 141.31 181.206 150.118 175.805C155.159 166.097 150.634 165.044 159.777 154.219C160.442 145.986 159.548 143.953 165.487 138.445Z"/>
</svg>
