<svg width="1089" height="207" viewBox="0 0 1089 207" fill="none" xmlns="http://www.w3.org/2000/svg">
<path fill-rule="evenodd" clip-rule="evenodd" d="M314.306 51.049C312.973 51.1422 312.418 52.8011 313.427 53.6777L337.707 74.771C338.333 75.3146 338.399 76.2625 337.855 76.8878L334.207 81.0824C333.663 81.7072 332.716 81.7734 332.091 81.2303L308.196 60.4713C307.187 59.595 305.622 60.3754 305.716 61.7083L307.911 93.0843C307.969 93.9108 307.346 94.6276 306.519 94.6854L300.97 95.0732C300.144 95.1309 299.427 94.5079 299.37 93.6815L297.157 62.0544C297.063 60.7164 295.394 60.1645 294.521 61.1829L172.735 203.258C172.453 203.587 172.042 203.778 171.609 203.782L146.902 203.995C146.501 203.998 146.116 203.841 145.831 203.558L140.023 197.78C139.598 197.358 139.466 196.723 139.686 196.166L191.137 65.8331C191.47 64.9908 190.986 64.0482 190.108 63.8276L189.019 63.554C188.402 63.3991 187.755 63.65 187.403 64.1802L95.3146 203.125C95.0386 203.541 94.5736 203.793 94.0742 203.796L76.3428 203.914C75.9444 203.916 75.5614 203.76 75.2782 203.48L69.8928 198.156C69.4648 197.732 69.3312 197.094 69.5535 196.535L121.435 65.9551C121.757 65.1443 121.322 64.2306 120.49 63.9698L118.825 63.4483C118.184 63.2475 117.512 63.4603 117.145 64.023C110.711 73.8835 53.862 161.001 25.9315 203.264C25.6538 203.684 25.1964 203.918 24.6928 203.918H6.59556C6.20588 203.918 5.8315 203.766 5.55167 203.495L0.709046 198.802C0.278774 198.385 0.137921 197.752 0.350795 197.192L47.5763 72.9398C47.9073 72.069 47.3727 71.1103 46.4579 70.934L43.1062 70.2882C42.5121 70.1737 41.9073 70.4274 41.5726 70.9316L9.62177 119.073C9.16916 119.755 8.25343 119.948 7.56388 119.507L2.42102 116.219C1.7092 115.763 1.51359 114.81 1.98856 114.112L49.5585 44.1263C49.8374 43.7159 50.3012 43.4701 50.7974 43.4695L80.3507 43.4377C80.7944 43.4372 81.2156 43.6332 81.5009 43.973L85.9664 49.29C86.3227 49.7142 86.4162 50.3004 86.2094 50.8144L46.3474 149.93C45.951 150.916 46.6767 151.99 47.7391 151.99H48.5668C49.068 151.99 49.5361 151.74 49.8144 151.323L121.404 44.079C121.684 43.6595 122.156 43.4089 122.66 43.4115C126.861 43.4332 131.597 43.4332 136.277 43.4332C140.974 43.4332 145.616 43.4332 149.602 43.4551C150.056 43.4576 150.484 43.6665 150.767 44.0221C152.752 46.5191 154.078 48.1703 155.385 49.7007C155.752 50.13 155.853 50.7273 155.642 51.251L115.667 150.265C115.365 151.015 115.711 151.869 116.45 152.198L117.337 152.592C118.003 152.887 118.785 152.662 119.191 152.057L191.678 44.0636C191.956 43.6486 192.423 43.3996 192.923 43.3996H221.143C221.688 43.3996 222.19 43.695 222.455 44.1714L225.769 50.1392C225.988 50.5341 226.017 51.0069 225.849 51.4261L175.168 177.691C174.871 178.431 175.205 179.274 175.928 179.61L178.74 180.916C179.347 181.199 180.068 181.044 180.507 180.537L288.705 55.4021C289.578 54.3927 288.797 52.8316 287.466 52.9246L254.856 55.2035C254.03 55.2613 253.313 54.6382 253.255 53.8119L252.867 48.2684C252.809 47.4419 253.433 46.7251 254.259 46.6673L285.859 44.459C287.193 44.3658 287.747 42.7069 286.738 41.8303L262.756 20.9957C262.13 20.4521 262.064 19.5042 262.608 18.8789L266.256 14.6843C266.8 14.0595 267.747 13.9933 268.372 14.5364L292.747 35.7119C293.755 36.5882 295.32 35.8078 295.227 34.4748L292.961 2.09338C292.903 1.26692 293.526 0.550085 294.353 0.492329L299.902 0.10456C300.728 0.0468119 301.445 0.669855 301.503 1.49621L303.78 34.0481C303.874 35.383 305.536 35.9368 306.411 34.9245L329.838 7.83028C330.371 7.21414 331.298 7.13575 331.927 7.6537L335.716 10.776C336.365 11.3101 336.448 12.2723 335.901 12.91L323.609 27.249L312.656 40.0269C311.79 41.0377 312.572 42.5923 313.9 42.4995L345.906 40.2627C346.733 40.205 347.45 40.828 347.507 41.6544L347.895 47.1979C347.953 48.0243 347.33 48.7412 346.504 48.7989L314.306 51.049Z" fill="black"/>
<path d="M393.05 204V88.5H417.9L456.225 187.2H457.1L495.25 88.5H519.225V204H504L505.05 104.775H503.65L463.925 204H448.175L408.8 104.6H407.4L408.45 204H393.05ZM586.876 206.275C579.76 206.275 573.46 205.225 567.976 203.125C562.61 200.908 558.06 197.758 554.326 193.675C550.593 189.592 547.793 184.75 545.926 179.15C544.06 173.55 543.126 167.25 543.126 160.25C543.126 153.133 544.06 146.6 545.926 140.65C547.793 134.7 550.535 129.508 554.151 125.075C557.768 120.642 562.201 117.258 567.451 114.925C572.701 112.475 578.71 111.25 585.476 111.25C591.426 111.25 596.851 112.242 601.751 114.225C606.651 116.208 610.793 119.3 614.176 123.5C617.676 127.583 620.301 132.775 622.051 139.075C623.801 145.258 624.501 152.55 624.151 160.95L553.101 161.475V150.625L614.526 150.1L609.101 157.45C609.685 150.1 608.985 144.033 607.001 139.25C605.018 134.467 602.16 130.85 598.426 128.4C594.81 125.95 590.493 124.725 585.476 124.725C580.11 124.725 575.385 126.125 571.301 128.925C567.218 131.725 564.068 135.75 561.851 141C559.751 146.25 558.701 152.608 558.701 160.075C558.701 170.808 561.093 179.033 565.876 184.75C570.66 190.35 577.776 193.15 587.226 193.15C590.843 193.15 593.993 192.742 596.676 191.925C599.476 190.992 601.81 189.767 603.676 188.25C605.66 186.617 607.235 184.75 608.401 182.65C609.685 180.55 610.676 178.275 611.376 175.825L625.376 179.15C624.326 183.35 622.693 187.142 620.476 190.525C618.376 193.792 615.693 196.592 612.426 198.925C609.276 201.258 605.601 203.067 601.401 204.35C597.201 205.633 592.36 206.275 586.876 206.275ZM646.805 204V81.5H662.73V204H646.805ZM690.389 204V113.525H706.314V204H690.389ZM698.439 97.775C694.705 97.775 691.905 97.0167 690.039 95.5C688.172 93.9833 687.239 91.7083 687.239 88.675C687.239 85.6417 688.172 83.3667 690.039 81.85C691.905 80.3333 694.647 79.575 698.264 79.575C701.997 79.575 704.797 80.3333 706.664 81.85C708.53 83.3667 709.464 85.6417 709.464 88.675C709.464 91.5917 708.53 93.8667 706.664 95.5C704.797 97.0167 702.055 97.775 698.439 97.775ZM772.814 206.275C765.697 206.275 759.397 205.225 753.914 203.125C748.547 200.908 743.997 197.758 740.264 193.675C736.53 189.592 733.73 184.75 731.864 179.15C729.997 173.55 729.064 167.25 729.064 160.25C729.064 153.133 729.997 146.6 731.864 140.65C733.73 134.7 736.472 129.508 740.089 125.075C743.705 120.642 748.139 117.258 753.389 114.925C758.639 112.475 764.647 111.25 771.414 111.25C777.364 111.25 782.789 112.242 787.689 114.225C792.589 116.208 796.73 119.3 800.114 123.5C803.614 127.583 806.239 132.775 807.989 139.075C809.739 145.258 810.439 152.55 810.089 160.95L739.039 161.475V150.625L800.464 150.1L795.039 157.45C795.622 150.1 794.922 144.033 792.939 139.25C790.955 134.467 788.097 130.85 784.364 128.4C780.747 125.95 776.43 124.725 771.414 124.725C766.047 124.725 761.322 126.125 757.239 128.925C753.155 131.725 750.005 135.75 747.789 141C745.689 146.25 744.639 152.608 744.639 160.075C744.639 170.808 747.03 179.033 751.814 184.75C756.597 190.35 763.714 193.15 773.164 193.15C776.78 193.15 779.93 192.742 782.614 191.925C785.414 190.992 787.747 189.767 789.614 188.25C791.597 186.617 793.172 184.75 794.339 182.65C795.622 180.55 796.614 178.275 797.314 175.825L811.314 179.15C810.264 183.35 808.63 187.142 806.414 190.525C804.314 193.792 801.63 196.592 798.364 198.925C795.214 201.258 791.539 203.067 787.339 204.35C783.139 205.633 778.297 206.275 772.814 206.275ZM867.71 206.275C861.41 206.275 855.81 205.575 850.91 204.175C846.01 202.892 841.927 201.025 838.66 198.575C835.393 196.008 832.885 192.975 831.135 189.475C829.385 185.975 828.452 182.125 828.335 177.925L841.81 174.425C841.577 178.275 842.51 181.658 844.61 184.575C846.827 187.375 849.918 189.533 853.885 191.05C857.968 192.567 862.868 193.325 868.585 193.325C875.468 193.325 880.777 192.158 884.51 189.825C888.36 187.492 890.285 184.283 890.285 180.2C890.285 176.933 889.235 174.425 887.135 172.675C885.035 170.808 882.118 169.35 878.385 168.3C874.768 167.133 870.452 166.083 865.435 165.15C861.235 164.217 857.035 163.167 852.835 162C848.635 160.833 844.785 159.317 841.285 157.45C837.902 155.467 835.16 152.9 833.06 149.75C830.96 146.6 829.91 142.692 829.91 138.025C829.91 132.542 831.368 127.817 834.285 123.85C837.202 119.883 841.343 116.792 846.71 114.575C852.077 112.358 858.493 111.25 865.96 111.25C873.427 111.25 879.785 112.417 885.035 114.75C890.285 116.967 894.427 120.117 897.46 124.2C900.493 128.283 902.185 133.067 902.535 138.55L888.71 142.05C888.593 138.2 887.543 134.933 885.56 132.25C883.693 129.567 881.01 127.583 877.51 126.3C874.01 124.9 869.927 124.2 865.26 124.2C859.077 124.2 854.177 125.367 850.56 127.7C846.943 130.033 845.135 133.242 845.135 137.325C845.135 140.358 846.185 142.808 848.285 144.675C850.502 146.542 853.477 148 857.21 149.05C860.943 150.1 865.085 151.15 869.635 152.2C874.302 153.133 878.735 154.183 882.935 155.35C887.252 156.517 891.102 158.033 894.485 159.9C897.868 161.767 900.552 164.275 902.535 167.425C904.518 170.458 905.51 174.367 905.51 179.15C905.51 185.1 903.935 190.117 900.785 194.2C897.635 198.167 893.202 201.2 887.485 203.3C881.885 205.283 875.293 206.275 867.71 206.275ZM930.192 206.1C926.459 206.1 923.659 205.283 921.792 203.65C919.925 202.017 918.992 199.392 918.992 195.775C918.992 192.275 919.925 189.708 921.792 188.075C923.659 186.442 926.459 185.625 930.192 185.625C934.042 185.625 936.9 186.442 938.767 188.075C940.75 189.708 941.742 192.333 941.742 195.95C941.742 202.717 937.892 206.1 930.192 206.1ZM982.425 206.275C977.525 206.275 973.092 205.342 969.125 203.475C965.159 201.492 962.009 198.633 959.675 194.9C957.342 191.05 956.175 186.208 956.175 180.375C956.175 176.058 956.934 172.267 958.45 169C960.084 165.733 962.534 162.933 965.8 160.6C969.184 158.267 973.5 156.342 978.75 154.825C984 153.308 990.417 152.025 998 150.975C1002.32 150.392 1005.82 149.808 1008.5 149.225C1011.3 148.642 1013.34 147.708 1014.63 146.425C1015.91 145.025 1016.55 142.983 1016.55 140.3C1016.55 135.867 1015.03 132.133 1012 129.1C1008.97 126.067 1004.18 124.55 997.65 124.55C994.267 124.55 990.825 125.133 987.325 126.3C983.825 127.467 980.734 129.45 978.05 132.25C975.484 134.933 973.85 138.725 973.15 143.625L958.45 138.725C959.384 134.525 960.9 130.733 963 127.35C965.217 123.967 968.017 121.108 971.4 118.775C974.784 116.325 978.692 114.458 983.125 113.175C987.675 111.892 992.692 111.25 998.175 111.25C1005.76 111.25 1012.06 112.533 1017.08 115.1C1022.21 117.667 1026 121.633 1028.45 127C1031.02 132.25 1032.3 139.017 1032.3 147.3V167.425C1032.3 171.042 1032.36 175.008 1032.48 179.325C1032.71 183.525 1033 187.783 1033.35 192.1C1033.7 196.3 1034.05 200.267 1034.4 204H1019.7C1019.35 200.267 1019 196.533 1018.65 192.8C1018.42 189.067 1018.24 185.333 1018.13 181.6H1015.85C1014.1 185.917 1011.77 189.942 1008.85 193.675C1005.93 197.408 1002.26 200.442 997.825 202.775C993.509 205.108 988.375 206.275 982.425 206.275ZM987.15 193.325C989.717 193.325 992.284 192.917 994.85 192.1C997.534 191.283 1000.16 189.942 1002.73 188.075C1005.41 186.208 1007.92 183.817 1010.25 180.9C1012.7 177.983 1014.86 174.483 1016.73 170.4V152.9L1021.28 153.775C1019.41 155.642 1016.9 157.042 1013.75 157.975C1010.72 158.908 1007.33 159.667 1003.6 160.25C999.867 160.833 996.134 161.475 992.4 162.175C988.667 162.758 985.225 163.692 982.075 164.975C979.042 166.142 976.592 167.833 974.725 170.05C972.859 172.267 971.925 175.3 971.925 179.15C971.925 183.817 973.325 187.375 976.125 189.825C978.925 192.158 982.6 193.325 987.15 193.325ZM1059.19 204V113.525H1075.11V204H1059.19ZM1067.24 97.775C1063.5 97.775 1060.7 97.0167 1058.84 95.5C1056.97 93.9833 1056.04 91.7083 1056.04 88.675C1056.04 85.6417 1056.97 83.3667 1058.84 81.85C1060.7 80.3333 1063.45 79.575 1067.06 79.575C1070.8 79.575 1073.6 80.3333 1075.46 81.85C1077.33 83.3667 1078.26 85.6417 1078.26 88.675C1078.26 91.5917 1077.33 93.8667 1075.46 95.5C1073.6 97.0167 1070.85 97.775 1067.24 97.775Z" fill="black"/>
</svg>
