<svg width="45" height="45" viewBox="0 0 45 45" fill="none" xmlns="http://www.w3.org/2000/svg">
<rect width="45" height="45" rx="22.5" fill="url(#paint0_linear_239_487)"/>
<path d="M28.5 17.5H28.51M18 13H28C30.7614 13 33 15.2386 33 18V28C33 30.7614 30.7614 33 28 33H18C15.2386 33 13 30.7614 13 28V18C13 15.2386 15.2386 13 18 13ZM27.0002 22.3701C27.1236 23.2023 26.9815 24.0523 26.594 24.7991C26.2065 25.5459 25.5933 26.1515 24.8418 26.5297C24.0903 26.908 23.2386 27.0397 22.408 26.906C21.5773 26.7723 20.81 26.3801 20.215 25.7852C19.6201 25.1903 19.2279 24.4229 19.0943 23.5923C18.9606 22.7616 19.0923 21.91 19.4705 21.1584C19.8488 20.4069 20.4544 19.7938 21.2012 19.4063C21.948 19.0188 22.7979 18.8766 23.6302 19.0001C24.4791 19.1259 25.265 19.5215 25.8719 20.1284C26.4787 20.7352 26.8743 21.5211 27.0002 22.3701Z" stroke="white" stroke-width="2" stroke-linecap="round" stroke-linejoin="round"/>
<defs>
<linearGradient id="paint0_linear_239_487" x1="45" y1="45" x2="-4.46214" y2="39.398" gradientUnits="userSpaceOnUse">
<stop stop-color="#FCA759"/>
<stop offset="0.19" stop-color="#E82D56"/>
<stop offset="0.74" stop-color="#A22DB4"/>
<stop offset="1" stop-color="#643DCE"/>
</linearGradient>
</defs>
</svg>
