<svg width="45" height="45" viewBox="0 0 45 45" fill="none" xmlns="http://www.w3.org/2000/svg">
<rect width="45" height="45" rx="22.5" fill="#0B66C2"/>
<path d="M16.3115 19.2623H11.3934V35H16.3115V19.2623ZM16.7541 13.8525C16.7567 13.4805 16.686 13.1116 16.546 12.7669C16.406 12.4222 16.1995 12.1085 15.9383 11.8436C15.6771 11.5787 15.3663 11.3679 15.0236 11.2231C14.6809 11.0784 14.313 11.0026 13.941 11H13.8525C13.0959 11 12.3704 11.3005 11.8355 11.8355C11.3005 12.3704 11 13.0959 11 13.8525C11 14.609 11.3005 15.3345 11.8355 15.8695C12.3704 16.4044 13.0959 16.7049 13.8525 16.7049C14.2245 16.7141 14.5947 16.6498 14.9419 16.5159C15.2891 16.3819 15.6065 16.1808 15.8759 15.9242C16.1454 15.6675 16.3617 15.3602 16.5123 15.0199C16.663 14.6797 16.7452 14.313 16.7541 13.941V13.8525ZM35 25.4393C35 20.7082 31.9902 18.8689 29 18.8689C28.021 18.8198 27.0462 19.0284 26.1729 19.4736C25.2996 19.9189 24.5583 20.5854 24.023 21.4066H23.8852V19.2623H19.2623V35H24.1803V26.6295C24.1092 25.7722 24.3793 24.9215 24.9318 24.2622C25.4843 23.6029 26.2746 23.1882 27.1311 23.1082H27.318C28.882 23.1082 30.0426 24.0918 30.0426 26.5705V35H34.9607L35 25.4393Z" fill="white"/>
</svg>
