<svg width="45" height="45" viewBox="0 0 45 45" fill="none" xmlns="http://www.w3.org/2000/svg">
<rect width="45" height="45" rx="22.5" fill="#27A6E6"/>
<path fill-rule="evenodd" clip-rule="evenodd" d="M11.0124 22.7489C16.918 20.2087 20.8559 18.534 22.8263 17.7249C28.4521 15.4147 29.6211 15.0134 30.383 15.0001C30.5506 14.9972 30.9253 15.0382 31.168 15.2327C31.373 15.3968 31.4294 15.6186 31.4563 15.7743C31.4833 15.93 31.5169 16.2846 31.4902 16.5616C31.1854 19.7241 29.8662 27.3986 29.1951 30.9406C28.9111 32.4394 28.352 32.9419 27.8107 32.9911C26.6343 33.098 25.7409 32.2235 24.6015 31.4861C22.8186 30.3323 21.8113 29.614 20.0807 28.488C18.0806 27.1868 19.3772 26.4716 20.517 25.3027C20.8153 24.9969 25.9986 20.3423 26.0989 19.92C26.1115 19.8672 26.1231 19.6704 26.0046 19.5664C25.8862 19.4625 25.7114 19.498 25.5852 19.5263C25.4064 19.5664 22.5581 21.425 17.0404 25.1022C16.2319 25.6503 15.4996 25.9174 14.8435 25.9034C14.1202 25.888 12.7288 25.4996 11.6945 25.1677C10.4258 24.7606 9.41753 24.5453 9.50533 23.8539C9.55106 23.4937 10.0534 23.1254 11.0124 22.7489Z" fill="white"/>
</svg>
