<svg width="1241" height="1200" viewBox="0 0 1241 1200" fill="none" xmlns="http://www.w3.org/2000/svg">
<path d="M620.066 18.9449C633.347 15.6143 650.623 21.8813 662.77 25.4699C664.43 25.9606 670.133 24.8749 673.443 25.0947C685.23 25.7473 697.19 34.8259 708.091 38.647C736.683 48.6703 763.07 61.3459 785.454 82.2627C789.427 85.7503 796.51 89.3286 799.87 93.0943C818.532 114.011 836.123 133.268 849.184 158.588C852.913 165.815 849.18 169.051 857.296 176.679C859.311 178.572 871.461 201.68 871.587 203.23C875.066 245.829 890.387 286.83 887.711 330.138C886.201 351.593 873.076 376.607 865.519 395.799C853.084 427.38 839.95 459.154 816.704 484.089C812.592 488.43 805.733 493.088 801.475 497.481C797.851 501.218 787.271 515.558 783.676 517.021C766.077 524.185 755.214 536.615 739.254 546.327C719.664 557.009 694.473 563.379 673.43 570.883C656.743 576.834 641.542 573.983 624.515 575.584C624.515 575.584 622.061 577.769 621.801 578C607.12 577.804 591.406 577.115 576.998 574.244C571.819 573.212 565.349 572.199 560.546 570.056C558.03 568.934 556.148 566.689 553.472 565.815C548.84 564.302 543.851 563.635 539.132 562.188C521.374 556.742 505.131 550.695 488.364 542.741C482.441 539.932 476.059 537.344 470.706 533.525C463.782 528.587 443.157 506.823 439.186 505.747C430.944 503.513 413.453 475.939 406.482 468.687C404.463 466.587 401.371 465.258 398.977 463.618C385.573 454.44 361.156 384.195 357.506 365.963C349.613 326.543 348.716 306.153 351.362 266.146C352.021 256.18 349.626 254.905 352.892 243.361C356.631 230.146 364.755 218.548 369.037 205.514C370.117 202.225 368.556 199.476 369.422 196.573C371.369 190.04 375.797 183.507 378.687 177.28C380.955 172.387 382.319 166.987 384.382 161.978C388.566 151.823 394.338 141.775 400.455 132.673C404.715 126.334 409.995 120.877 414.786 114.95C445.309 77.1883 468.535 65.1396 510.518 44.0779C523.115 37.7583 535.406 30.1935 549.271 27.0541C572.691 21.7516 596.781 23.5185 620.066 18.9449ZM654.815 527.59C658.145 522.792 672.095 501.735 674.96 499.323C680.643 488.963 681.426 479.083 685.114 468.319C686.523 464.207 690.868 462.166 692.786 458.425C697.108 449.999 702.689 425.889 701.566 416.549L700.625 415.672L700.021 415.895C693.897 418.089 686.667 418.481 680.26 419.65C672.308 421.101 663.335 424.456 655.346 424.757C633.494 425.582 611.524 418.834 589.721 423.906C575.487 416.932 549.271 423.265 538.438 414.57C536.015 412.627 533.504 411.027 530.304 410.756C528.108 411.405 526.013 412.218 523.705 411.758L521.992 413.18C523.003 425.089 531.651 449.803 536.879 460.887C544.779 477.641 566.036 513.043 579.749 524.699C586.091 530.09 594.712 533.982 603.226 533.057C605.18 532.844 607.349 531.317 608.992 530.297C612.607 531.418 616.82 533.095 620.588 533.379C626.936 533.858 647.665 529.232 654.815 527.59ZM463.242 338.511C470.485 343.946 475.089 341.088 477.973 348.818C489.191 353.808 500.139 351.777 509.678 361.581C510.831 362.765 533.088 367.001 536.586 367.062C541.938 359.105 532.581 349.729 530.045 340.059C523.212 314.013 529.021 287.54 534.663 262.035C535.482 258.332 538.262 257.159 537.891 252.212C536.951 249.756 532.267 246.873 529.932 246.613L529.579 246.822C523.497 250.363 495.161 259.891 487.647 262.197C459.717 270.765 443.357 290.926 417.133 302.101C415.178 302.911 412.872 305.81 411.86 307.687C411.042 324.027 452.047 328.51 463.242 338.511ZM828.41 246.969C828.71 245.57 828.989 244.165 829.245 242.756C831.041 232.984 811.022 174.062 803.72 163.03C802.548 161.26 795.779 155.008 794.052 152.309C774.996 122.538 752.099 105.144 720.692 90.0114C717.975 88.7027 715.552 88.9768 712.44 87.4906C714.014 92.1026 724.607 121.808 727.388 124.276C740.303 135.737 729.996 133.328 736.561 146.92C738.882 151.727 744.958 154.329 741.931 161.074C741.672 161.651 748.38 170.926 748.885 172.328C756.172 202.132 741.735 211.856 779.927 218.101C783.997 218.767 795.958 236.387 803.481 234.755C811.628 235.596 819.959 242.335 827.251 245.175L828.41 246.969ZM740.054 454.375C737.762 468.571 730.491 487.172 724.329 500.245L725.036 501.177L726.142 501.068L726.507 500.758C731.567 496.498 737.644 495.871 742.584 492.217C746.05 489.654 748.881 486.208 752.251 483.491C757.315 479.41 763.771 475.778 768.252 471.142C770.461 468.856 771.306 465.325 773.577 463.137C776.289 460.523 780.746 460.83 783.487 458.277C795.732 446.866 802.136 427.351 809.294 412.706C815.212 400.597 823.471 384.084 824.715 370.596C824.855 369.08 824.811 367.583 824.647 366.073C823.012 364.84 821.388 363.814 819.585 362.842C803.127 371.347 787.665 382.166 771.125 390.565C767.95 392.176 763.917 390.889 760.926 392.978C758.104 394.95 756.159 398.405 755.131 401.621C749.217 420.117 755.208 438.829 740.054 454.375ZM728.72 253.114C731.981 257.944 734.1 269.605 736.01 275.966C734.002 283.145 734.302 283.389 735.509 290.379C738.897 310.004 734.616 328.28 729.623 347.173C728.741 350.511 727.603 352.101 729.064 355.176C737.718 359.998 756.022 346.106 762.358 345.257C776.502 343.364 773.791 343.26 784.909 334.192L787.047 336.128C789.784 335.006 793.03 333.437 795.916 333.25C805.863 316.718 817.75 320.247 830.49 303.386C829.428 302.229 821.033 292.528 820.403 292.24C814.191 289.392 798.871 278.88 792.571 278.768C775.705 278.468 766.038 253.811 748.557 258.651C747.228 259.019 741.869 255.285 740.678 254.407C731.91 253.305 736.973 257.137 728.72 253.114ZM404.693 361.889C412.006 384.892 413.298 409.373 427.501 429.877C431.13 435.117 438.127 437.794 441.728 443.003C445.605 448.612 446.613 458.768 452.893 462.077C456.482 463.968 459.489 465.062 461.489 468.805C461.465 471.155 461.086 472.029 462.793 473.822C466.08 477.275 471.396 478.55 475.193 481.376C477.77 483.295 476.444 486.257 479.42 488.37C489.487 495.515 502.158 499.277 511.557 507.377C511.967 507.731 512.39 508.011 512.855 508.287L514.883 507.611C515.164 502.032 504.487 486.642 501.514 481.009C493.398 465.635 485.448 451.843 479.611 435.342C477.269 428.722 471.55 398.92 469.266 396.039C468.959 395.652 468.602 395.374 468.233 395.058C457.129 385.539 442.97 382.283 430.493 375.223C426.012 372.686 422.277 368.648 417.715 366.37C414.229 364.629 408.471 362.639 404.693 361.889ZM405.327 252.791C405.783 252.866 410.169 253.58 410.169 253.58C430.155 242.679 450.353 231.548 468.914 218.243C479.035 207.89 477.188 184.31 481.832 170.672C487.513 153.987 493.902 141.651 501.164 126.156C502.128 124.101 509.463 100.852 509.488 100.275L508.944 99.8912C467.223 106.048 393.315 210.386 404.611 252.832L405.327 252.791ZM543.163 130.522C541.64 135.175 535.56 147.698 536.092 150.001C535.484 159.439 516.164 187.787 525.72 198.01C530.069 199.788 560.481 188.247 568.01 188.023C569.838 186.597 577.602 191.235 578.428 190.701C592.029 181.898 604.602 185.651 620.74 186.515C636.595 187.364 652.814 187.687 669.513 187.5C676.18 191.65 675.734 188.747 682.409 189.245C687.842 189.649 699.209 195.667 704.219 193.437C704.495 183.128 693.3 158.507 689.592 147.679C687.908 142.76 682.085 135.265 680.144 129.571C673.371 109.704 665.337 87.2215 650.49 71.9075C644.99 66.6367 616.226 62.8819 607.41 65.0827C603.962 65.9439 584.563 68.7607 582.105 71.2496C570.384 83.1129 559.24 103.852 549.758 118.255C546.882 122.624 547.232 125.326 543.349 130.287L543.163 130.522ZM567.817 301.106L574.291 309.078C590.272 314.049 610.567 319.557 618.89 334.223C622.972 341.416 632.722 368.717 636.261 371.931C651.149 366.802 650.201 331.937 663.413 323.419C674.619 316.194 686.828 311.616 697.991 304.454C700.811 302.644 701.235 301.677 700.992 298.585C693.305 287.852 668.196 284.501 658.662 276.095C650.325 268.743 641.875 235.567 633.783 230.22C620.249 241.438 619.978 268.177 610.838 277.109C601.962 285.782 581.271 290.558 567.817 301.106Z" fill="white"/>
<path d="M72.3242 1013.88C62.7409 1013.88 53.9811 1012.08 46.0449 1008.49C38.1087 1004.74 31.5951 998.604 26.5039 990.068L15.498 978.838C15.3483 978.089 14.8242 976.667 13.9258 974.57C13.0273 972.474 12.054 970.228 11.0059 967.832C9.95768 965.436 8.98438 963.265 8.08594 961.318C7.1875 959.372 6.73828 958.099 6.73828 957.5V945.371C6.4388 943.574 5.91471 942.002 5.16602 940.654C4.56706 939.157 3.81836 937.734 2.91992 936.387C2.17122 934.889 1.4974 933.467 0.898438 932.119C0.299479 930.622 0 928.975 0 927.178L2.02148 899.551C2.02148 898.203 1.72201 896.781 1.12305 895.283C0.673828 893.786 0.449219 892.214 0.449219 890.566C0.449219 888.47 0.673828 886.673 1.12305 885.176C1.72201 883.678 2.32096 882.181 2.91992 880.684C3.51888 879.186 4.04297 877.614 4.49219 875.967C5.09115 874.17 5.39062 871.924 5.39062 869.229L21.1133 849.014L19.541 845.645C19.9902 845.046 20.5143 844.372 21.1133 843.623C21.5625 843.024 22.0117 842.35 22.4609 841.602C23.0599 840.853 23.584 840.104 24.0332 839.355C32.8678 828.424 43.125 819.74 54.8047 813.301C66.4844 806.712 79.2871 801.546 93.2129 797.803L97.2559 796.68C105.342 796.68 113.428 797.428 121.514 798.926C129.749 800.423 137.536 802.52 144.873 805.215C145.921 807.76 147.568 809.408 149.814 810.156C152.21 810.755 154.456 811.055 156.553 811.055C157.9 813.451 159.173 815.547 160.371 817.344C161.569 819.141 162.617 820.938 163.516 822.734C164.414 824.531 165.088 826.478 165.537 828.574C166.136 830.521 166.436 832.842 166.436 835.537C166.436 840.928 164.564 845.495 160.82 849.238C157.077 852.982 151.761 854.854 144.873 854.854C144.424 854.255 143.825 853.506 143.076 852.607C142.327 851.559 141.504 850.586 140.605 849.688C139.707 848.639 138.883 847.741 138.135 846.992C137.386 846.243 136.787 845.794 136.338 845.645C136.188 845.345 135.439 845.12 134.092 844.971C132.744 844.671 131.995 844.521 131.846 844.521C128.252 842.874 125.482 840.329 123.535 836.885C121.738 833.291 119.792 829.772 117.695 826.328C115.749 822.734 113.278 819.59 110.283 816.895C107.438 814.199 103.096 812.852 97.2559 812.852C92.9134 812.852 88.9453 813.6 85.3516 815.098C81.7578 816.445 78.3138 818.317 75.0195 820.713C71.7253 822.959 68.5807 825.654 65.5859 828.799C62.7409 831.794 59.821 834.938 56.8262 838.232C56.2272 839.43 55.2539 840.703 53.9062 842.051C52.5586 843.249 51.6602 844.447 51.2109 845.645V854.854L49.4141 857.549C47.0182 862.34 45.3711 866.908 44.4727 871.25C43.5742 875.592 43.125 880.534 43.125 886.074C43.125 886.973 43.125 888.096 43.125 889.443C43.125 890.641 43.1999 891.914 43.3496 893.262C43.4993 894.46 43.6491 895.583 43.7988 896.631C43.9486 897.529 44.248 897.979 44.6973 897.979C44.6973 899.176 44.6973 900.674 44.6973 902.471C44.847 904.118 44.9967 905.765 45.1465 907.412C45.2962 909.059 45.446 910.482 45.5957 911.68C45.7454 912.878 45.8203 913.477 45.8203 913.477L47.8418 916.621V922.91C47.8418 926.354 47.9915 929.349 48.291 931.895C48.7402 934.44 49.3392 936.911 50.0879 939.307C50.9863 941.553 51.9596 943.874 53.0078 946.27C54.2057 948.516 55.4785 951.061 56.8262 953.906C56.8262 954.206 57.4251 955.254 58.623 957.051C59.821 958.698 61.0938 960.57 62.4414 962.666C63.7891 964.613 65.0618 966.484 66.2598 968.281C67.4577 969.928 68.2064 970.977 68.5059 971.426C69.7038 972.773 71.276 973.597 73.2227 973.896C75.1693 974.196 76.6667 974.795 77.7148 975.693C80.1107 977.49 82.0573 979.062 83.5547 980.41C85.2018 981.608 86.7741 982.656 88.2715 983.555C89.9186 984.453 91.6406 985.127 93.4375 985.576C95.2344 986.025 97.6302 986.25 100.625 986.25C107.513 986.25 114.551 984.827 121.738 981.982C128.926 979.137 135.215 975.618 140.605 971.426C141.803 970.527 143.076 969.404 144.424 968.057C145.921 966.559 147.419 965.137 148.916 963.789C150.413 962.441 151.911 961.243 153.408 960.195C155.055 959.147 156.628 958.623 158.125 958.623C160.82 958.623 162.617 959.147 163.516 960.195C164.564 961.243 165.088 963.04 165.088 965.586V968.281C162.542 976.816 158.499 984.154 152.959 990.293C147.568 996.432 141.279 1001.52 134.092 1005.57C126.904 1009.46 119.193 1012.38 110.957 1014.33C102.721 1016.27 94.6354 1017.25 86.6992 1017.25H79.7363L75.6934 1013.88H72.3242ZM206.416 1015C204.619 1015 203.197 1015.3 202.148 1015.9C201.25 1016.65 200.277 1017.02 199.229 1017.02C198.63 1017.02 197.881 1016.72 196.982 1016.12C196.234 1015.52 195.036 1014.78 193.389 1013.88C193.089 1013.73 192.865 1013.35 192.715 1012.75C192.715 1012.01 192.565 1011.18 192.266 1010.28C191.966 1009.38 191.742 1008.26 191.592 1006.91C191.592 1006.76 191.742 1006.39 192.041 1005.79C192.49 1005.04 192.939 1004.29 193.389 1003.54C193.838 1002.65 194.287 1001.82 194.736 1001.07C195.186 1000.33 195.56 999.801 195.859 999.502L200.127 997.031H205.068C208.512 997.031 211.582 996.807 214.277 996.357C217.122 995.758 219.368 994.036 221.016 991.191C221.615 986.1 222.064 981.234 222.363 976.592C222.663 971.95 223.411 967.383 224.609 962.891L227.305 952.334V931.445L228.428 911.23V897.979C228.428 897.679 228.278 896.93 227.979 895.732C227.679 894.385 227.38 892.962 227.08 891.465C226.781 889.818 226.481 888.32 226.182 886.973C225.882 885.475 225.732 884.352 225.732 883.604V862.266C225.133 860.618 224.16 858.597 222.812 856.201C221.465 853.805 220.117 852.083 218.77 851.035L211.807 848.789C209.261 846.992 206.94 845.046 204.844 842.949C202.897 840.853 201.325 838.232 200.127 835.088C200.127 833.441 200.501 832.168 201.25 831.27C201.999 830.371 202.972 829.697 204.17 829.248C205.368 828.799 206.641 828.424 207.988 828.125C209.336 827.826 210.609 827.526 211.807 827.227L228.428 818.691C229.775 818.092 230.898 817.643 231.797 817.344C232.845 816.895 233.818 816.445 234.717 815.996C235.615 815.547 236.439 815.023 237.188 814.424C238.086 813.825 239.059 812.926 240.107 811.729L246.621 811.279C247.37 811.279 248.493 811.354 249.99 811.504C251.637 811.654 252.611 811.729 252.91 811.729C253.359 811.729 254.108 811.803 255.156 811.953C256.204 812.103 257.327 812.327 258.525 812.627C259.723 812.926 260.846 813.226 261.895 813.525C262.943 813.825 263.691 814.049 264.141 814.199C265.488 814.798 266.312 816.071 266.611 818.018C267.061 819.814 267.285 821.462 267.285 822.959V830.146L265.713 835.537C264.964 845.27 264.59 854.854 264.59 864.287C264.59 873.721 264.44 883.454 264.141 893.486L263.018 901.572C262.868 901.722 262.718 902.246 262.568 903.145C262.568 904.043 262.568 905.091 262.568 906.289C262.568 907.487 262.568 908.685 262.568 909.883C262.568 910.931 262.568 911.755 262.568 912.354C262.568 913.402 262.568 914.6 262.568 915.947C262.568 917.295 262.568 918.568 262.568 919.766C262.568 920.964 262.568 922.012 262.568 922.91C262.718 923.659 262.868 924.033 263.018 924.033C263.018 924.482 263.167 925.531 263.467 927.178C263.766 928.675 263.991 929.574 264.141 929.873V934.59C264.141 935.039 264.066 936.237 263.916 938.184C263.766 940.13 263.617 942.376 263.467 944.922C263.317 947.318 263.167 949.714 263.018 952.109C263.018 954.355 263.018 956.003 263.018 957.051C263.018 958.398 263.092 960.57 263.242 963.564C263.542 966.41 263.841 969.479 264.141 972.773C264.59 976.068 264.964 979.212 265.264 982.207C265.563 985.052 265.713 987.074 265.713 988.271C265.713 989.919 266.536 991.266 268.184 992.314C269.98 993.213 271.403 993.812 272.451 994.111C272.9 994.111 273.799 994.186 275.146 994.336C276.644 994.486 278.216 994.635 279.863 994.785C281.51 994.935 283.008 995.085 284.355 995.234C285.853 995.234 286.901 995.234 287.5 995.234C288.548 996.432 289.372 997.705 289.971 999.053C290.719 1000.4 291.094 1002.12 291.094 1004.22C291.094 1006.32 290.869 1008.34 290.42 1010.28C290.12 1012.23 289.297 1013.58 287.949 1014.33C286.152 1015.82 284.131 1016.65 281.885 1016.8C279.788 1017.1 277.542 1017.25 275.146 1017.25H271.104L265.713 1015H238.086C237.936 1015 236.963 1014.85 235.166 1014.55C233.369 1014.1 232.171 1013.88 231.572 1013.88H225.283L206.416 1015ZM212.93 717.393L219.893 710.43L227.305 704.59L229.551 699.873C231.348 698.525 233.369 697.777 235.615 697.627C237.861 697.327 239.883 697.178 241.68 697.178H243.926C244.076 697.327 244.525 697.552 245.273 697.852C246.022 698.151 246.771 698.451 247.52 698.75C248.268 699.049 248.942 699.349 249.541 699.648C250.29 699.798 250.814 699.873 251.113 699.873C251.712 700.173 252.611 700.472 253.809 700.771C255.156 700.921 256.504 701.146 257.852 701.445C259.199 701.595 260.472 701.745 261.67 701.895C262.868 701.895 263.691 701.895 264.141 701.895C264.74 702.044 265.413 702.943 266.162 704.59C266.911 706.237 267.51 708.109 267.959 710.205C268.558 712.152 269.007 714.098 269.307 716.045C269.756 717.842 269.98 719.04 269.98 719.639C269.98 723.382 269.531 726.901 268.633 730.195C267.884 733.34 266.012 736.185 263.018 738.73C262.868 738.88 262.419 739.105 261.67 739.404C261.071 739.554 260.397 739.779 259.648 740.078C258.9 740.228 258.151 740.452 257.402 740.752C256.803 740.902 256.504 740.977 256.504 740.977C256.354 741.276 255.98 741.8 255.381 742.549C254.782 743.148 254.108 743.822 253.359 744.57C252.611 745.169 251.862 745.768 251.113 746.367C250.365 746.816 249.915 747.116 249.766 747.266C248.867 748.314 247.52 748.913 245.723 749.062C244.076 749.212 242.503 749.287 241.006 749.287H232.246C230.599 749.287 229.176 749.212 227.979 749.062C226.781 748.763 225.133 747.79 223.037 746.143C220.492 742.399 218.096 738.955 215.85 735.811C213.604 732.666 212.48 728.698 212.48 723.906L212.93 717.393ZM340.508 928.75L339.16 906.289L340.508 882.93V876.191C340.658 875.443 340.882 874.544 341.182 873.496C341.481 872.448 341.631 871.549 341.631 870.801C341.631 866.458 340.957 862.041 339.609 857.549C338.262 852.907 337.214 848.415 336.465 844.072C334.967 843.024 332.796 842.275 329.951 841.826C327.256 841.377 324.561 840.853 321.865 840.254C319.17 839.505 316.774 838.457 314.678 837.109C312.731 835.762 311.758 833.665 311.758 830.82C311.758 827.676 312.806 825.355 314.902 823.857C316.999 822.21 319.469 820.863 322.314 819.814C325.309 818.617 328.304 817.568 331.299 816.67C334.443 815.771 336.989 814.424 338.936 812.627C340.882 810.98 343.053 808.958 345.449 806.562C347.845 804.167 349.567 802.295 350.615 800.947C351.813 798.551 353.385 795.557 355.332 791.963C357.428 788.369 359.674 784.925 362.07 781.631C364.466 778.187 367.012 775.267 369.707 772.871C372.402 770.326 375.098 769.053 377.793 769.053C379.59 769.053 381.012 769.577 382.061 770.625C383.258 771.523 384.157 772.721 384.756 774.219C385.505 775.566 386.029 777.064 386.328 778.711C386.628 780.358 386.852 781.93 387.002 783.428V809.482L388.125 811.055H398.682C402.425 811.055 405.869 810.83 409.014 810.381C412.158 809.782 415.078 809.183 417.773 808.584C420.618 807.835 423.314 807.236 425.859 806.787C428.555 806.188 431.4 805.889 434.395 805.889C438.587 805.889 442.106 807.461 444.951 810.605C447.796 813.75 449.219 817.493 449.219 821.836C449.219 825.28 448.62 828.125 447.422 830.371C446.374 832.617 444.801 834.414 442.705 835.762C440.609 837.109 438.138 838.083 435.293 838.682C432.448 839.131 429.303 839.355 425.859 839.355L411.035 838.232L399.805 839.355L389.023 838.232C386.927 838.232 384.98 839.206 383.184 841.152C381.536 842.949 380.713 844.671 380.713 846.318L382.734 863.164C382.734 865.26 382.435 867.282 381.836 869.229C381.237 871.175 380.563 873.197 379.814 875.293C379.066 877.24 378.392 879.261 377.793 881.357C377.194 883.454 376.895 885.625 376.895 887.871V891.914L378.916 917.969C378.467 918.867 378.167 919.766 378.018 920.664C378.018 921.562 378.018 922.686 378.018 924.033C378.018 925.081 378.167 926.055 378.467 926.953C378.766 927.852 378.916 928.675 378.916 929.424C379.365 933.766 379.59 938.034 379.59 942.227C379.59 945.97 379.44 949.564 379.141 953.008C378.841 956.452 378.392 959.896 377.793 963.34C377.943 963.49 378.242 963.939 378.691 964.688C379.141 965.286 379.59 966.035 380.039 966.934C380.638 967.682 381.162 968.506 381.611 969.404C382.061 970.153 382.435 970.602 382.734 970.752C383.932 972.549 385.28 973.896 386.777 974.795C388.275 975.693 389.772 976.517 391.27 977.266C392.917 977.865 394.564 978.538 396.211 979.287C398.008 980.036 399.73 981.159 401.377 982.656H409.912C413.356 982.656 416.65 982.282 419.795 981.533C422.939 980.785 425.934 980.036 428.779 979.287C431.774 978.389 434.619 977.565 437.314 976.816C440.16 976.068 443.079 975.693 446.074 975.693C447.871 975.693 449.219 976.592 450.117 978.389C451.016 980.186 451.465 981.908 451.465 983.555C451.465 984.453 451.39 985.202 451.24 985.801C451.24 986.25 451.09 986.699 450.791 987.148C450.492 987.598 450.042 988.122 449.443 988.721C448.994 989.32 448.395 990.143 447.646 991.191L444.502 995.684C444.053 995.983 443.304 996.732 442.256 997.93C441.357 999.128 440.309 1000.48 439.111 1001.97C437.913 1003.32 436.715 1004.67 435.518 1006.02C434.32 1007.21 433.421 1008.11 432.822 1008.71C431.325 1010.36 429.079 1011.93 426.084 1013.43C423.089 1014.93 419.945 1016.2 416.65 1017.25C413.356 1018.44 410.137 1019.34 406.992 1019.94C403.997 1020.54 401.602 1020.84 399.805 1020.84L371.055 1015C368.509 1014.25 365.664 1013.13 362.52 1011.63C359.375 1010.13 356.305 1008.41 353.311 1006.46C350.465 1004.37 347.92 1002.05 345.674 999.502C343.577 996.956 342.23 994.186 341.631 991.191V975.693C340.882 970.602 339.984 965.811 338.936 961.318C338.037 956.676 337.588 951.885 337.588 946.943L340.508 928.75ZM486.279 1015C484.482 1015 483.06 1015.3 482.012 1015.9C481.113 1016.65 480.14 1017.02 479.092 1017.02C478.493 1017.02 477.744 1016.72 476.846 1016.12C476.097 1015.52 474.899 1014.78 473.252 1013.88C472.952 1013.73 472.728 1013.35 472.578 1012.75C472.578 1012.01 472.428 1011.18 472.129 1010.28C471.829 1009.38 471.605 1008.26 471.455 1006.91C471.455 1006.76 471.605 1006.39 471.904 1005.79C472.354 1005.04 472.803 1004.29 473.252 1003.54C473.701 1002.65 474.15 1001.82 474.6 1001.07C475.049 1000.33 475.423 999.801 475.723 999.502L479.99 997.031H484.932C488.376 997.031 491.445 996.807 494.141 996.357C496.986 995.758 499.232 994.036 500.879 991.191C501.478 986.1 501.927 981.234 502.227 976.592C502.526 971.95 503.275 967.383 504.473 962.891L507.168 952.334V931.445L508.291 911.23V897.979C508.291 897.679 508.141 896.93 507.842 895.732C507.542 894.385 507.243 892.962 506.943 891.465C506.644 889.818 506.344 888.32 506.045 886.973C505.745 885.475 505.596 884.352 505.596 883.604V862.266C504.997 860.618 504.023 858.597 502.676 856.201C501.328 853.805 499.98 852.083 498.633 851.035L491.67 848.789C489.124 846.992 486.803 845.046 484.707 842.949C482.76 840.853 481.188 838.232 479.99 835.088C479.99 833.441 480.365 832.168 481.113 831.27C481.862 830.371 482.835 829.697 484.033 829.248C485.231 828.799 486.504 828.424 487.852 828.125C489.199 827.826 490.472 827.526 491.67 827.227L508.291 818.691C509.639 818.092 510.762 817.643 511.66 817.344C512.708 816.895 513.682 816.445 514.58 815.996C515.479 815.547 516.302 815.023 517.051 814.424C517.949 813.825 518.923 812.926 519.971 811.729L526.484 811.279C527.233 811.279 528.356 811.354 529.854 811.504C531.501 811.654 532.474 811.729 532.773 811.729C533.223 811.729 533.971 811.803 535.02 811.953C536.068 812.103 537.191 812.327 538.389 812.627C539.587 812.926 540.71 813.226 541.758 813.525C542.806 813.825 543.555 814.049 544.004 814.199C545.352 814.798 546.175 816.071 546.475 818.018C546.924 819.814 547.148 821.462 547.148 822.959V830.146L545.576 835.537C544.827 845.27 544.453 854.854 544.453 864.287C544.453 873.721 544.303 883.454 544.004 893.486L542.881 901.572C542.731 901.722 542.581 902.246 542.432 903.145C542.432 904.043 542.432 905.091 542.432 906.289C542.432 907.487 542.432 908.685 542.432 909.883C542.432 910.931 542.432 911.755 542.432 912.354C542.432 913.402 542.432 914.6 542.432 915.947C542.432 917.295 542.432 918.568 542.432 919.766C542.432 920.964 542.432 922.012 542.432 922.91C542.581 923.659 542.731 924.033 542.881 924.033C542.881 924.482 543.031 925.531 543.33 927.178C543.63 928.675 543.854 929.574 544.004 929.873V934.59C544.004 935.039 543.929 936.237 543.779 938.184C543.63 940.13 543.48 942.376 543.33 944.922C543.18 947.318 543.031 949.714 542.881 952.109C542.881 954.355 542.881 956.003 542.881 957.051C542.881 958.398 542.956 960.57 543.105 963.564C543.405 966.41 543.704 969.479 544.004 972.773C544.453 976.068 544.827 979.212 545.127 982.207C545.426 985.052 545.576 987.074 545.576 988.271C545.576 989.919 546.4 991.266 548.047 992.314C549.844 993.213 551.266 993.812 552.314 994.111C552.764 994.111 553.662 994.186 555.01 994.336C556.507 994.486 558.079 994.635 559.727 994.785C561.374 994.935 562.871 995.085 564.219 995.234C565.716 995.234 566.764 995.234 567.363 995.234C568.411 996.432 569.235 997.705 569.834 999.053C570.583 1000.4 570.957 1002.12 570.957 1004.22C570.957 1006.32 570.732 1008.34 570.283 1010.28C569.984 1012.23 569.16 1013.58 567.812 1014.33C566.016 1015.82 563.994 1016.65 561.748 1016.8C559.652 1017.1 557.406 1017.25 555.01 1017.25H550.967L545.576 1015H517.949C517.799 1015 516.826 1014.85 515.029 1014.55C513.232 1014.1 512.035 1013.88 511.436 1013.88H505.146L486.279 1015ZM492.793 717.393L499.756 710.43L507.168 704.59L509.414 699.873C511.211 698.525 513.232 697.777 515.479 697.627C517.725 697.327 519.746 697.178 521.543 697.178H523.789C523.939 697.327 524.388 697.552 525.137 697.852C525.885 698.151 526.634 698.451 527.383 698.75C528.132 699.049 528.805 699.349 529.404 699.648C530.153 699.798 530.677 699.873 530.977 699.873C531.576 700.173 532.474 700.472 533.672 700.771C535.02 700.921 536.367 701.146 537.715 701.445C539.062 701.595 540.335 701.745 541.533 701.895C542.731 701.895 543.555 701.895 544.004 701.895C544.603 702.044 545.277 702.943 546.025 704.59C546.774 706.237 547.373 708.109 547.822 710.205C548.421 712.152 548.87 714.098 549.17 716.045C549.619 717.842 549.844 719.04 549.844 719.639C549.844 723.382 549.395 726.901 548.496 730.195C547.747 733.34 545.876 736.185 542.881 738.73C542.731 738.88 542.282 739.105 541.533 739.404C540.934 739.554 540.26 739.779 539.512 740.078C538.763 740.228 538.014 740.452 537.266 740.752C536.667 740.902 536.367 740.977 536.367 740.977C536.217 741.276 535.843 741.8 535.244 742.549C534.645 743.148 533.971 743.822 533.223 744.57C532.474 745.169 531.725 745.768 530.977 746.367C530.228 746.816 529.779 747.116 529.629 747.266C528.73 748.314 527.383 748.913 525.586 749.062C523.939 749.212 522.367 749.287 520.869 749.287H512.109C510.462 749.287 509.04 749.212 507.842 749.062C506.644 748.763 504.997 747.79 502.9 746.143C500.355 742.399 497.959 738.955 495.713 735.811C493.467 732.666 492.344 728.698 492.344 723.906L492.793 717.393ZM681.465 1015C679.818 1015 678.171 1014.78 676.523 1014.33C675.026 1013.88 673.529 1013.43 672.031 1012.98C670.534 1012.38 668.962 1011.86 667.314 1011.41C665.817 1010.96 664.17 1010.73 662.373 1010.73C658.48 1010.73 654.437 1011.03 650.244 1011.63C646.201 1012.08 641.934 1012.3 637.441 1012.3C635.345 1012.3 633.473 1012.3 631.826 1012.3C630.179 1012.15 628.532 1012.01 626.885 1011.86C625.387 1011.56 623.815 1011.33 622.168 1011.18C620.521 1010.88 618.649 1010.58 616.553 1010.28L610.713 1009.61C608.617 1008.56 606.595 1006.99 604.648 1004.89C602.702 1002.65 601.729 1000.18 601.729 997.48V994.336L617.227 978.838L625.088 966.484C625.687 965.436 626.211 964.837 626.66 964.688C627.259 964.388 627.783 964.238 628.232 964.238C628.682 964.238 629.206 964.163 629.805 964.014C630.404 963.714 631.152 963.115 632.051 962.217C633.848 959.671 635.195 957.126 636.094 954.58C637.142 951.885 638.415 949.489 639.912 947.393C641.859 944.248 643.431 941.178 644.629 938.184C645.827 935.039 646.576 931.745 646.875 928.301C650.319 925.605 653.464 923.06 656.309 920.664C659.303 918.118 661.999 915.648 664.395 913.252C666.641 910.856 668.662 908.535 670.459 906.289C672.406 904.043 674.202 901.947 675.85 900C677.796 893.711 680.042 887.871 682.588 882.48C683.187 880.833 684.385 879.261 686.182 877.764C687.979 876.117 689.326 874.469 690.225 872.822C691.273 871.025 691.797 869.378 691.797 867.881C691.797 866.234 692.471 864.661 693.818 863.164L701.23 860.02C701.68 859.72 702.129 858.822 702.578 857.324C703.177 855.677 703.776 853.955 704.375 852.158C704.974 850.212 705.423 848.34 705.723 846.543C706.172 844.596 706.471 843.249 706.621 842.5C707.969 841.452 708.867 839.655 709.316 837.109C709.915 834.564 710.215 832.617 710.215 831.27C710.215 830.221 709.766 829.323 708.867 828.574C707.969 827.676 706.846 826.927 705.498 826.328C704.3 825.729 703.027 825.28 701.68 824.98C700.482 824.681 699.434 824.531 698.535 824.531C696.439 824.382 694.342 824.232 692.246 824.082C690.299 823.932 688.503 823.857 686.855 823.857L674.727 824.531C673.079 825.579 671.283 826.253 669.336 826.553C667.539 826.852 665.592 827.002 663.496 827.002H646.875C642.832 827.152 638.789 828.35 634.746 830.596C630.703 832.842 626.81 835.537 623.066 838.682C619.473 841.676 616.029 844.746 612.734 847.891C609.59 851.035 606.82 853.656 604.424 855.752L601.729 855.977C600.381 855.977 599.258 855.153 598.359 853.506C597.461 851.859 596.937 850.286 596.787 848.789L616.553 808.584C616.702 808.285 617.152 807.985 617.9 807.686C618.799 807.236 619.622 806.637 620.371 805.889H622.393C624.04 806.488 625.163 806.937 625.762 807.236C626.51 807.386 627.109 807.461 627.559 807.461C628.158 807.461 628.757 807.536 629.355 807.686C630.104 807.686 631.227 807.91 632.725 808.359C635.57 808.809 638.19 809.183 640.586 809.482C642.982 809.632 645.303 809.782 647.549 809.932C649.795 810.081 652.041 810.156 654.287 810.156C656.533 810.156 658.929 810.156 661.475 810.156C665.218 810.156 668.662 809.557 671.807 808.359C675.101 807.012 678.395 806.338 681.689 806.338C700.856 810.081 720.322 812.178 740.088 812.627C743.831 812.627 747.35 812.028 750.645 810.83C754.089 809.632 757.533 809.033 760.977 809.033C762.174 809.033 763.672 809.183 765.469 809.482C767.415 809.632 769.287 810.081 771.084 810.83C772.881 811.429 774.453 812.327 775.801 813.525C777.148 814.723 777.822 816.221 777.822 818.018L777.373 819.59C774.079 823.932 770.934 828.724 767.939 833.965C765.094 839.056 762.025 843.548 758.73 847.441C754.837 851.784 751.543 856.276 748.848 860.918C746.152 865.41 743.981 870.426 742.334 875.967L726.387 891.016L722.568 901.123L712.461 910.781C709.915 913.327 707.819 915.872 706.172 918.418C704.674 920.964 703.327 923.509 702.129 926.055C700.931 928.6 699.733 931.221 698.535 933.916C697.487 936.611 696.139 939.382 694.492 942.227L687.529 950.088C686.182 953.532 684.385 956.527 682.139 959.072C679.893 961.618 677.946 963.939 676.299 966.035C674.652 968.73 673.304 971.501 672.256 974.346C671.357 977.191 670.234 980.111 668.887 983.105C668.737 983.405 668.662 983.63 668.662 983.779V984.678C668.662 988.421 670.085 990.967 672.93 992.314C675.775 993.512 678.844 994.186 682.139 994.336C684.085 994.635 686.257 994.935 688.652 995.234C691.048 995.534 693.444 995.833 695.84 996.133C698.236 996.283 700.557 996.432 702.803 996.582C705.199 996.732 707.37 996.807 709.316 996.807C720.098 996.807 729.831 995.16 738.516 991.865C747.201 988.421 755.361 983.18 762.998 976.143C764.795 974.346 766.217 972.848 767.266 971.65C768.464 970.303 769.587 969.105 770.635 968.057C771.683 967.008 772.881 966.035 774.229 965.137C775.576 964.089 777.373 963.115 779.619 962.217C780.368 962.217 781.491 962.666 782.988 963.564C784.486 964.463 785.309 965.286 785.459 966.035C785.459 967.233 785.234 968.73 784.785 970.527C784.336 972.324 783.962 973.822 783.662 975.02C783.363 981.009 782.689 987.148 781.641 993.438C780.742 999.727 779.694 1006.02 778.496 1012.3C776.549 1015.3 773.854 1017.02 770.41 1017.47C766.966 1017.92 763.073 1018.14 758.73 1018.14C754.238 1018.14 749.746 1017.77 745.254 1017.02C740.762 1016.42 736.344 1015.75 732.002 1015C727.66 1014.25 723.317 1013.58 718.975 1012.98C714.632 1012.23 710.29 1011.86 705.947 1011.86L681.465 1015ZM811.963 916.621C811.963 915.872 812.113 914.45 812.412 912.354C812.712 910.107 813.011 907.786 813.311 905.391C813.76 902.845 814.059 900.449 814.209 898.203C814.508 895.957 814.658 894.46 814.658 893.711C815.257 886.523 816.829 879.186 819.375 871.699C822.07 864.212 825.439 857.025 829.482 850.137C833.525 843.099 838.167 836.66 843.408 830.82C848.799 824.98 854.639 820.039 860.928 815.996C861.077 815.697 861.826 815.173 863.174 814.424C864.671 813.675 866.243 812.926 867.891 812.178C869.538 811.429 871.11 810.68 872.607 809.932C874.105 809.183 875.003 808.659 875.303 808.359C876.351 807.91 877.699 807.161 879.346 806.113C881.143 804.915 882.939 803.792 884.736 802.744C886.533 801.546 888.33 800.498 890.127 799.6C891.924 798.701 893.571 798.252 895.068 798.252C896.416 798.252 897.464 798.402 898.213 798.701C899.111 799.001 900.16 799.45 901.357 800.049C903.903 799.749 906.299 799.525 908.545 799.375C910.941 799.076 913.337 798.926 915.732 798.926C918.278 798.926 920.674 799.076 922.92 799.375C925.166 799.525 927.562 799.749 930.107 800.049C930.107 800.049 930.407 800.199 931.006 800.498C931.605 800.648 932.279 800.872 933.027 801.172C933.776 801.471 934.525 801.771 935.273 802.07C936.022 802.37 936.621 802.594 937.07 802.744C937.52 802.894 938.418 803.343 939.766 804.092C941.113 804.691 942.611 805.439 944.258 806.338C945.905 807.236 947.477 808.06 948.975 808.809C950.472 809.408 951.52 809.782 952.119 809.932C952.119 810.081 952.643 810.306 953.691 810.605C954.74 810.905 955.413 811.055 955.713 811.055L964.697 815.996L984.912 834.414C985.511 835.163 986.41 837.184 987.607 840.479C988.955 843.623 990.228 847.142 991.426 851.035C992.773 854.779 993.896 858.372 994.795 861.816C995.843 865.26 996.367 867.507 996.367 868.555C996.367 870.651 995.768 872.373 994.57 873.721C993.372 874.919 991.95 875.967 990.303 876.865C988.656 877.614 986.859 878.213 984.912 878.662C983.115 878.962 981.543 879.186 980.195 879.336H979.297C977.799 879.486 975.329 879.635 971.885 879.785C968.59 879.935 965.072 880.085 961.328 880.234C957.734 880.234 954.29 880.309 950.996 880.459C947.852 880.459 945.68 880.459 944.482 880.459C942.835 881.208 941.338 881.657 939.99 881.807C938.792 881.956 937.52 882.031 936.172 882.031L920.225 880.459C917.23 880.459 914.085 880.983 910.791 882.031C907.646 883.079 904.577 883.604 901.582 883.604C899.635 883.604 897.689 882.93 895.742 881.582C893.945 880.085 891.924 879.336 889.678 879.336C889.378 879.336 888.555 879.71 887.207 880.459C886.009 881.058 885.111 881.357 884.512 881.357L867.441 880.234C865.046 880.234 862.799 880.684 860.703 881.582C858.607 882.48 856.211 884.053 853.516 886.299C853.066 890.192 852.767 893.636 852.617 896.631C852.467 899.476 852.393 902.695 852.393 906.289C852.393 909.434 852.542 911.979 852.842 913.926C853.291 915.872 853.89 917.744 854.639 919.541C855.387 921.188 856.286 922.91 857.334 924.707C858.382 926.354 859.58 928.451 860.928 930.996L863.174 935.264C867.067 943.799 872.083 950.687 878.223 955.928C884.362 961.169 892.298 965.286 902.031 968.281C902.031 969.03 903.079 969.779 905.176 970.527C907.422 971.126 909.893 971.576 912.588 971.875C915.732 972.474 919.326 972.848 923.369 972.998C928.311 972.998 933.402 972.699 938.643 972.1C943.883 971.501 948.975 970.527 953.916 969.18C958.857 967.832 963.499 966.035 967.842 963.789C972.334 961.543 976.152 958.773 979.297 955.479H982.891C984.688 955.479 985.885 955.778 986.484 956.377C987.233 956.826 987.982 958.249 988.73 960.645C988.281 964.987 987.607 968.88 986.709 972.324C985.96 975.618 984.837 978.613 983.34 981.309C981.992 984.004 980.195 986.549 977.949 988.945C975.703 991.191 972.783 993.512 969.189 995.908C967.992 996.807 966.868 997.48 965.82 997.93C964.772 998.229 963.799 998.529 962.9 998.828C962.002 999.128 961.029 999.577 959.98 1000.18C959.082 1000.77 958.034 1001.82 956.836 1003.32L932.803 1015.45L930.107 1015L913.262 1017.7C900.684 1017.7 889.378 1015.9 879.346 1012.3C869.313 1008.71 860.329 1003.62 852.393 997.031C844.606 990.293 837.793 982.282 831.953 972.998C826.263 963.714 821.396 953.457 817.354 942.227C816.006 938.184 815.182 934.066 814.883 929.873C814.583 925.531 813.61 921.113 811.963 916.621ZM856.211 855.303C856.211 856.051 856.286 857.174 856.436 858.672C856.735 860.169 857.109 861.667 857.559 863.164C858.008 864.661 858.532 866.009 859.131 867.207C859.73 868.405 860.329 869.079 860.928 869.229H867.891L897.764 864.512L916.855 866.084C920.15 866.084 923.07 865.785 925.615 865.186C928.311 864.587 931.23 863.913 934.375 863.164C937.22 862.715 939.616 862.34 941.562 862.041C943.659 861.592 945.306 860.843 946.504 859.795C947.852 858.747 948.825 857.399 949.424 855.752C950.023 853.955 950.322 851.484 950.322 848.34C950.322 843.099 948.9 838.532 946.055 834.639C943.21 830.745 939.616 827.526 935.273 824.98C931.081 822.285 926.439 820.339 921.348 819.141C916.406 817.793 911.764 817.119 907.422 817.119C906.374 817.119 904.876 817.419 902.93 818.018C900.983 818.467 898.737 819.141 896.191 820.039C893.796 820.788 891.25 821.686 888.555 822.734C886.009 823.633 883.613 824.681 881.367 825.879C879.271 826.927 877.399 827.975 875.752 829.023C874.105 829.922 873.057 830.745 872.607 831.494L867.891 841.602C866.992 842.65 865.869 843.623 864.521 844.521C863.174 845.42 861.826 846.393 860.479 847.441C859.281 848.49 858.232 849.688 857.334 851.035C856.585 852.233 856.211 853.656 856.211 855.303ZM1058.13 1013.43C1054.09 1014.48 1050.12 1015.15 1046.23 1015.45C1042.34 1015.9 1038.29 1016.12 1034.1 1016.12L1028.26 1016.57C1026.46 1016.57 1025.34 1016.27 1024.89 1015.67C1023.84 1014.33 1022.87 1012.9 1021.97 1011.41C1021.07 1009.76 1020.62 1007.74 1020.62 1005.34C1020.62 1003.69 1021.07 1002.12 1021.97 1000.62C1022.87 999.128 1023.84 998.079 1024.89 997.48C1026.54 996.882 1028.04 996.582 1029.38 996.582C1030.73 996.432 1032.08 996.357 1033.43 996.357C1034.78 996.357 1036.05 996.283 1037.25 996.133C1038.44 995.833 1039.72 995.534 1041.06 995.234C1044.51 993.887 1047.2 992.389 1049.15 990.742C1051.1 989.095 1052.59 987.373 1053.64 985.576C1054.69 983.63 1055.29 981.683 1055.44 979.736C1055.74 977.79 1055.89 975.843 1055.89 973.896L1055.21 961.768C1054.92 961.468 1054.54 960.869 1054.09 959.971C1053.64 958.923 1053.19 958.249 1052.74 957.949L1051.62 954.355C1051.62 952.858 1052.22 951.735 1053.42 950.986C1054.62 950.238 1055.21 948.815 1055.21 946.719L1053.64 935.713C1053.64 933.317 1053.79 930.921 1054.09 928.525C1054.39 925.98 1055.36 923.734 1057.01 921.787V906.289L1055.21 901.572L1058.13 892.139V886.074C1058.13 882.331 1057.84 878.512 1057.24 874.619C1056.64 870.726 1055.59 867.132 1054.09 863.838C1052.74 860.394 1050.8 857.249 1048.25 854.404C1045.86 851.559 1042.86 849.238 1039.27 847.441L1028.26 841.602C1027.06 841.302 1025.94 840.404 1024.89 838.906C1023.84 837.409 1023.17 835.986 1022.87 834.639C1023.17 833.89 1023.69 832.842 1024.44 831.494C1025.19 830.146 1026.02 828.874 1026.91 827.676C1027.96 826.328 1029.09 825.205 1030.28 824.307C1031.63 823.258 1032.9 822.734 1034.1 822.734H1045.33C1045.48 822.734 1045.93 822.51 1046.68 822.061C1047.43 821.611 1048.18 821.162 1048.93 820.713C1049.67 820.114 1050.42 819.59 1051.17 819.141C1051.92 818.542 1052.44 818.167 1052.74 818.018C1052.89 817.868 1053.34 817.643 1054.09 817.344C1054.39 817.194 1054.77 817.044 1055.21 816.895H1065.32C1065.47 816.745 1065.77 816.445 1066.22 815.996C1066.82 815.547 1067.49 815.023 1068.24 814.424C1068.99 813.825 1069.81 813.076 1070.71 812.178C1071.01 811.878 1071.76 811.729 1072.96 811.729C1074.16 811.729 1075.35 811.729 1076.55 811.729C1077.15 811.729 1078.05 811.878 1079.25 812.178C1080.6 812.327 1081.87 812.702 1083.07 813.301C1084.41 813.9 1085.54 814.648 1086.44 815.547C1087.33 816.296 1087.78 817.269 1087.78 818.467C1087.78 818.617 1087.71 818.691 1087.56 818.691C1087.56 818.691 1087.56 818.766 1087.56 818.916L1087.33 819.141C1087.33 819.44 1087.03 820.413 1086.44 822.061C1085.99 823.708 1085.69 824.681 1085.54 824.98V827.227C1085.54 827.526 1085.76 828.05 1086.21 828.799C1086.66 829.398 1087.11 830.072 1087.56 830.82C1088.01 831.419 1088.38 832.018 1088.68 832.617C1089.13 833.066 1089.36 833.366 1089.36 833.516L1094.07 841.602C1094.37 842.799 1095.27 843.548 1096.77 843.848C1098.26 843.997 1099.54 844.072 1100.59 844.072C1102.68 844.072 1104.63 843.249 1106.43 841.602C1108.22 839.805 1109.79 838.307 1111.14 837.109L1118.11 827.227L1118.55 826.777C1119 826.328 1119.23 826.104 1119.23 826.104C1119.53 826.104 1120.35 825.804 1121.7 825.205C1123.05 824.606 1123.95 824.157 1124.39 823.857C1124.54 823.708 1125.07 823.109 1125.97 822.061C1126.87 821.012 1127.84 819.889 1128.89 818.691C1129.93 817.493 1130.91 816.445 1131.81 815.547C1132.71 814.499 1133.3 813.9 1133.6 813.75C1133.75 813.6 1134.28 813.376 1135.18 813.076C1136.22 812.777 1137.27 812.477 1138.32 812.178C1139.52 811.878 1140.57 811.654 1141.46 811.504C1142.51 811.204 1143.11 811.055 1143.26 811.055C1145.21 810.306 1146.71 809.557 1147.75 808.809C1148.8 808.06 1149.78 807.461 1150.67 807.012C1151.72 806.413 1152.92 805.964 1154.27 805.664C1155.62 805.365 1157.56 805.215 1160.11 805.215H1164.6L1174.03 809.932C1174.18 809.932 1174.63 810.007 1175.38 810.156C1176.13 810.156 1176.95 810.231 1177.85 810.381C1178.75 810.531 1179.57 810.68 1180.32 810.83C1181.07 810.83 1181.6 810.905 1181.89 811.055C1182.49 811.055 1183.62 811.204 1185.26 811.504C1187.06 811.654 1187.96 811.878 1187.96 812.178C1188.26 812.178 1189.08 812.627 1190.43 813.525C1191.78 814.274 1192.68 815.023 1193.12 815.771C1193.27 815.771 1193.65 815.547 1194.25 815.098C1194.85 814.648 1195.37 814.424 1195.82 814.424C1197.92 815.173 1199.94 816.52 1201.88 818.467C1203.83 820.413 1205.4 822.061 1206.6 823.408C1207.35 824.307 1208.25 825.579 1209.3 827.227C1210.49 828.724 1211.62 830.221 1212.67 831.719C1213.71 833.216 1214.61 834.564 1215.36 835.762C1216.26 836.81 1216.71 837.334 1216.71 837.334C1216.71 837.484 1216.78 838.232 1216.93 839.58C1217.23 840.928 1217.53 842.575 1217.83 844.521C1218.13 846.318 1218.43 848.19 1218.73 850.137C1219.03 852.083 1219.25 853.656 1219.4 854.854L1217.83 878.662L1220.98 898.877C1220.98 901.273 1220.75 903.07 1220.3 904.268C1219.85 905.465 1219.33 906.439 1218.73 907.188C1218.13 907.936 1217.61 908.685 1217.16 909.434C1216.71 910.033 1216.48 911.006 1216.48 912.354C1216.48 914.45 1216.86 916.247 1217.61 917.744C1218.51 919.242 1219.1 920.814 1219.4 922.461C1219.4 922.76 1219.48 923.584 1219.63 924.932C1219.78 926.279 1219.93 927.926 1220.08 929.873C1220.23 931.67 1220.38 933.542 1220.53 935.488C1220.68 937.285 1220.75 938.783 1220.75 939.98V958.174C1219.7 960.27 1219.03 961.917 1218.73 963.115C1218.43 964.163 1218.28 965.511 1218.28 967.158L1217.83 978.838L1218.73 988.496C1218.73 988.945 1218.81 989.544 1218.96 990.293C1219.25 990.892 1219.55 991.341 1219.85 991.641C1220.9 992.389 1222.77 992.988 1225.47 993.438C1228.31 993.887 1231.01 995.01 1233.55 996.807L1235.35 998.604C1235.8 1000.7 1236.77 1002.5 1238.27 1003.99C1239.77 1005.49 1240.52 1007.06 1240.52 1008.71C1240.52 1010.36 1240.29 1012.01 1239.84 1013.65C1239.54 1015.3 1238.35 1016.12 1236.25 1016.12H1235.35C1232.36 1016.42 1229.59 1016.65 1227.04 1016.8C1224.5 1017.1 1221.73 1017.25 1218.73 1017.25C1217.38 1017.25 1215.89 1017.17 1214.24 1017.02C1212.59 1017.02 1210.94 1016.87 1209.3 1016.57C1206.6 1016.27 1203.98 1016.05 1201.44 1015.9C1199.04 1015.75 1196.64 1015.67 1194.25 1015.67C1190.95 1015.67 1187.66 1015.75 1184.37 1015.9C1181.22 1016.05 1177.93 1016.27 1174.48 1016.57C1173.73 1016.27 1172.76 1016.05 1171.56 1015.9C1170.51 1015.75 1169.39 1015.67 1168.19 1015.67C1166.1 1015.67 1164.08 1015.52 1162.13 1015.22C1160.18 1015.07 1158.31 1015 1156.51 1015H1150.67C1148.58 1015 1147.15 1014.03 1146.41 1012.08C1145.66 1010.13 1145.28 1007.51 1145.28 1004.22C1145.28 1002.12 1145.88 1000.1 1147.08 998.154C1148.28 996.208 1150.37 995.085 1153.37 994.785L1168.19 992.764C1170.29 992.614 1171.49 991.715 1171.79 990.068C1172.24 988.271 1172.61 986.849 1172.91 985.801L1174.03 983.555C1175.08 981.758 1175.83 980.335 1176.28 979.287C1176.73 978.089 1177.03 977.041 1177.18 976.143C1177.48 975.094 1177.63 973.971 1177.63 972.773C1177.78 971.576 1178 970.003 1178.3 968.057L1179.42 963.34L1178.3 957.5V944.697L1176.73 932.568L1179.42 922.236C1179.12 919.691 1178.9 917.22 1178.75 914.824C1178.75 912.279 1178.75 909.658 1178.75 906.963C1178.75 904.417 1178.75 901.872 1178.75 899.326C1178.9 896.631 1179.12 894.01 1179.42 891.465C1180.02 890.117 1180.32 888.994 1180.32 888.096C1180.47 887.048 1180.55 885.475 1180.55 883.379C1180.4 883.079 1179.72 882.256 1178.53 880.908C1177.33 879.411 1176.73 878.512 1176.73 878.213C1176.43 877.764 1176.05 876.79 1175.61 875.293C1175.31 873.646 1174.93 871.924 1174.48 870.127C1174.18 868.33 1173.88 866.608 1173.58 864.961C1173.28 863.314 1173.06 862.266 1172.91 861.816C1172.76 861.667 1172.31 861.217 1171.56 860.469C1170.96 859.72 1170.29 858.971 1169.54 858.223C1168.79 857.474 1168.04 856.8 1167.29 856.201C1166.7 855.452 1166.32 855.003 1166.17 854.854C1166.17 854.704 1166.02 854.03 1165.72 852.832C1165.42 851.634 1165.05 851.035 1164.6 851.035C1164.3 850.586 1163.93 849.987 1163.48 849.238C1163.03 848.34 1162.65 847.741 1162.35 847.441C1161.9 847.292 1161.01 847.067 1159.66 846.768C1158.31 846.318 1156.89 845.944 1155.39 845.645C1154.04 845.345 1152.7 845.046 1151.35 844.746C1150.15 844.447 1149.33 844.222 1148.88 844.072H1145.96C1137.27 844.072 1129.64 845.27 1123.05 847.666C1116.61 849.912 1110.17 853.88 1103.73 859.57C1103.13 860.02 1102.31 860.768 1101.26 861.816C1100.21 862.865 1099.16 863.913 1098.12 864.961C1097.07 866.009 1096.09 866.982 1095.2 867.881C1094.45 868.63 1094.07 869.079 1094.07 869.229C1093.92 869.378 1093.77 869.902 1093.62 870.801C1093.47 871.699 1093.32 872.673 1093.17 873.721C1093.02 874.769 1092.87 875.742 1092.72 876.641C1092.72 877.539 1092.72 878.063 1092.72 878.213C1092.13 880.309 1091.53 882.331 1090.93 884.277C1090.33 886.224 1090.03 888.47 1090.03 891.016C1090.03 895.358 1090.25 899.102 1090.7 902.246C1091.3 905.391 1091.6 908.91 1091.6 912.803C1091.6 915.199 1091.23 917.37 1090.48 919.316C1089.73 921.113 1089.36 923.734 1089.36 927.178L1091.6 943.125L1089.36 954.355V957.5C1089.65 957.799 1089.95 958.773 1090.25 960.42C1090.7 962.067 1090.93 963.04 1090.93 963.34V977.715L1091.6 982.432C1091.75 982.881 1092.2 983.48 1092.95 984.229C1093.7 984.827 1094.52 985.501 1095.42 986.25C1096.32 986.849 1097.14 987.448 1097.89 988.047C1098.64 988.496 1099.16 988.796 1099.46 988.945C1099.76 989.245 1100.36 989.619 1101.26 990.068C1102.31 990.368 1103.43 990.742 1104.63 991.191C1105.83 991.491 1106.95 991.79 1108 992.09C1109.2 992.389 1110.09 992.614 1110.69 992.764C1111.89 993.363 1112.94 993.737 1113.84 993.887C1114.74 994.036 1115.56 994.186 1116.31 994.336C1117.21 994.336 1117.96 994.486 1118.55 994.785C1119.3 995.085 1120.05 995.758 1120.8 996.807C1121.25 997.256 1121.77 997.555 1122.37 997.705C1122.97 997.705 1123.5 997.855 1123.95 998.154C1124.54 998.304 1124.99 998.604 1125.29 999.053C1125.59 999.502 1125.74 1000.25 1125.74 1001.3L1126.19 1006.46C1126.19 1007.66 1125.97 1008.71 1125.52 1009.61C1125.07 1010.36 1124.02 1011.26 1122.37 1012.3C1121.03 1013.05 1119.9 1013.95 1119 1015C1118.26 1016.05 1117.06 1016.57 1115.41 1016.57C1113.76 1016.57 1112.12 1016.87 1110.47 1017.47C1108.82 1018.22 1107.62 1018.59 1106.88 1018.59H1104.18C1097.89 1017.55 1091.3 1016.35 1084.41 1015C1077.68 1013.5 1070.86 1012.75 1063.97 1012.75L1058.13 1013.43Z" fill="white"/>
</svg>
