<svg width="539" height="560" viewBox="0 0 539 560" fill="none" xmlns="http://www.w3.org/2000/svg">
<path d="M270.545 0.944898C283.85 -2.38573 301.158 3.88132 313.328 7.46991C314.991 7.96061 320.704 6.87495 324.021 7.09473C335.829 7.7473 347.812 16.8259 358.733 20.647C387.379 30.6703 413.814 43.3459 436.24 64.2627C440.221 67.7503 447.316 71.3286 450.683 75.0943C469.379 96.0111 487.003 115.268 500.088 140.588C503.824 147.815 500.084 151.051 508.215 158.679C510.234 160.572 522.407 183.68 522.533 185.23C526.018 227.829 541.368 268.83 538.687 312.138C537.174 333.593 524.024 358.607 516.454 377.799C503.995 409.38 490.837 441.154 467.548 466.089C463.429 470.43 456.556 475.088 452.29 479.481C448.66 483.218 438.06 497.558 434.459 499.021C416.827 506.185 405.943 518.615 389.954 528.327C370.328 539.009 345.09 545.379 324.008 552.883C307.289 558.834 292.061 555.983 275.002 557.584C275.002 557.584 272.543 559.769 272.283 560C257.574 559.804 241.831 559.115 227.396 556.244C222.208 555.212 215.726 554.199 210.914 552.056C208.394 550.934 206.507 548.689 203.826 547.815C199.186 546.302 194.187 545.635 189.46 544.188C171.669 538.742 155.396 532.695 138.598 524.741C132.664 521.932 126.27 519.344 120.906 515.525C113.97 510.587 93.307 488.823 89.3283 487.747C81.0707 485.513 63.5471 457.939 56.5632 450.687C54.5404 448.587 51.4435 447.258 49.0447 445.618C35.6155 436.44 11.1529 366.195 7.49639 347.963C-0.411113 308.543 -1.30979 288.153 1.34134 248.146C2.00163 238.18 -0.39815 236.905 2.87437 225.361C6.61966 212.146 14.7586 200.548 19.0484 187.514C20.1306 184.225 18.5667 181.476 19.4344 178.573C21.3854 172.04 25.8219 165.507 28.7164 159.28C30.9895 154.387 32.3559 148.987 34.4226 143.978C38.6137 133.823 44.3967 123.775 50.5248 114.673C54.7928 108.334 60.0831 102.877 64.8826 96.95C95.4624 59.1883 118.732 47.1396 160.793 26.0779C173.413 19.7583 185.727 12.1935 199.618 9.05414C223.082 3.75164 247.216 5.51847 270.545 0.944898ZM305.358 509.59C308.695 504.792 322.67 483.735 325.541 481.323C331.234 470.963 332.018 461.083 335.714 450.319C337.125 446.207 341.478 444.166 343.4 440.425C347.729 431.999 353.321 407.889 352.196 398.549L351.253 397.672L350.648 397.895C344.513 400.089 337.27 400.481 330.85 401.65C322.884 403.101 313.894 406.456 305.89 406.757C283.998 407.582 261.987 400.834 240.143 405.906C225.882 398.932 199.618 405.265 188.765 396.57C186.337 394.627 183.821 393.027 180.616 392.756C178.415 393.405 176.317 394.218 174.005 393.758L172.288 395.18C173.302 407.089 181.965 431.803 187.203 442.887C195.118 459.641 216.414 495.043 230.152 506.699C236.507 512.09 245.143 515.982 253.673 515.057C255.631 514.844 257.804 513.317 259.45 512.297C263.072 513.418 267.293 515.095 271.067 515.379C277.428 515.858 298.195 511.232 305.358 509.59ZM113.429 320.511C120.685 325.946 125.298 323.088 128.188 330.818C139.426 335.808 150.395 333.777 159.951 343.581C161.106 344.765 183.404 349.001 186.909 349.062C192.271 341.105 182.897 331.729 180.356 322.059C173.51 296.013 179.33 269.54 184.982 244.035C185.803 240.332 188.588 239.159 188.217 234.212C187.275 231.756 182.583 228.873 180.243 228.613L179.89 228.822C173.796 232.363 145.407 241.891 137.879 244.197C109.898 252.765 93.5074 272.926 67.2345 284.101C65.2756 284.911 62.9656 287.81 61.9512 289.687C61.1323 306.027 102.213 310.51 113.429 320.511ZM479.275 228.969C479.577 227.57 479.856 226.165 480.112 224.756C481.912 214.984 461.856 156.062 454.54 145.03C453.366 143.26 446.584 137.008 444.854 134.309C425.762 104.538 402.823 87.144 371.357 72.0114C368.635 70.7027 366.208 70.9768 363.091 69.4906C364.667 74.1026 375.28 103.808 378.066 106.276C391.005 117.737 380.679 115.328 387.256 128.92C389.581 133.727 395.668 136.329 392.636 143.074C392.377 143.651 399.097 152.926 399.603 154.328C406.903 184.132 392.439 193.856 430.702 200.101C434.78 200.767 446.764 218.387 454.3 216.755C462.463 217.596 470.809 224.335 478.114 227.175L479.275 228.969ZM390.756 436.375C388.459 450.571 381.175 469.172 375.002 482.245L375.71 483.177L376.818 483.068L377.183 482.758C382.253 478.498 388.341 477.871 393.29 474.217C396.762 471.654 399.599 468.208 402.975 465.491C408.049 461.41 414.516 457.778 419.006 453.142C421.219 450.856 422.066 447.325 424.341 445.137C427.058 442.523 431.523 442.83 434.269 440.277C446.537 428.866 452.953 409.351 460.124 394.706C466.054 382.597 474.327 366.084 475.574 352.596C475.714 351.08 475.67 349.583 475.506 348.073C473.867 346.84 472.241 345.814 470.434 344.842C453.946 353.347 438.455 364.166 421.884 372.565C418.703 374.176 414.663 372.889 411.667 374.978C408.839 376.95 406.89 380.405 405.861 383.621C399.935 402.117 405.938 420.829 390.756 436.375ZM379.4 235.114C382.668 239.944 384.79 251.605 386.704 257.966C384.693 265.145 384.993 265.389 386.202 272.379C389.596 292.004 385.307 310.28 380.305 329.173C379.421 332.511 378.281 334.101 379.745 337.176C388.415 341.998 406.753 328.106 413.101 327.257C427.271 325.364 424.555 325.26 435.694 316.192L437.836 318.128C440.578 317.006 443.83 315.437 446.722 315.25C456.687 298.718 468.596 302.247 481.36 285.386C480.296 284.229 471.885 274.528 471.254 274.24C465.03 271.392 449.682 260.88 443.37 260.768C426.473 260.468 416.787 235.811 399.275 240.651C397.943 241.019 392.574 237.285 391.38 236.407C382.596 235.305 387.669 239.137 379.4 235.114ZM54.7708 343.889C62.0979 366.892 63.3925 391.373 77.6216 411.877C81.2572 417.117 88.267 419.794 91.8746 425.003C95.7596 430.612 96.769 440.768 103.061 444.077C106.656 445.968 109.67 447.062 111.672 450.805C111.648 453.155 111.269 454.029 112.979 455.822C116.272 459.275 121.599 460.55 125.402 463.376C127.984 465.295 126.656 468.257 129.637 470.37C139.723 477.515 152.418 481.277 161.833 489.377C162.244 489.731 162.668 490.011 163.134 490.287L165.166 489.611C165.448 484.032 154.751 468.642 151.772 463.009C143.641 447.635 135.676 433.843 129.828 417.342C127.482 410.722 121.752 380.92 119.464 378.039C119.157 377.652 118.799 377.374 118.429 377.058C107.305 367.539 93.1194 364.283 80.6188 357.223C76.1295 354.686 72.3882 350.648 67.817 348.37C64.3251 346.629 58.556 344.639 54.7708 343.889ZM55.4062 234.791C55.863 234.866 60.2576 235.58 60.2576 235.58C80.2807 224.679 100.516 213.548 119.111 200.243C129.252 189.89 127.401 166.31 132.054 152.672C137.745 135.987 144.146 123.651 151.421 108.156C152.387 106.101 159.736 82.852 159.761 82.2749L159.216 81.8912C117.417 88.0481 43.3724 192.386 54.6891 234.832L55.4062 234.791ZM193.498 112.522C191.973 117.175 185.881 129.698 186.415 132.001C185.805 141.439 166.449 169.787 176.024 180.01C180.38 181.788 210.849 170.247 218.392 170.023C220.223 168.597 228.002 173.235 228.829 172.701C242.455 163.898 255.052 167.651 271.22 168.515C287.105 169.364 303.353 169.687 320.083 169.5C326.763 173.65 326.316 170.747 333.004 171.245C338.446 171.649 349.835 177.667 354.854 175.437C355.13 165.128 343.914 140.507 340.2 129.679C338.512 124.76 332.678 117.265 330.734 111.571C323.949 91.7041 315.9 69.2215 301.025 53.9075C295.515 48.6367 266.697 44.8819 257.865 47.0827C254.41 47.9439 234.976 50.7607 232.513 53.2496C220.771 65.1129 209.605 85.8522 200.106 100.255C197.225 104.624 197.575 107.326 193.685 112.287L193.498 112.522ZM218.198 283.106L224.684 291.078C240.695 296.049 261.028 301.557 269.367 316.223C273.456 323.416 283.224 350.717 286.769 353.931C301.685 348.802 300.735 313.937 313.972 305.419C325.199 298.194 337.43 293.616 348.614 286.454C351.44 284.644 351.865 283.677 351.621 280.585C343.919 269.852 318.763 266.501 309.212 258.095C300.86 250.743 292.394 217.567 284.287 212.22C270.728 223.438 270.457 250.177 261.299 259.109C252.407 267.782 231.677 272.558 218.198 283.106Z" fill="black"/>
</svg>
