<svg width="1200" height="1200" viewBox="0 0 1200 1200" fill="none" xmlns="http://www.w3.org/2000/svg">
<path d="M519.364 18.3618C524.109 17.9519 529.592 17.2261 533.477 20.602C534.054 21.1219 534.57 21.7174 534.995 22.3729C543.079 34.922 519.647 79.884 510.905 91.2662C510.875 91.3097 510.713 100.897 509.034 103.845C495.361 127.938 510.41 140.323 512.615 163.355C519.586 170.326 521.336 178.54 528.783 188.44C536.341 200.437 553.277 210.895 560.4 221.517C566.44 230.537 571.62 233.907 578.682 242.011C590.934 256.081 603.156 269.478 616.026 282.987C633.236 302.324 652.985 320.639 669.567 340.492C684.025 359.644 697.896 374.353 715.612 390.521C723.443 397.668 739.287 420.487 748.059 426.618C763.386 437.331 767.848 448.09 780.778 460.524C791.402 470.737 805.202 479.203 815.147 490.447C820.914 496.959 825.386 508.828 831.123 515.829C842.859 532.796 856.164 547.755 865.37 566.569C866.443 568.765 865.411 573.627 863.974 576.192C851.449 585.767 828.492 554.231 808.561 553.509L808.116 553.496C807.033 552.072 805.92 550.701 804.767 549.325C801.823 544.181 783.621 537.872 781.163 533.129C774.991 521.223 765.754 514.429 757.124 504.211L736.413 479.674C732.528 474.994 732.022 471.326 726.023 468.931C718.364 458.001 703.613 443.158 694.487 432.579C676.892 412.165 658.539 392.414 640.115 372.736C634.278 366.506 629.128 357.374 623.108 351.212C616.188 344.125 607.011 336.248 599.868 329.083C599.666 328.597 598.522 323.955 598.401 323.846C583.458 310.495 570.973 295.409 557.122 281.153C538.739 262.232 521.316 240.522 501.182 223.613C489.622 213.903 484.944 211.744 475.953 199.266C466.227 197.541 464.754 195.598 457.255 189.008C443.184 194.532 449.045 190.051 437.913 188.68C423.735 187.762 415.004 188.898 400.506 190.802C383.212 193.35 377.894 213.31 360.119 209.955C360.462 210.02 333.752 225.883 334.193 202.73C334.356 194.18 342.395 180.178 345.329 171.436C348.872 160.88 354.648 150.04 362.926 142.519C367.757 126.581 367.333 92.8455 359.893 77.6207C359.345 76.4876 357.107 68.4553 356.461 68.1083C347.929 63.515 334.064 31.2412 341.791 23.1968C352.23 12.3281 397.218 38.4551 406.907 46.5338C415.705 46.5824 444.235 51.1312 452.472 45.8803C462.514 39.4789 462.079 46.0755 472.584 42.8865C480.745 40.4098 490.386 28.6512 497.99 25.0902C507.172 20.7889 508.275 24.3065 519.364 18.3618ZM466.08 151.705C466.17 140.666 460.214 127.632 462.085 114.919C463.382 106.095 471.332 93.8087 468.927 86.7234C463.488 84.2133 444.287 91.8499 438.211 91.5383C426.084 90.9181 412.815 85.6095 400.427 82.0411C398.914 89.0079 408.986 113.97 406.877 124.799C405.175 133.54 397.741 142.567 399.395 149.988C404.56 152.82 421.663 144.197 431.055 144.521C439.999 144.83 460.377 153.925 466.08 151.705Z" fill="white"/>
<path d="M689.097 153.459C698.982 157.582 717.406 187.904 721.736 195.462C723.092 197.821 728.97 205.48 731.085 208.228C736.012 214.617 738.905 221.852 742.973 227.824C757.198 248.729 770.229 267.88 778.09 291.772C778.869 294.125 777.483 298.797 777.726 299.863C780.063 309.013 780.954 317.323 780.003 326.715C778.404 342.651 778.677 367.735 781.449 384.242C782.663 391.461 783.27 412.407 776.613 417.087C770.947 418.533 763.875 412.113 761.154 407.481C756.965 403.963 751.977 394.579 747.768 390.223C733.978 375.944 710.212 348.305 699.154 331.656C696.534 327.698 672.93 302.285 670.167 297.621C667.567 293.238 666.404 288.382 664.987 283.493C660.708 268.297 661.084 258.578 664.392 243.887C664.666 242.664 663.573 238.751 663.795 237.152C664.635 231.144 668.064 224.901 668.864 218.777C668.864 218.777 670.088 216.807 670.594 215.795C671.606 212.76 671.606 213.266 672.223 211.161C672.244 192.951 677.068 175.758 681.924 158.255C682.582 155.896 686.902 154.318 689.097 153.459Z" fill="white"/>
<path d="M426.627 229.403C431.38 226.295 440.682 231.742 445.894 231.589C450.066 231.466 453.87 228.977 458.263 229.429C464.912 230.114 472.626 237.035 477.6 241.45C483.347 246.553 516.897 282.52 519.555 288.191C520.847 290.931 520.065 293.611 522.149 296.447C524.818 297.288 527.358 297.285 530.125 297.304C533.836 299.793 534.802 306.383 535.92 310.705C537.797 312.15 539.609 312.732 541.725 313.607C548.562 316.445 554.128 327.804 559.326 333.607C562.658 337.328 567.367 339.129 570.406 342.599C571.816 344.213 572.836 346.388 573.65 348.407C575.115 352.09 575.517 355.235 574.117 358.981C571.545 360.023 568.886 360.388 566.174 360.757C557.84 361.886 549.549 360.816 541.226 361.669C531.514 362.661 522.236 366.185 512.393 366.036C510.408 366.102 477.049 357.716 472.659 356.429C461.201 353.068 450.371 350.056 444.191 338.395C417.649 330.101 408.023 298.873 390.721 278.657C388.098 275.593 386.476 277.148 383.596 275.398C379.306 272.789 369.104 258.323 365.815 253.563C363.536 250.264 361.869 247.387 362.759 243.124C363.799 238.149 369.555 235.773 373.352 233.533C377.616 234.228 382.153 235.207 386.467 235.203C394.307 235.195 419.787 232.28 426.627 229.403Z" fill="white"/>
<path d="M573.153 384.408C577.833 383.586 582.8 386.27 587.49 386.573C589.935 386.731 592.352 385.524 594.778 385.325C617.329 383.475 641.064 422.68 654.723 436.821C660.778 443.092 669.012 447.533 675.602 453.34C678.773 456.137 683.062 460.274 683.234 464.72C683.31 466.647 682.603 468.417 681.18 469.776C672.345 478.212 663.863 471.939 657.607 472.799C646.862 474.279 636.489 478.603 625.715 479.995C620.156 480.714 614.1 480.203 608.484 480.029C604.396 477.128 600.384 478.306 595.723 477.927C591.272 477.566 586.162 475.193 581.979 473.669C575.073 471.161 567.805 468.54 561.52 464.713C551.443 458.572 543.037 449.373 534.441 441.415C528.472 435.887 521.652 430.278 515.424 425.005C509.025 419.584 501.603 416.497 495.917 409.694C494.066 407.478 493.89 406.026 494.125 403.297C495.578 400.838 498.136 399.656 500.763 398.743C507.812 396.295 515.644 397.207 522.664 395.136C530.917 392.699 538.233 387.265 546.925 386.018C556.066 384.708 563.774 388.874 572.838 384.562L573.153 384.408Z" fill="white"/>
<path d="M577.775 39.3398C579.626 40.4325 581.892 42.0958 583.258 43.7247C588.115 49.5049 590.391 59.0163 594.499 65.0513C601.844 75.8608 610.12 86.1766 617.698 96.8454C617.617 96.724 618.427 103.911 619.074 104.573C624.527 108.849 632.935 116.493 634.938 124.032C641.717 149.538 638.135 178.7 635.434 204.63C635.384 206.805 628.949 216.57 629.343 217.728C632.449 226.833 634.068 255.719 615.745 245.803C611.466 239.714 608.168 238.479 603.503 233.163C601.53 230.905 598.202 219.79 596.158 218.24C589.298 213.039 586.051 216.068 581.892 207.226C573.444 190.463 555.445 181.245 548.991 162.495C542.374 143.247 546.239 129.334 550.306 110.338C555.091 88.0088 561.121 66.0995 569.63 44.8377C571.077 41.2267 574.385 40.4851 577.775 39.3398Z" fill="white"/>
<path d="M140 1003.32C140 1002.72 140.299 1002.05 140.898 1001.3C141.497 1000.4 142.171 999.652 142.92 999.053C143.669 998.304 144.417 997.705 145.166 997.256C146.064 996.807 146.663 996.507 146.963 996.357C147.113 996.208 147.562 996.058 148.311 995.908C149.059 995.758 149.808 995.609 150.557 995.459C151.455 995.309 152.204 995.16 152.803 995.01C153.551 994.86 154.076 994.785 154.375 994.785C154.974 994.486 156.022 994.261 157.52 994.111C159.017 993.812 159.84 993.662 159.99 993.662L176.387 988.271C178.932 983.929 180.43 980.111 180.879 976.816C181.328 973.522 181.553 969.779 181.553 965.586L180.205 949.414C180.205 947.767 180.355 946.569 180.654 945.82C181.104 944.922 181.628 943.499 182.227 941.553L183.35 925.156L181.553 910.781C182.152 908.086 182.526 905.316 182.676 902.471C182.975 899.626 183.125 896.855 183.125 894.16C183.125 890.267 182.9 886.374 182.451 882.48C182.152 878.587 181.852 874.694 181.553 870.801C180.355 869.004 179.382 866.982 178.633 864.736C177.884 862.34 176.986 860.094 175.938 857.998C175.039 855.902 173.916 853.955 172.568 852.158C171.221 850.361 169.424 849.089 167.178 848.34C164.782 847.292 162.386 846.693 159.99 846.543C157.594 846.393 155.423 846.318 153.477 846.318C150.182 846.318 147.188 845.944 144.492 845.195C141.797 844.297 139.85 841.826 138.652 837.783C138.652 835.687 139.775 833.89 142.021 832.393C144.268 830.745 146.888 829.398 149.883 828.35C153.027 827.152 156.097 826.253 159.092 825.654C162.087 824.906 164.333 824.307 165.83 823.857C166.13 823.708 166.803 823.408 167.852 822.959C168.9 822.51 169.948 822.061 170.996 821.611C172.194 821.012 173.317 820.413 174.365 819.814C175.563 819.066 176.387 818.467 176.836 818.018C176.986 817.718 177.135 817.044 177.285 815.996C177.435 815.098 177.585 813.825 177.734 812.178C177.884 810.531 177.959 808.21 177.959 805.215L180.205 799.824V790.84C180.205 790.69 180.28 790.241 180.43 789.492C180.729 788.743 181.029 787.995 181.328 787.246C181.777 786.348 182.077 785.599 182.227 785C182.526 784.251 182.676 783.877 182.676 783.877C184.323 779.535 185.446 775.117 186.045 770.625C186.644 766.133 187.318 761.491 188.066 756.699C188.216 756.25 188.366 755.651 188.516 754.902C188.815 754.004 189.115 753.105 189.414 752.207C189.714 751.309 190.013 750.56 190.312 749.961C190.612 749.212 190.911 748.688 191.211 748.389C191.361 747.79 191.96 746.442 193.008 744.346C194.056 742.1 195.179 739.779 196.377 737.383C197.575 734.987 198.773 732.741 199.971 730.645C201.318 728.398 202.292 726.826 202.891 725.928C204.238 723.232 205.511 721.061 206.709 719.414C208.057 717.767 209.404 716.344 210.752 715.146C212.249 713.799 213.822 712.676 215.469 711.777C217.116 710.729 218.988 709.606 221.084 708.408C223.63 707.36 226.1 705.863 228.496 703.916C230.892 701.969 232.988 700.472 234.785 699.424L235.684 698.975C235.983 698.825 236.283 698.6 236.582 698.301C236.882 698.301 237.48 698.301 238.379 698.301C239.277 698.151 240.176 698.076 241.074 698.076C242.122 697.926 243.021 697.777 243.77 697.627C244.668 697.477 245.117 697.327 245.117 697.178L253.652 691.338C254.701 690.889 255.898 690.589 257.246 690.439C258.594 690.14 259.941 689.915 261.289 689.766C262.637 689.466 263.835 689.242 264.883 689.092C266.081 688.792 266.904 688.493 267.354 688.193L271.172 687.07C275.964 685.872 280.83 685.049 285.771 684.6C290.713 684.15 295.43 683.926 299.922 683.926L324.854 687.07L331.816 687.52L335.41 688.193C338.105 689.84 340.876 691.263 343.721 692.461C346.566 693.659 349.111 695.081 351.357 696.729C353.753 698.376 355.7 700.547 357.197 703.242C358.695 705.788 359.443 709.232 359.443 713.574C359.443 716.419 358.695 719.863 357.197 723.906C355.85 727.949 353.005 731.693 348.662 735.137L340.801 735.586C340.202 735.586 339.453 735.586 338.555 735.586C337.656 735.586 336.758 735.511 335.859 735.361C334.811 735.361 333.613 735.286 332.266 735.137C331.367 735.137 330.094 734.987 328.447 734.688C326.95 734.238 325.378 733.864 323.73 733.564C322.083 733.115 320.511 732.741 319.014 732.441C317.666 731.992 316.768 731.618 316.318 731.318C316.019 731.169 315.495 730.794 314.746 730.195C314.147 729.447 313.398 728.623 312.5 727.725C311.602 726.826 310.703 725.928 309.805 725.029C309.056 723.981 308.382 723.083 307.783 722.334L304.189 714.922L299.922 704.814C299.772 704.814 299.622 704.74 299.473 704.59C299.323 704.44 299.098 704.365 298.799 704.365C298.649 704.365 298.499 704.29 298.35 704.141C297.751 703.991 297.227 703.766 296.777 703.467C296.178 703.167 295.28 702.943 294.082 702.793C293.034 702.493 291.836 702.344 290.488 702.344C289.29 702.194 288.167 702.119 287.119 702.119C286.071 701.969 285.322 701.895 284.873 701.895C284.124 701.895 283.151 701.969 281.953 702.119C280.905 702.119 279.782 702.194 278.584 702.344C277.386 702.344 276.338 702.493 275.439 702.793C274.541 702.943 274.017 703.167 273.867 703.467C273.118 703.467 271.771 703.841 269.824 704.59C268.027 705.339 266.081 706.162 263.984 707.061C261.888 707.959 259.867 708.857 257.92 709.756C255.973 710.505 254.551 711.104 253.652 711.553C253.053 711.852 252.305 712.451 251.406 713.35C250.658 714.248 250.133 714.772 249.834 714.922C249.834 715.072 249.684 715.446 249.385 716.045C249.085 716.494 248.711 717.018 248.262 717.617C247.812 718.216 247.363 718.815 246.914 719.414C246.615 719.863 246.465 720.088 246.465 720.088C246.016 720.986 245.417 721.585 244.668 721.885C243.919 722.184 243.096 722.484 242.197 722.783C241.449 722.933 240.7 723.232 239.951 723.682C239.202 723.981 238.604 724.73 238.154 725.928C237.855 726.227 237.181 726.901 236.133 727.949C235.234 728.997 234.785 729.896 234.785 730.645C234.336 730.794 233.812 731.543 233.213 732.891C232.614 734.238 232.314 734.987 232.314 735.137C232.314 735.436 232.24 735.96 232.09 736.709C231.94 737.308 231.79 738.057 231.641 738.955C231.491 739.704 231.341 740.452 231.191 741.201C231.191 741.95 231.191 742.399 231.191 742.549C230.892 743.597 230.592 744.795 230.293 746.143C230.143 747.34 230.068 748.089 230.068 748.389L224.902 756.699V762.539C224.753 763.438 224.603 764.261 224.453 765.01C224.303 765.758 224.154 766.432 224.004 767.031C224.004 767.48 223.929 767.855 223.779 768.154L222.656 772.871V785.674L221.758 787.021C221.458 787.62 221.309 787.92 221.309 787.92C221.159 788.07 221.084 788.219 221.084 788.369C219.886 791.963 219.137 795.632 218.838 799.375C218.538 803.118 218.389 806.862 218.389 810.605C218.389 814.049 219.287 816.969 221.084 819.365C223.031 821.611 225.726 822.734 229.17 822.734C229.619 822.734 230.218 822.734 230.967 822.734C231.715 822.734 232.165 822.585 232.314 822.285C232.764 822.285 233.512 822.135 234.561 821.836C235.758 821.536 236.432 821.312 236.582 821.162C239.128 820.563 241.748 820.189 244.443 820.039C247.139 819.74 249.759 819.515 252.305 819.365C255 819.066 257.62 818.766 260.166 818.467C262.712 818.018 265.107 817.344 267.354 816.445L273.867 814.199C275.964 814.499 278.21 815.397 280.605 816.895C283.001 818.242 284.424 819.29 284.873 820.039C285.771 820.788 286.296 821.836 286.445 823.184C286.595 824.382 286.67 825.654 286.67 827.002C286.67 829.248 286.52 831.719 286.221 834.414C285.921 836.96 285.247 839.43 284.199 841.826C283.301 844.072 281.878 846.019 279.932 847.666C278.135 849.163 275.739 849.912 272.744 849.912C271.995 849.912 271.396 849.762 270.947 849.463C267.354 848.415 263.535 847.367 259.492 846.318C255.599 845.27 252.005 844.746 248.711 844.746C246.315 844.746 243.77 844.896 241.074 845.195C238.379 845.495 236.283 846.543 234.785 848.34L228.496 859.121C228.496 859.421 228.271 859.87 227.822 860.469C227.523 861.068 227.148 861.742 226.699 862.49C226.25 863.089 225.801 863.763 225.352 864.512C225.052 865.111 224.902 865.635 224.902 866.084C224.902 867.731 225.426 869.528 226.475 871.475C227.523 873.421 228.047 875.443 228.047 877.539C228.047 879.785 227.448 881.807 226.25 883.604C225.202 885.251 224.678 887.048 224.678 888.994C224.678 891.54 225.277 893.861 226.475 895.957C227.822 898.053 228.496 900.299 228.496 902.695L223.779 920.215V927.852C224.229 929.349 224.827 930.996 225.576 932.793C226.475 934.44 226.924 936.986 226.924 940.43C226.924 942.376 226.774 944.248 226.475 946.045C226.175 947.692 225.651 949.788 224.902 952.334C224.603 953.382 224.303 954.281 224.004 955.029C223.854 955.778 223.779 956.826 223.779 958.174L227.598 967.607C227.598 967.907 227.373 968.581 226.924 969.629C226.624 970.677 225.876 973.372 224.678 977.715C224.827 978.014 225.052 978.389 225.352 978.838C225.501 979.587 225.801 980.111 226.25 980.41C227.747 982.806 229.469 984.453 231.416 985.352C233.512 986.1 235.908 986.774 238.604 987.373L241.748 988.271C242.048 988.271 242.796 988.346 243.994 988.496C245.342 988.496 246.764 988.571 248.262 988.721C249.909 988.87 251.406 989.02 252.754 989.17C254.251 989.17 255.225 989.245 255.674 989.395C255.824 989.395 256.423 989.694 257.471 990.293C258.519 990.742 259.642 991.341 260.84 992.09C262.038 992.839 263.161 993.587 264.209 994.336C265.407 995.085 266.156 995.758 266.455 996.357L266.23 1003.32V1003.99C266.23 1004.14 266.305 1004.22 266.455 1004.22C266.156 1005.27 265.931 1006.17 265.781 1006.91C265.632 1007.66 265.482 1008.34 265.332 1008.94C265.332 1009.53 265.332 1009.91 265.332 1010.06C262.337 1011.71 259.642 1012.75 257.246 1013.2C255 1013.65 252.529 1013.88 249.834 1013.88H234.785L223.779 1015L186.494 1012.98C183.35 1012.98 180.28 1013.13 177.285 1013.43C174.44 1013.73 171.595 1014.03 168.75 1014.33L161.562 1015H145.615C144.417 1015 143.444 1014.63 142.695 1013.88C142.096 1012.98 141.572 1011.93 141.123 1010.73C140.674 1009.38 140.374 1008.04 140.225 1006.69C140.075 1005.34 140 1004.22 140 1003.32ZM404.59 988.496C403.991 988.796 403.018 989.694 401.67 991.191C400.472 992.539 399.499 993.213 398.75 993.213L390.215 997.48C389.915 997.63 389.391 998.005 388.643 998.604C388.044 999.053 387.295 999.652 386.396 1000.4C385.648 1001 384.974 1001.6 384.375 1002.2C383.776 1002.65 383.402 1002.87 383.252 1002.87C382.952 1003.02 382.354 1003.17 381.455 1003.32C380.706 1003.47 379.808 1003.62 378.76 1003.77C377.861 1003.92 376.963 1004.07 376.064 1004.22C375.316 1004.22 374.717 1004.22 374.268 1004.22C373.07 1004.52 371.947 1005.04 370.898 1005.79C370 1006.54 369.027 1007.44 367.979 1008.49C367.08 1009.38 366.032 1010.36 364.834 1011.41C363.636 1012.3 362.288 1013.13 360.791 1013.88H339.453C338.704 1013.88 337.656 1013.73 336.309 1013.43C335.111 1013.13 333.763 1012.75 332.266 1012.3C330.918 1011.86 329.57 1011.33 328.223 1010.73C326.875 1010.13 325.827 1009.61 325.078 1009.16C325.078 1008.86 324.629 1008.19 323.73 1007.14C322.982 1005.94 322.533 1004.97 322.383 1004.22C322.083 1003.92 321.859 1003.54 321.709 1003.1C321.26 1002.65 321.035 1002.2 321.035 1001.75L314.971 995.908C313.773 993.512 312.725 990.518 311.826 986.924C311.077 983.18 310.703 980.111 310.703 977.715L312.275 972.998L310.703 968.281V965.586C310.703 964.837 310.853 963.864 311.152 962.666C311.602 961.318 312.051 960.046 312.5 958.848C312.949 957.5 313.398 956.302 313.848 955.254C314.297 954.056 314.671 953.232 314.971 952.783C315.12 952.633 315.645 952.109 316.543 951.211C317.591 950.163 318.714 949.04 319.912 947.842C321.11 946.494 322.158 945.296 323.057 944.248C324.105 943.2 324.779 942.451 325.078 942.002C325.228 942.002 325.752 941.478 326.65 940.43C327.699 939.382 328.223 938.708 328.223 938.408L328.672 937.51C328.822 937.21 328.896 936.911 328.896 936.611C331.442 934.964 333.913 933.242 336.309 931.445C338.704 929.499 341.4 927.852 344.395 926.504C344.544 926.354 345.592 925.905 347.539 925.156C349.635 924.258 351.882 923.359 354.277 922.461C356.823 921.413 359.294 920.514 361.689 919.766C364.085 919.017 365.882 918.493 367.08 918.193C368.577 917.445 370.15 916.471 371.797 915.273C373.444 914.076 375.016 912.952 376.514 911.904C378.161 910.856 379.658 909.958 381.006 909.209C382.354 908.311 383.477 907.861 384.375 907.861H390.215C390.365 907.861 390.814 907.637 391.562 907.188C391.862 907.038 392.236 906.813 392.686 906.514C393.285 906.364 394.707 906.139 396.953 905.84C399.349 905.54 400.921 905.391 401.67 905.391L404.59 901.572C405.638 900.973 406.686 900.524 407.734 900.225C408.783 899.775 409.756 899.326 410.654 898.877C411.553 898.428 412.301 897.829 412.9 897.08C413.649 896.182 414.248 894.984 414.697 893.486C415.745 890.342 416.419 887.048 416.719 883.604C417.168 880.01 417.393 876.641 417.393 873.496V868.555C417.393 868.255 416.943 867.432 416.045 866.084C415.146 864.736 414.697 863.763 414.697 863.164L412.002 851.709L407.061 845.645L404.59 840.928C403.991 840.628 403.392 839.88 402.793 838.682C402.194 837.484 401.82 836.51 401.67 835.762C401.37 834.863 400.247 834.04 398.301 833.291C396.354 832.393 394.183 831.644 391.787 831.045C389.391 830.296 386.995 829.772 384.6 829.473C382.354 829.023 380.781 828.799 379.883 828.799C379.583 828.799 378.385 828.799 376.289 828.799C374.342 828.649 372.695 828.574 371.348 828.574C370 828.574 368.128 828.724 365.732 829.023C363.486 829.173 361.315 829.622 359.219 830.371C357.122 830.97 355.251 831.868 353.604 833.066C352.106 834.264 351.357 835.837 351.357 837.783V839.805C351.507 840.104 351.807 840.778 352.256 841.826C352.705 842.725 353.154 843.773 353.604 844.971C354.053 846.019 354.427 847.067 354.727 848.115C355.176 849.014 355.4 849.613 355.4 849.912C355.4 850.511 355.176 851.41 354.727 852.607C354.427 853.656 354.128 854.779 353.828 855.977C352.78 860.768 351.357 864.437 349.561 866.982C347.764 869.528 344.919 871.999 341.025 874.395L338.33 876.416C337.731 876.865 337.207 877.314 336.758 877.764H319.688C318.34 877.764 317.217 877.24 316.318 876.191C315.42 875.143 314.671 873.945 314.072 872.598C313.473 871.1 313.024 869.678 312.725 868.33C312.425 866.833 312.275 865.71 312.275 864.961C312.275 864.062 312.425 862.865 312.725 861.367C313.024 859.87 313.473 858.447 314.072 857.1C314.671 855.602 315.27 854.255 315.869 853.057C316.618 851.709 317.367 850.661 318.115 849.912C318.564 848.864 319.089 847.965 319.688 847.217C319.987 846.468 320.286 845.869 320.586 845.42C321.035 844.971 321.335 844.671 321.484 844.521L325.078 840.928C328.372 838.831 331.143 836.66 333.389 834.414C335.635 832.168 338.255 829.772 341.25 827.227L356.973 816.895C358.47 815.547 359.818 814.574 361.016 813.975C362.363 813.226 363.711 812.627 365.059 812.178C366.406 811.729 367.754 811.354 369.102 811.055C370.599 810.755 372.321 810.231 374.268 809.482C374.417 809.482 374.792 809.333 375.391 809.033C376.139 808.734 376.888 808.434 377.637 808.135C378.385 807.686 379.134 807.311 379.883 807.012C380.632 806.712 381.156 806.488 381.455 806.338C382.204 806.188 383.626 805.889 385.723 805.439C387.969 804.99 390.29 804.541 392.686 804.092C395.231 803.643 397.627 803.268 399.873 802.969C402.119 802.669 403.691 802.52 404.59 802.52C405.339 802.52 406.012 802.819 406.611 803.418C407.36 803.867 407.884 804.092 408.184 804.092C408.633 804.092 409.307 804.167 410.205 804.316C411.104 804.316 412.002 804.391 412.9 804.541C413.949 804.691 414.847 804.84 415.596 804.99C416.494 804.99 417.093 805.065 417.393 805.215C418.291 805.514 419.489 805.964 420.986 806.562C422.484 807.012 423.981 807.536 425.479 808.135C426.976 808.734 428.324 809.258 429.521 809.707C430.719 810.156 431.468 810.456 431.768 810.605C431.917 810.755 432.292 811.13 432.891 811.729C433.49 812.327 434.163 813.076 434.912 813.975C435.811 814.723 436.634 815.472 437.383 816.221C438.132 816.969 438.656 817.568 438.955 818.018C440.602 820.413 442.249 822.585 443.896 824.531C445.693 826.478 446.966 828.724 447.715 831.27C448.464 832.767 448.988 834.414 449.287 836.211C449.736 837.858 450.111 839.505 450.41 841.152C450.859 842.799 451.383 844.372 451.982 845.869C452.581 847.367 453.555 848.714 454.902 849.912V863.838C454.902 873.721 454.528 883.454 453.779 893.037C453.18 902.471 452.731 912.204 452.432 922.236C451.833 923.734 451.309 925.231 450.859 926.729C450.41 928.076 450.186 929.648 450.186 931.445C450.186 932.793 450.335 934.29 450.635 935.938C451.084 937.585 451.309 938.783 451.309 939.531L449.287 943.799C449.137 944.398 449.062 944.997 449.062 945.596V948.066C449.062 950.312 449.137 952.708 449.287 955.254C449.437 957.799 449.811 960.345 450.41 962.891C451.009 965.436 451.833 967.832 452.881 970.078C454.079 972.324 455.726 974.196 457.822 975.693C458.571 976.292 459.544 977.191 460.742 978.389C462.09 979.437 463.063 979.961 463.662 979.961H464.561C466.058 979.961 467.78 979.736 469.727 979.287C471.673 978.688 473.695 978.089 475.791 977.49C477.887 976.742 479.984 976.068 482.08 975.469C484.326 974.87 486.497 974.57 488.594 974.57C491.439 974.57 492.861 975.469 492.861 977.266C492.861 982.057 491.888 986.699 489.941 991.191C488.145 995.684 485.599 999.727 482.305 1003.32C479.01 1006.76 475.192 1009.61 470.85 1011.86C466.507 1013.95 461.79 1015 456.699 1015C451.608 1015 446.667 1014.78 441.875 1014.33C437.083 1013.73 431.842 1012.38 426.152 1010.28L424.58 1009.16C424.281 1008.86 423.532 1007.96 422.334 1006.46C421.286 1004.82 420.088 1003.1 418.74 1001.3C417.542 999.502 416.419 997.855 415.371 996.357C414.323 994.71 413.724 993.662 413.574 993.213L408.184 988.496H406.611H404.59ZM353.828 954.805C353.828 957.201 354.202 959.971 354.951 963.115C355.85 966.26 357.122 969.255 358.77 972.1C360.417 974.795 362.438 977.116 364.834 979.062C367.23 981.009 369.925 981.982 372.92 981.982C373.519 981.982 374.043 981.908 374.492 981.758C374.941 981.608 376.214 981.009 378.311 979.961L398.75 978.164C399.199 977.865 399.873 977.266 400.771 976.367C401.82 975.319 402.793 974.271 403.691 973.223C404.74 972.174 405.638 971.201 406.387 970.303C407.285 969.404 407.884 968.73 408.184 968.281C408.333 968.281 408.558 967.832 408.857 966.934C409.307 966.035 409.831 964.912 410.43 963.564C411.029 962.217 411.553 960.794 412.002 959.297C412.601 957.799 413.125 956.452 413.574 955.254C413.874 954.505 414.098 953.382 414.248 951.885C414.548 950.387 414.697 949.564 414.697 949.414C414.548 947.767 414.398 946.12 414.248 944.473C414.098 942.826 414.023 941.178 414.023 939.531C414.023 938.034 414.098 936.686 414.248 935.488C414.398 934.141 414.548 932.793 414.697 931.445L416.27 926.504V922.461C416.27 919.915 415.446 917.594 413.799 915.498C412.152 913.402 409.756 912.354 406.611 912.354C404.066 912.354 401.895 912.952 400.098 914.15C398.451 915.199 396.504 916.546 394.258 918.193C393.509 918.643 392.012 919.466 389.766 920.664C387.52 921.712 385.124 922.835 382.578 924.033C380.182 925.081 377.861 926.13 375.615 927.178C373.519 928.226 372.096 928.9 371.348 929.199L367.08 931.445C366.781 931.445 366.182 931.595 365.283 931.895C364.385 932.194 363.936 932.419 363.936 932.568L360.791 938.408L355.4 943.799C354.652 945.446 354.202 947.393 354.053 949.639C353.903 951.735 353.828 953.457 353.828 954.805ZM534.189 1014.33C532.243 1013.58 530.221 1012.15 528.125 1010.06C526.178 1007.81 525.205 1005.19 525.205 1002.2V969.854L524.082 962.891C525.43 958.099 526.628 952.933 527.676 947.393C528.724 941.852 529.248 936.536 529.248 931.445C529.248 930.397 528.949 929.499 528.35 928.75C527.9 928.001 527.301 927.327 526.553 926.729C525.954 925.98 525.355 925.381 524.756 924.932C524.307 924.333 524.082 923.659 524.082 922.91C524.082 917.07 524.232 911.305 524.531 905.615C524.98 899.925 525.205 894.684 525.205 889.893V883.604L524.082 877.764C524.082 873.421 524.531 869.004 525.43 864.512C526.328 860.02 526.777 855.378 526.777 850.586C526.777 848.04 526.628 845.794 526.328 843.848C526.178 841.901 525.43 839.73 524.082 837.334L527.227 812.178L524.531 796.68L526.104 763.662L525.205 753.555C524.456 751.159 524.232 748.538 524.531 745.693C524.831 742.848 524.307 740.303 522.959 738.057C521.761 735.661 520.264 733.49 518.467 731.543C516.67 729.596 514.948 727.949 513.301 726.602C511.204 724.056 508.734 722.334 505.889 721.436C503.044 720.537 499.674 719.339 495.781 717.842L495.332 712.676C498.027 709.382 500.348 706.611 502.295 704.365C504.391 701.969 506.413 699.948 508.359 698.301C510.456 696.654 512.627 695.231 514.873 694.033C517.119 692.686 519.814 691.413 522.959 690.215L532.617 682.803L557.998 679.658C559.196 679.658 560.693 680.332 562.49 681.68C564.437 682.878 566.309 684.375 568.105 686.172C569.902 687.969 571.4 689.915 572.598 692.012C573.945 693.958 574.619 695.68 574.619 697.178C574.619 701.52 573.945 705.563 572.598 709.307C571.4 713.05 570.801 716.644 570.801 720.088C570.801 723.083 570.651 725.553 570.352 727.5C570.202 729.447 569.977 731.318 569.678 733.115C569.528 734.912 569.303 736.784 569.004 738.73C568.854 740.527 568.779 742.699 568.779 745.244L566.533 765.908V801.396C566.533 803.044 566.458 804.541 566.309 805.889C566.159 807.236 565.934 808.958 565.635 811.055C565.186 814.948 564.961 818.392 564.961 821.387C564.961 822.135 565.036 823.109 565.186 824.307C565.485 825.505 565.859 826.702 566.309 827.9C566.758 829.098 567.357 830.146 568.105 831.045C568.854 831.943 569.753 832.393 570.801 832.393C573.646 832.393 576.042 831.868 577.988 830.82C580.085 829.772 582.031 828.499 583.828 827.002C585.625 825.505 587.347 824.007 588.994 822.51C590.791 820.863 592.738 819.515 594.834 818.467C598.128 817.119 601.797 815.996 605.84 815.098C609.883 814.199 614.001 813.525 618.193 813.076C622.536 812.477 626.803 812.028 630.996 811.729C635.339 811.429 639.307 811.279 642.9 811.279C644.697 811.279 646.12 811.504 647.168 811.953C648.216 812.253 649.189 812.627 650.088 813.076C650.986 813.525 651.96 814.049 653.008 814.648C654.056 815.098 655.479 815.472 657.275 815.771L665.811 816.895L668.955 818.467C671.051 820.264 673.372 821.986 675.918 823.633C678.464 825.28 681.009 827.002 683.555 828.799C686.25 830.446 688.796 832.243 691.191 834.189C693.737 836.136 695.908 838.232 697.705 840.479C700.85 844.372 703.994 848.789 707.139 853.73C710.283 858.522 713.053 863.613 715.449 869.004C717.995 874.395 720.016 880.01 721.514 885.85C723.011 891.54 723.76 897.155 723.76 902.695C722.562 909.883 721.663 917.07 721.064 924.258C720.615 931.445 719.193 938.633 716.797 945.82C714.701 953.158 712.454 959.297 710.059 964.238C707.663 969.18 704.818 973.597 701.523 977.49C698.229 981.383 694.336 985.052 689.844 988.496C685.352 991.94 679.961 995.758 673.672 999.951C671.276 1001.3 669.329 1002.35 667.832 1003.1C666.335 1003.69 664.912 1004.29 663.564 1004.89C662.367 1005.34 661.019 1005.94 659.521 1006.69C658.174 1007.44 656.452 1008.64 654.355 1010.28L651.211 1012.98L594.834 1017.7L575.742 1015.45C574.544 1015.3 572.673 1015.15 570.127 1015C567.731 1014.85 565.111 1014.63 562.266 1014.33C559.57 1014.03 556.725 1013.73 553.73 1013.43C550.885 1013.13 548.415 1012.75 546.318 1012.3L534.189 1014.33ZM564.961 919.766C564.961 920.964 565.186 922.985 565.635 925.83C566.084 928.675 566.608 931.895 567.207 935.488C567.956 939.082 568.779 942.826 569.678 946.719C570.576 950.612 571.475 954.206 572.373 957.5C573.421 960.794 574.395 963.639 575.293 966.035C576.191 968.281 577.015 969.554 577.764 969.854C579.561 971.201 581.058 972.399 582.256 973.447C583.454 974.495 584.502 975.544 585.4 976.592C586.299 977.49 587.272 978.613 588.32 979.961C589.368 981.159 590.716 982.731 592.363 984.678C593.112 985.726 594.085 986.774 595.283 987.822C596.631 988.721 597.979 989.694 599.326 990.742C600.824 991.641 602.246 992.614 603.594 993.662C604.941 994.561 606.064 995.459 606.963 996.357H626.953C629.648 996.357 632.493 996.283 635.488 996.133C638.633 995.983 641.628 995.534 644.473 994.785C647.467 994.036 650.238 992.913 652.783 991.416C655.329 989.919 657.35 987.822 658.848 985.127C660.195 982.132 661.393 978.464 662.441 974.121C663.49 969.629 665.137 965.885 667.383 962.891L673.672 955.479C673.672 955.179 673.747 954.355 673.896 953.008C674.196 951.66 674.495 950.088 674.795 948.291C675.244 946.494 675.693 944.697 676.143 942.9C676.592 940.954 676.966 939.232 677.266 937.734C677.266 935.938 677.041 934.365 676.592 933.018C676.143 931.52 675.918 929.948 675.918 928.301L678.389 918.643C678.389 917.445 678.239 915.573 677.939 913.027C677.79 910.332 677.415 907.337 676.816 904.043C676.367 900.599 675.843 897.08 675.244 893.486C674.645 889.893 673.896 886.449 672.998 883.154C672.249 879.86 671.351 877.015 670.303 874.619C669.404 872.074 668.431 870.277 667.383 869.229L648.066 850.137C645.371 850.137 642.826 849.313 640.43 847.666C638.034 846.019 635.563 844.297 633.018 842.5C630.472 840.553 627.852 838.757 625.156 837.109C622.611 835.462 619.766 834.639 616.621 834.639L596.406 838.682H585.176C583.079 838.682 581.432 839.281 580.234 840.479C579.036 841.676 577.539 842.575 575.742 843.174C575.443 843.174 574.769 843.324 573.721 843.623C572.822 843.923 571.774 844.372 570.576 844.971C569.528 845.57 568.555 846.393 567.656 847.441C566.908 848.34 566.533 849.388 566.533 850.586V869.229C564.886 870.426 564.062 872.523 564.062 875.518C564.062 876.266 564.212 877.015 564.512 877.764C564.811 878.363 564.961 878.812 564.961 879.111L566.533 897.979L564.961 919.766ZM750.264 1016.57C749.814 1016.57 749.29 1016.57 748.691 1016.57C748.092 1016.57 747.419 1016.42 746.67 1016.12H741.953L739.258 1013.88V1003.32L744.424 995.234C745.771 994.635 747.344 994.336 749.141 994.336C750.938 994.186 751.911 994.111 752.061 994.111C752.66 994.111 754.007 994.036 756.104 993.887C758.35 993.587 760.146 993.138 761.494 992.539C764.938 993.288 767.409 993.662 768.906 993.662C770.703 992.314 772.425 990.518 774.072 988.271C775.719 986.025 777.142 983.555 778.34 980.859C779.688 978.164 780.661 975.469 781.26 972.773C782.008 970.078 782.383 967.607 782.383 965.361V940.43C782.383 935.189 782.383 930.098 782.383 925.156C782.533 920.065 782.832 916.471 783.281 914.375C782.832 910.332 782.533 906.364 782.383 902.471C782.233 898.428 782.008 894.385 781.709 890.342L780.137 866.982C779.688 859.945 779.313 852.907 779.014 845.869C778.714 838.831 778.564 831.719 778.564 824.531C778.564 823.783 778.639 823.258 778.789 822.959C778.939 822.51 779.613 821.911 780.811 821.162C780.212 818.766 779.837 816.595 779.688 814.648C779.688 812.702 779.688 810.605 779.688 808.359C779.688 806.263 779.688 804.167 779.688 802.07C779.837 799.824 780.212 797.503 780.811 795.107C779.613 794.359 778.639 793.236 777.891 791.738C777.292 790.241 776.992 788.219 776.992 785.674C776.992 783.727 777.591 782.155 778.789 780.957C779.987 779.759 780.586 777.962 780.586 775.566C780.586 772.272 780.511 768.753 780.361 765.01C780.212 761.266 779.613 757.448 778.564 753.555C777.516 748.314 776.992 744.121 776.992 740.977C776.992 737.832 776.842 734.463 776.543 730.869C775.645 729.521 774.072 728.174 771.826 726.826C769.73 725.479 767.409 724.131 764.863 722.783C762.467 721.286 760.146 719.788 757.9 718.291C755.654 716.644 754.082 714.922 753.184 713.125C751.986 710.729 751.162 709.307 750.713 708.857C750.413 708.258 750.114 707.585 749.814 706.836C749.814 705.788 750.114 704.29 750.713 702.344C751.312 700.247 752.435 699.049 754.082 698.75C757.227 698.001 760.446 697.103 763.74 696.055C767.035 695.007 769.505 694.333 771.152 694.033C771.452 694.033 772.201 693.809 773.398 693.359C774.746 692.76 776.094 692.161 777.441 691.562C778.939 690.814 780.286 690.14 781.484 689.541C782.832 688.792 783.656 688.193 783.955 687.744C786.8 686.995 789.421 686.172 791.816 685.273C794.362 684.375 796.833 683.551 799.229 682.803C801.624 682.054 804.095 681.38 806.641 680.781C809.336 680.182 812.181 679.808 815.176 679.658C816.673 679.658 817.946 679.733 818.994 679.883C820.042 680.033 820.566 680.632 820.566 681.68C821.165 685.573 821.54 689.391 821.689 693.135C821.989 696.729 822.139 700.247 822.139 703.691C822.139 707.135 821.989 710.654 821.689 714.248C821.54 717.692 821.165 721.061 820.566 724.355C819.368 727.5 818.62 730.869 818.32 734.463C818.021 738.057 817.871 741.65 817.871 745.244L818.096 756.924L817.422 772.422C818.021 773.62 818.395 774.818 818.545 776.016C818.844 777.214 818.994 778.786 818.994 780.732C818.994 783.727 818.919 785.898 818.77 787.246C818.77 788.594 818.545 789.642 818.096 790.391L819.668 804.766C819.069 807.161 818.096 809.632 816.748 812.178C815.4 814.574 814.352 817.269 813.604 820.264C813.604 821.911 813.978 823.408 814.727 824.756C815.475 825.954 815.999 827.601 816.299 829.697C816.898 835.537 817.197 841.152 817.197 846.543C817.347 851.934 817.572 857.549 817.871 863.389C817.122 866.833 816.224 869.902 815.176 872.598C814.277 875.143 813.828 877.764 813.828 880.459V884.053C813.978 887.197 814.202 890.117 814.502 892.812C814.801 895.358 815.101 897.904 815.4 900.449C815.85 902.995 816.224 905.69 816.523 908.535C816.823 911.23 817.122 914.375 817.422 917.969C817.422 921.862 817.197 925.231 816.748 928.076C816.449 930.921 816.149 934.365 815.85 938.408C815.7 939.307 815.475 940.579 815.176 942.227C815.026 943.874 814.801 945.596 814.502 947.393C814.352 949.04 814.202 950.612 814.053 952.109C813.903 953.607 813.828 954.655 813.828 955.254V955.479C813.978 956.227 814.277 957.725 814.727 959.971C815.176 962.217 815.625 964.538 816.074 966.934C816.523 969.329 816.973 971.576 817.422 973.672C817.871 975.768 818.096 977.116 818.096 977.715L819.668 981.084H820.117C820.566 981.084 820.866 981.309 821.016 981.758C821.165 982.207 821.39 982.507 821.689 982.656C822.288 983.255 822.663 983.929 822.812 984.678C822.962 985.277 823.262 985.951 823.711 986.699C824.31 987.298 825.133 987.972 826.182 988.721C827.38 989.32 829.251 989.919 831.797 990.518C834.642 992.314 836.813 993.213 838.311 993.213C838.76 993.213 839.134 993.213 839.434 993.213C839.733 993.213 840.257 993.063 841.006 992.764C842.204 993.063 843.626 993.288 845.273 993.438C846.921 993.587 848.643 993.887 850.439 994.336C852.236 994.635 854.033 995.16 855.83 995.908C857.627 996.657 859.199 997.705 860.547 999.053C861.296 999.652 861.745 1000.48 861.895 1001.52C862.044 1002.42 862.119 1003.69 862.119 1005.34V1012.98C862.119 1014.03 861.969 1015 861.67 1015.9C861.37 1016.8 860.771 1017.4 859.873 1017.7C858.675 1017.4 857.402 1017.25 856.055 1017.25C854.857 1017.25 853.659 1017.25 852.461 1017.25C851.413 1017.25 850.29 1017.17 849.092 1017.02C847.894 1017.02 846.396 1016.87 844.6 1016.57L837.637 1015.67C837.337 1015.67 836.663 1015.6 835.615 1015.45C834.717 1015.45 833.669 1015.37 832.471 1015.22C831.423 1015.22 830.374 1015.15 829.326 1015C828.428 1015 827.829 1015 827.529 1015L816.523 1014.33C816.374 1014.33 816.224 1014.25 816.074 1014.1C815.924 1014.1 815.775 1014.1 815.625 1014.1C815.625 1013.95 815.55 1013.88 815.4 1013.88C812.106 1014.03 809.111 1014.25 806.416 1014.55C803.87 1014.85 801.4 1015.15 799.004 1015.45C796.758 1015.9 794.437 1016.27 792.041 1016.57C789.795 1017.02 787.249 1017.25 784.404 1017.25C780.96 1016.95 777.217 1016.57 773.174 1016.12C769.281 1015.67 765.612 1015.45 762.168 1015.45L750.264 1016.57ZM875.82 916.621C875.82 915.872 875.97 914.45 876.27 912.354C876.569 910.107 876.868 907.786 877.168 905.391C877.617 902.845 877.917 900.449 878.066 898.203C878.366 895.957 878.516 894.46 878.516 893.711C879.115 886.523 880.687 879.186 883.232 871.699C885.928 864.212 889.297 857.025 893.34 850.137C897.383 843.099 902.025 836.66 907.266 830.82C912.656 824.98 918.496 820.039 924.785 815.996C924.935 815.697 925.684 815.173 927.031 814.424C928.529 813.675 930.101 812.926 931.748 812.178C933.395 811.429 934.967 810.68 936.465 809.932C937.962 809.183 938.861 808.659 939.16 808.359C940.208 807.91 941.556 807.161 943.203 806.113C945 804.915 946.797 803.792 948.594 802.744C950.391 801.546 952.188 800.498 953.984 799.6C955.781 798.701 957.428 798.252 958.926 798.252C960.273 798.252 961.322 798.402 962.07 798.701C962.969 799.001 964.017 799.45 965.215 800.049C967.76 799.749 970.156 799.525 972.402 799.375C974.798 799.076 977.194 798.926 979.59 798.926C982.135 798.926 984.531 799.076 986.777 799.375C989.023 799.525 991.419 799.749 993.965 800.049C993.965 800.049 994.264 800.199 994.863 800.498C995.462 800.648 996.136 800.872 996.885 801.172C997.633 801.471 998.382 801.771 999.131 802.07C999.88 802.37 1000.48 802.594 1000.93 802.744C1001.38 802.894 1002.28 803.343 1003.62 804.092C1004.97 804.691 1006.47 805.439 1008.12 806.338C1009.76 807.236 1011.33 808.06 1012.83 808.809C1014.33 809.408 1015.38 809.782 1015.98 809.932C1015.98 810.081 1016.5 810.306 1017.55 810.605C1018.6 810.905 1019.27 811.055 1019.57 811.055L1028.55 815.996L1048.77 834.414C1049.37 835.163 1050.27 837.184 1051.46 840.479C1052.81 843.623 1054.09 847.142 1055.28 851.035C1056.63 854.779 1057.75 858.372 1058.65 861.816C1059.7 865.26 1060.22 867.507 1060.22 868.555C1060.22 870.651 1059.63 872.373 1058.43 873.721C1057.23 874.919 1055.81 875.967 1054.16 876.865C1052.51 877.614 1050.72 878.213 1048.77 878.662C1046.97 878.962 1045.4 879.186 1044.05 879.336H1043.15C1041.66 879.486 1039.19 879.635 1035.74 879.785C1032.45 879.935 1028.93 880.085 1025.19 880.234C1021.59 880.234 1018.15 880.309 1014.85 880.459C1011.71 880.459 1009.54 880.459 1008.34 880.459C1006.69 881.208 1005.2 881.657 1003.85 881.807C1002.65 881.956 1001.38 882.031 1000.03 882.031L984.082 880.459C981.087 880.459 977.943 880.983 974.648 882.031C971.504 883.079 968.434 883.604 965.439 883.604C963.493 883.604 961.546 882.93 959.6 881.582C957.803 880.085 955.781 879.336 953.535 879.336C953.236 879.336 952.412 879.71 951.064 880.459C949.867 881.058 948.968 881.357 948.369 881.357L931.299 880.234C928.903 880.234 926.657 880.684 924.561 881.582C922.464 882.48 920.068 884.053 917.373 886.299C916.924 890.192 916.624 893.636 916.475 896.631C916.325 899.476 916.25 902.695 916.25 906.289C916.25 909.434 916.4 911.979 916.699 913.926C917.148 915.872 917.747 917.744 918.496 919.541C919.245 921.188 920.143 922.91 921.191 924.707C922.24 926.354 923.438 928.451 924.785 930.996L927.031 935.264C930.924 943.799 935.941 950.687 942.08 955.928C948.219 961.169 956.156 965.286 965.889 968.281C965.889 969.03 966.937 969.779 969.033 970.527C971.279 971.126 973.75 971.576 976.445 971.875C979.59 972.474 983.184 972.848 987.227 972.998C992.168 972.998 997.259 972.699 1002.5 972.1C1007.74 971.501 1012.83 970.527 1017.77 969.18C1022.71 967.832 1027.36 966.035 1031.7 963.789C1036.19 961.543 1040.01 958.773 1043.15 955.479H1046.75C1048.54 955.479 1049.74 955.778 1050.34 956.377C1051.09 956.826 1051.84 958.249 1052.59 960.645C1052.14 964.987 1051.46 968.88 1050.57 972.324C1049.82 975.618 1048.69 978.613 1047.2 981.309C1045.85 984.004 1044.05 986.549 1041.81 988.945C1039.56 991.191 1036.64 993.512 1033.05 995.908C1031.85 996.807 1030.73 997.48 1029.68 997.93C1028.63 998.229 1027.66 998.529 1026.76 998.828C1025.86 999.128 1024.89 999.577 1023.84 1000.18C1022.94 1000.77 1021.89 1001.82 1020.69 1003.32L996.66 1015.45L993.965 1015L977.119 1017.7C964.541 1017.7 953.236 1015.9 943.203 1012.3C933.171 1008.71 924.186 1003.62 916.25 997.031C908.464 990.293 901.65 982.282 895.811 972.998C890.12 963.714 885.254 953.457 881.211 942.227C879.863 938.184 879.04 934.066 878.74 929.873C878.441 925.531 877.467 921.113 875.82 916.621ZM920.068 855.303C920.068 856.051 920.143 857.174 920.293 858.672C920.592 860.169 920.967 861.667 921.416 863.164C921.865 864.661 922.389 866.009 922.988 867.207C923.587 868.405 924.186 869.079 924.785 869.229H931.748L961.621 864.512L980.713 866.084C984.007 866.084 986.927 865.785 989.473 865.186C992.168 864.587 995.088 863.913 998.232 863.164C1001.08 862.715 1003.47 862.34 1005.42 862.041C1007.52 861.592 1009.16 860.843 1010.36 859.795C1011.71 858.747 1012.68 857.399 1013.28 855.752C1013.88 853.955 1014.18 851.484 1014.18 848.34C1014.18 843.099 1012.76 838.532 1009.91 834.639C1007.07 830.745 1003.47 827.526 999.131 824.98C994.938 822.285 990.296 820.339 985.205 819.141C980.264 817.793 975.622 817.119 971.279 817.119C970.231 817.119 968.734 817.419 966.787 818.018C964.84 818.467 962.594 819.141 960.049 820.039C957.653 820.788 955.107 821.686 952.412 822.734C949.867 823.633 947.471 824.681 945.225 825.879C943.128 826.927 941.257 827.975 939.609 829.023C937.962 829.922 936.914 830.745 936.465 831.494L931.748 841.602C930.85 842.65 929.727 843.623 928.379 844.521C927.031 845.42 925.684 846.393 924.336 847.441C923.138 848.49 922.09 849.688 921.191 851.035C920.443 852.233 920.068 853.656 920.068 855.303Z" fill="white"/>
</svg>
