<svg width="532" height="560" viewBox="0 0 532 560" fill="none" xmlns="http://www.w3.org/2000/svg">
<path d="M185.306 0.361787C190.055 -0.0480708 195.542 -0.773894 199.43 2.602C200.007 3.12193 200.523 3.71744 200.949 4.37285C209.038 16.922 185.59 61.884 176.842 73.2662C176.812 73.3097 176.65 82.897 174.969 85.8452C161.287 109.938 176.346 122.323 178.553 145.355C185.529 152.326 187.28 160.54 194.732 170.44C202.295 182.437 219.244 192.895 226.371 203.517C232.416 212.537 237.6 215.907 244.666 224.011C256.927 238.081 269.158 251.478 282.036 264.987C299.258 284.324 319.021 302.639 335.615 322.492C350.083 341.644 363.964 356.353 381.692 372.521C389.529 379.668 405.384 402.487 414.162 408.618C429.501 419.331 433.965 430.09 446.905 442.524C457.535 452.737 471.345 461.203 481.298 472.447C487.069 478.959 491.544 490.828 497.284 497.829C509.029 514.796 522.343 529.755 531.556 548.569C532.629 550.765 531.597 555.627 530.159 558.192C517.625 567.767 494.652 536.231 474.707 535.509L474.261 535.496C473.178 534.072 472.064 532.701 470.91 531.325C467.964 526.181 449.75 519.872 447.289 515.129C441.113 503.223 431.87 496.429 423.233 486.211L402.508 461.674C398.621 456.994 398.114 453.326 392.11 450.931C384.446 440.001 369.685 425.158 360.552 414.579C342.946 394.165 324.58 374.414 306.143 354.736C300.301 348.506 295.148 339.374 289.123 333.212C282.198 326.125 273.015 318.248 265.867 311.083C265.665 310.597 264.521 305.955 264.399 305.846C249.445 292.495 236.952 277.409 223.091 263.153C204.695 244.232 187.26 222.522 167.112 205.613C155.544 195.903 150.862 193.744 141.865 181.266C132.132 179.541 130.658 177.598 123.154 171.008C109.073 176.532 114.938 172.051 103.798 170.68C89.6108 169.762 80.8733 170.898 66.3648 172.802C49.0589 175.35 43.7375 195.31 25.9496 191.955C26.2928 192.02 -0.436023 207.883 0.00540833 184.73C0.168414 176.18 8.21335 162.178 11.1495 153.436C14.6951 142.88 20.4752 132.04 28.7591 124.519C33.5926 108.581 33.1684 74.8455 25.7238 59.6207C25.1751 58.4876 22.9355 50.4553 22.2896 50.1083C13.7515 45.515 -0.123163 13.2412 7.60897 5.19682C18.0555 -5.67186 63.0744 20.4551 72.7706 28.5338C81.575 28.5824 110.125 33.1312 118.368 27.8803C128.416 21.4789 127.981 28.0755 138.494 24.8865C146.661 22.4098 156.308 10.6512 163.918 7.09021C173.106 2.78887 174.21 6.3065 185.306 0.361787ZM131.985 133.705C132.075 122.666 126.115 109.632 127.987 96.9187C129.285 88.0953 137.241 75.8087 134.834 68.7234C129.391 66.2133 110.177 73.8499 104.097 73.5383C91.9607 72.9181 78.6824 67.6095 66.2858 64.0411C64.7722 71.0079 74.8512 95.9697 72.7402 106.799C71.0373 115.54 63.5978 124.567 65.2532 131.988C70.4218 134.82 87.5373 126.197 96.9359 126.521C105.886 126.83 126.278 135.925 131.985 133.705Z" fill="black"/>
<path d="M355.158 135.46C365.05 139.583 383.487 169.905 387.82 177.463C389.177 179.822 395.059 187.481 397.175 190.229C402.106 196.618 405.001 203.853 409.072 209.826C423.307 230.73 436.347 249.882 444.214 273.773C444.994 276.126 443.607 280.799 443.85 281.864C446.188 291.014 447.079 299.325 446.128 308.717C444.528 324.653 444.801 349.736 447.575 366.243C448.79 373.462 449.398 394.408 442.736 399.089C437.066 400.535 429.989 394.114 427.265 389.482C423.074 385.964 418.082 376.58 413.871 372.224C400.071 357.945 376.288 330.306 365.222 313.657C362.6 309.699 338.979 284.286 336.215 279.622C333.613 275.239 332.449 270.384 331.031 265.494C326.749 250.298 327.125 240.58 330.436 225.888C330.709 224.665 329.616 220.752 329.839 219.153C330.679 213.145 334.111 206.902 334.911 200.779C334.911 200.779 336.136 198.808 336.642 197.796C337.654 194.761 337.654 195.267 338.272 193.162C338.293 174.953 343.12 157.759 347.98 140.256C348.638 137.898 352.961 136.319 355.158 135.46Z" fill="black"/>
<path d="M92.5053 211.403C97.2617 208.295 106.57 213.742 111.786 213.589C115.961 213.466 119.767 210.977 124.163 211.429C130.818 212.114 138.536 219.034 143.514 223.45C149.265 228.553 182.838 264.52 185.499 270.19C186.791 272.931 186.009 275.61 188.094 278.447C190.766 279.287 193.307 279.285 196.076 279.304C199.789 281.793 200.756 288.382 201.875 292.704C203.753 294.15 205.567 294.732 207.684 295.606C214.525 298.445 220.096 309.804 225.298 315.607C228.631 319.328 233.344 321.129 236.385 324.598C237.797 326.213 238.817 328.388 239.632 330.407C241.098 334.09 241.5 337.234 240.099 340.98C237.525 342.022 234.865 342.388 232.15 342.756C223.81 343.886 215.514 342.816 207.185 343.668C197.466 344.661 188.181 348.185 178.332 348.036C176.345 348.101 142.962 339.716 138.57 338.428C127.104 335.068 116.266 332.055 110.082 320.395C83.5205 312.101 73.8884 280.873 56.5735 260.657C53.9488 257.593 52.3265 259.148 49.4444 257.398C45.1507 254.788 34.942 240.323 31.6506 235.563C29.3702 232.264 27.7022 229.386 28.5926 225.124C29.633 220.149 35.3927 217.773 39.1923 215.533C43.46 216.227 48.0002 217.207 52.3167 217.202C60.1625 217.194 85.6608 214.279 92.5053 211.403Z" fill="black"/>
<path d="M239.134 366.408C243.817 365.586 248.788 368.27 253.481 368.573C255.928 368.731 258.346 367.524 260.774 367.325C283.341 365.475 307.093 404.679 320.761 418.821C326.821 425.092 335.06 429.533 341.655 435.339C344.828 438.137 349.12 442.274 349.292 446.72C349.368 448.647 348.661 450.417 347.237 451.776C338.396 460.212 329.908 453.939 323.647 454.799C312.894 456.279 302.514 460.603 291.733 461.995C286.17 462.714 280.11 462.202 274.49 462.029C270.399 459.128 266.384 460.305 261.72 459.927C257.266 459.566 252.152 457.193 247.966 455.669C241.055 453.161 233.781 450.54 227.492 446.713C217.408 440.572 208.997 431.373 200.395 423.414C194.421 417.887 187.596 412.278 181.364 407.004C174.96 401.584 167.534 398.497 161.844 391.693C159.991 389.478 159.816 388.026 160.05 385.297C161.504 382.837 164.064 381.656 166.693 380.743C173.747 378.295 181.584 379.207 188.61 377.136C196.868 374.699 204.189 369.265 212.887 368.018C222.034 366.708 229.748 370.874 238.819 366.562L239.134 366.408Z" fill="black"/>
<path d="M243.758 21.3395C245.61 22.4322 247.878 24.0955 249.245 25.7244C254.105 31.5045 256.383 41.016 260.493 47.051C267.844 57.8605 276.126 68.1763 283.709 78.8451C283.628 78.7237 284.438 85.9112 285.086 86.5728C290.543 90.8485 298.957 98.4922 300.961 106.032C307.745 131.538 304.161 160.699 301.457 186.629C301.407 188.805 294.968 198.57 295.362 199.727C298.471 208.833 300.091 237.719 281.755 227.802C277.472 221.714 274.172 220.478 269.504 215.163C267.53 212.904 264.199 201.789 262.154 200.239C255.289 195.039 252.039 198.067 247.878 189.226C239.424 172.463 221.413 163.245 214.953 144.494C208.332 125.247 212.199 111.333 216.269 92.3378C221.058 70.0085 227.092 48.0992 235.607 26.8373C237.055 23.2264 240.366 22.4848 243.758 21.3395Z" fill="black"/>
</svg>
