<svg width="506" height="560" viewBox="0 0 506 560" fill="none" xmlns="http://www.w3.org/2000/svg">
<path d="M354.625 0.549131C359.924 -0.389089 366.532 0.117744 371.9 0.309815C394.066 1.10361 413.603 5.16887 432.436 17.6019C436.405 20.2224 436.226 24.1889 438.766 25.8594C441.971 27.9618 446.734 28.1832 449.979 30.5982C456.845 35.7112 466.42 49.9582 467.571 58.6277C468.325 64.3511 466.559 70.9381 462.897 75.4634C451.139 90.0142 437.09 76.0947 424.548 77.7018C413.951 79.0597 388.053 58.721 370.779 57.6083C366.284 57.3194 335.644 61.9837 332.211 63.6295C327.507 65.8857 322.586 71.6597 318.607 75.1726C315.243 78.1514 312.088 81.0052 311.781 85.7916C314.479 91.2212 324.997 98.6827 330.425 102.026C331.734 102.834 336.646 102.448 338.67 103.249C354.447 109.505 350.091 109.301 365.579 103.313C373.081 106.996 372.158 106.878 380.701 105.624C390.286 104.217 390.951 108.776 397.48 111.264C400.258 112.322 410.16 111.035 414.467 113.724C419.11 116.624 415.538 117.496 418.892 120.453C420.966 122.274 428.219 120.902 431.007 120.527C437.546 124.664 437.774 124.729 444.68 127.062C448.709 128.423 456.468 135.979 460.06 138.864C478.604 153.734 493.409 172.573 502.358 194.815C507.955 212.23 506.744 235.738 501.158 253.001C498.747 260.462 484.935 263.314 478.992 258.843C472.611 254.742 469.039 242.291 463.81 237.645C449.572 224.998 436.901 216.362 425.322 200.817C419.676 193.236 400.427 178.49 391.675 173.892C384.214 177.028 379.292 166.681 368.229 165.87C362.523 165.452 338.313 174.375 336.051 176.338C327.309 194.143 354.397 201.984 365.51 205.648C370.799 207.393 381.971 217.511 387.021 220.833C390.99 223.447 392.141 225.646 392.558 230.21C395.555 234.515 398.641 233.525 401.955 236.094C407.253 239.983 408.692 248.628 412.393 253.606C427.405 273.762 429.023 301.01 420.222 323.961C419.507 325.827 413.98 327.329 412.611 329.254C412.313 329.672 412.155 333.187 411.589 333.808C395.733 350.106 376.107 312.473 374.41 301.84C361.541 294.553 317.059 203.533 297.74 241.525C287.709 261.251 296.302 293.32 299.04 314.849L306.968 376.37C307.831 383.464 308.228 395.428 309.518 401.875C311.84 413.454 317.069 425.726 319.054 437.767C320.82 448.409 319.52 471.551 324.868 481.041C330.355 490.774 346.767 503.861 357.562 507.309C360.787 508.34 366.949 508.087 369.588 510.097C369.786 510.246 372.634 514.786 373.487 515.874C376.613 517.874 379.203 517.157 382.874 516.707C389.234 519.608 388.55 529.597 392.161 533.649C396.388 538.392 393.947 541.888 391.834 547.236C390.474 550.665 387.865 548.638 385.622 548.248C384.412 549.11 380.016 552.995 378.786 552.91C359.805 551.595 341.23 551.298 322.209 552.639C319.58 552.823 316.345 551.216 313.805 551.679C307.712 552.197 300.687 557.217 295.091 558.067C279.454 560.44 258.696 560.597 243.108 558.709C236.45 557.902 229.167 551.901 221.368 551.786C200.849 551.483 181.074 559.051 160.922 554.942C157.042 554.134 157.419 556.631 152.269 553.886C131.542 547.83 141.553 529.307 151.585 518.602C154.323 518.215 177.393 509.505 183.624 507.578C189.428 498.489 205.245 494.229 211.238 480.355C220.535 458.841 215.673 450.384 216.1 429.248C216.199 423.862 221.954 410.146 222.748 403.466C224.494 388.805 223.174 376.729 221.666 362.263C221.468 360.414 224.295 351.773 224.841 348.447C227.312 333.365 226.21 312.096 220.842 297.675C230.775 273.594 223.71 252.545 208.39 232.481C192.633 236.378 194.459 235.51 184.11 247.29C174.277 258.483 174.823 269.693 168.105 281.721C162.281 292.15 156.347 300.589 153.152 312.645C152.587 313.957 147.09 319.579 147.149 320.485C148.539 339.788 132.673 344.109 118.643 332.04C109.405 322.258 103.868 303.988 103.61 290.982C103.293 275.52 111.151 251.32 119.694 238.254C127.354 226.535 145.671 215.485 154.988 204.342C160.038 198.297 169.316 187.847 161.973 179.918C158.61 176.478 156.744 178.476 152.994 177.944C150.602 177.605 145.582 174.006 142.734 173.563C135.074 173.637 131.234 176.2 122.205 176.703C113.701 184.574 108.542 184.367 100.385 192.672C86.8018 206.513 73.2976 233.885 59.5849 245.53C44.3839 258.442 49.7122 272.986 34.4219 289.214C26.9901 291.588 19.5186 292.94 14.111 285.555C-2.17156 263.04 -3.36223 230.932 5.43887 205.101C10.8168 189.298 27.3176 170.024 38.5794 157.513C44.2451 151.213 48.0652 143.502 54.4552 138.228C58.5134 134.882 65.6078 134.55 70.4102 132.265C88.2505 123.285 106.577 113.885 126.729 111.755C128.575 111.04 140.799 113.542 141.563 112.962C144.064 111.087 161.041 110.82 160.683 110.995C169.236 106.803 178.315 100.407 186.253 95.1937C184.695 88.3942 183.604 84.9608 180.27 78.879C169.485 72.9591 157.875 64.4781 145.631 67.9712L134.816 64.3402C127.156 68.1012 126.541 67.8917 118.176 65.8331C109.236 72.0359 104.791 72.0985 95.6328 76.3637C77.2864 84.9141 63.2562 90.7785 42.965 93.0556C33.1122 95.4746 36.6147 84.7751 33.8861 84.6392C11.7593 83.5383 24.2219 56.1968 34.1243 47.2731C45.4159 37.1048 61.1329 24.4469 75.0241 17.6644C79.6181 15.4251 92.3187 14.8275 97.5775 12.6605C115.329 5.44471 127.473 8.24984 145.165 14.1049C152.775 16.6222 168.83 18.3305 175.587 21.4016C189.111 27.5588 215.812 41.784 225.933 51.9503C232.749 51.7439 240.667 50.8724 247.543 50.2827C248.218 49.043 248.982 47.8618 249.855 46.751C275.306 14.495 316.384 5.19001 354.625 0.549131ZM259.857 208.485C268.49 193.377 268.222 162.971 288.443 156.372C296.183 153.843 298.495 155.162 304.954 147.875C306.75 145.849 311.731 146.462 314.301 142.469C310.64 132.036 280.089 129.046 273.213 122.356C265.791 115.142 258.329 88.2215 248.923 82.4445C240.558 89.3283 237.274 117.008 231.459 124.706C227.173 130.372 196.265 135.892 194.082 145.696C195.66 153.107 208.459 154.325 216.149 158.773C225.228 164.025 227.669 159.062 236.688 170.654C241.481 176.819 251.304 215.128 259.857 208.485Z" fill="black"/>
</svg>
