<svg width="1200" height="1200" viewBox="0 0 1200 1200" fill="none" xmlns="http://www.w3.org/2000/svg">
<path d="M701.625 18.5491C706.924 17.6109 713.532 18.1177 718.9 18.3098C741.066 19.1036 760.603 23.1689 779.436 35.6019C783.405 38.2224 783.226 42.1889 785.766 43.8594C788.971 45.9618 793.734 46.1832 796.979 48.5982C803.845 53.7112 813.42 67.9582 814.571 76.6277C815.325 82.3511 813.559 88.9381 809.897 93.4634C798.139 108.014 784.09 94.0947 771.548 95.7018C760.951 97.0597 735.053 76.721 717.779 75.6083C713.284 75.3194 682.644 79.9837 679.211 81.6295C674.507 83.8857 669.586 89.6597 665.607 93.1726C662.243 96.1514 659.088 99.0052 658.781 103.792C661.479 109.221 671.997 116.683 677.425 120.026C678.734 120.834 683.646 120.448 685.67 121.249C701.447 127.505 697.091 127.301 712.579 121.313C720.081 124.996 719.158 124.878 727.701 123.624C737.286 122.217 737.951 126.776 744.48 129.264C747.258 130.322 757.16 129.035 761.467 131.724C766.11 134.624 762.538 135.496 765.892 138.453C767.966 140.274 775.219 138.902 778.007 138.527C784.546 142.664 784.774 142.729 791.68 145.062C795.709 146.423 803.468 153.979 807.06 156.864C825.604 171.734 840.409 190.573 849.358 212.815C854.955 230.23 853.744 253.738 848.158 271.001C845.747 278.462 831.935 281.314 825.992 276.843C819.611 272.742 816.039 260.291 810.81 255.645C796.572 242.998 783.901 234.362 772.322 218.817C766.676 211.236 747.427 196.49 738.675 191.892C731.214 195.028 726.292 184.681 715.229 183.87C709.523 183.452 685.313 192.375 683.051 194.338C674.309 212.143 701.397 219.984 712.51 223.648C717.799 225.393 728.971 235.511 734.021 238.833C737.99 241.447 739.141 243.646 739.558 248.21C742.555 252.515 745.641 251.525 748.955 254.094C754.253 257.983 755.692 266.628 759.393 271.606C774.405 291.762 776.023 319.01 767.222 341.961C766.507 343.827 760.98 345.329 759.611 347.254C759.313 347.672 759.155 351.187 758.589 351.808C742.733 368.106 723.107 330.473 721.41 319.84C708.541 312.553 664.059 221.533 644.74 259.525C634.709 279.251 643.302 311.32 646.04 332.849L653.968 394.37C654.831 401.464 655.228 413.428 656.518 419.875C658.84 431.454 664.069 443.726 666.054 455.767C667.82 466.409 666.52 489.551 671.868 499.041C677.355 508.774 693.767 521.861 704.562 525.309C707.787 526.34 713.949 526.087 716.588 528.097C716.786 528.246 719.634 532.786 720.487 533.874C723.613 535.874 726.203 535.157 729.874 534.707C736.234 537.608 735.55 547.597 739.161 551.649C743.388 556.392 740.947 559.888 738.834 565.236C737.474 568.665 734.865 566.638 732.622 566.248C731.412 567.11 727.016 570.995 725.786 570.91C706.805 569.595 688.23 569.298 669.209 570.639C666.58 570.823 663.345 569.216 660.805 569.679C654.712 570.197 647.687 575.217 642.091 576.067C626.454 578.44 605.696 578.597 590.108 576.709C583.45 575.902 576.167 569.901 568.368 569.786C547.849 569.483 528.074 577.051 507.922 572.942C504.042 572.134 504.419 574.631 499.269 571.886C478.542 565.83 488.553 547.307 498.585 536.602C501.323 536.215 524.393 527.505 530.624 525.578C536.428 516.489 552.245 512.229 558.238 498.355C567.535 476.841 562.673 468.384 563.1 447.248C563.199 441.862 568.954 428.146 569.748 421.466C571.494 406.805 570.174 394.729 568.666 380.263C568.468 378.414 571.295 369.773 571.841 366.447C574.312 351.365 573.21 330.096 567.842 315.675C577.775 291.594 570.71 270.545 555.39 250.481C539.633 254.378 541.459 253.51 531.11 265.29C521.277 276.483 521.823 287.693 515.105 299.721C509.281 310.15 503.347 318.589 500.152 330.645C499.587 331.957 494.09 337.579 494.149 338.485C495.539 357.788 479.673 362.109 465.643 350.04C456.405 340.258 450.868 321.988 450.61 308.982C450.293 293.52 458.151 269.32 466.694 256.254C474.354 244.535 492.671 233.485 501.988 222.342C507.038 216.297 516.316 205.847 508.973 197.918C505.61 194.478 503.744 196.476 499.994 195.944C497.602 195.605 492.582 192.006 489.734 191.563C482.074 191.637 478.234 194.2 469.205 194.703C460.701 202.574 455.542 202.367 447.385 210.672C433.802 224.513 420.298 251.885 406.585 263.53C391.384 276.442 396.712 290.986 381.422 307.214C373.99 309.588 366.519 310.94 361.111 303.555C344.828 281.04 343.638 248.932 352.439 223.101C357.817 207.298 374.318 188.024 385.579 175.513C391.245 169.213 395.065 161.502 401.455 156.228C405.513 152.882 412.608 152.55 417.41 150.265C435.251 141.285 453.577 131.885 473.729 129.755C475.575 129.04 487.799 131.542 488.563 130.962C491.064 129.087 508.041 128.82 507.683 128.995C516.236 124.803 525.315 118.407 533.253 113.194C531.695 106.394 530.604 102.961 527.27 96.879C516.485 90.9591 504.875 82.4781 492.631 85.9712L481.816 82.3402C474.156 86.1012 473.541 85.8917 465.176 83.8331C456.236 90.0359 451.791 90.0985 442.633 94.3637C424.286 102.914 410.256 108.778 389.965 111.056C380.112 113.475 383.615 102.775 380.886 102.639C358.759 101.538 371.222 74.1968 381.124 65.2731C392.416 55.1048 408.133 42.4469 422.024 35.6644C426.618 33.4251 439.319 32.8275 444.578 30.6605C462.329 23.4447 474.473 26.2498 492.165 32.1049C499.775 34.6222 515.83 36.3305 522.587 39.4016C536.111 45.5588 562.812 59.784 572.933 69.9503C579.749 69.7439 587.667 68.8724 594.543 68.2827C595.218 67.043 595.982 65.8618 596.855 64.751C622.306 32.495 663.384 23.19 701.625 18.5491ZM606.857 226.485C615.49 211.377 615.222 180.971 635.443 174.372C643.183 171.843 645.495 173.162 651.954 165.875C653.75 163.849 658.731 164.462 661.301 160.469C657.64 150.036 627.089 147.046 620.213 140.356C612.791 133.142 605.329 106.222 595.923 100.444C587.558 107.328 584.274 135.008 578.459 142.706C574.173 148.372 543.265 153.892 541.082 163.696C542.66 171.107 555.459 172.325 563.149 176.773C572.228 182.025 574.669 177.062 583.688 188.654C588.481 194.819 598.304 233.128 606.857 226.485Z" fill="white"/>
<path d="M170.098 896.182C172.194 888.245 174.814 880.684 177.959 873.496C181.104 866.159 184.697 858.672 188.74 851.035L195.029 843.623L197.725 838.906C198.174 838.158 198.698 837.484 199.297 836.885C199.746 836.286 200.195 835.762 200.645 835.312C201.094 834.714 201.543 834.264 201.992 833.965L215.244 824.531C215.993 823.633 216.816 823.034 217.715 822.734C218.613 822.285 219.437 821.986 220.186 821.836C221.084 821.536 221.982 821.312 222.881 821.162C223.779 820.863 224.603 820.339 225.352 819.59L229.619 815.322L233.213 813.75H236.582L248.711 809.033C249.31 808.734 250.133 808.434 251.182 808.135C252.38 807.835 253.577 807.536 254.775 807.236C255.973 806.937 257.096 806.712 258.145 806.562C259.193 806.413 259.941 806.338 260.391 806.338H283.301C284.648 805.739 285.771 805.439 286.67 805.439C287.718 805.29 288.542 805.215 289.141 805.215C293.483 805.215 297.826 805.964 302.168 807.461C306.51 808.809 310.853 810.081 315.195 811.279H323.73C324.03 811.279 324.479 811.579 325.078 812.178C325.677 812.627 326.351 813.226 327.1 813.975L329.57 816.445C333.314 818.542 336.982 820.638 340.576 822.734C344.17 824.681 347.764 826.852 351.357 829.248C354.352 831.644 356.673 834.339 358.32 837.334C360.117 840.179 362.139 843.024 364.385 845.869C364.684 846.169 365.208 846.917 365.957 848.115C366.855 849.163 367.754 850.361 368.652 851.709C369.551 853.057 370.374 854.404 371.123 855.752C372.021 857.1 372.62 858.148 372.92 858.896L374.268 861.592L383.027 890.342C383.477 891.24 383.851 892.288 384.15 893.486C384.45 894.684 384.749 895.882 385.049 897.08C385.348 898.128 385.573 899.176 385.723 900.225C385.872 901.123 385.947 901.722 385.947 902.021V909.209L384.6 914.824V930.996L372.92 965.361C369.925 969.404 366.781 973.597 363.486 977.939C360.192 982.132 356.898 986.1 353.604 989.844C353.604 989.993 353.304 990.368 352.705 990.967C351.807 992.165 350.758 993.438 349.561 994.785C348.363 996.133 347.015 997.406 345.518 998.604C345.218 998.903 344.32 999.128 342.822 999.277C341.475 999.427 339.977 999.876 338.33 1000.62L324.854 1008.49C324.554 1008.49 323.88 1008.64 322.832 1008.94C321.934 1009.09 320.885 1009.31 319.688 1009.61C318.639 1009.76 317.591 1009.91 316.543 1010.06C315.495 1010.21 314.746 1010.28 314.297 1010.28C311.602 1010.88 309.355 1011.71 307.559 1012.75C305.911 1013.8 303.516 1014.33 300.371 1014.33L277.461 1015C276.862 1015 275.589 1015 273.643 1015C271.696 1014.85 269.6 1014.78 267.354 1014.78C265.107 1014.63 262.936 1014.55 260.84 1014.55C258.743 1014.4 257.171 1014.33 256.123 1014.33L249.834 1012.98L235.459 1011.86L233.213 1010.73L210.977 995.234L205.586 992.764C202.891 991.266 200.645 989.095 198.848 986.25C197.051 983.255 195.254 980.41 193.457 977.715C191.81 974.72 190.088 972.025 188.291 969.629C186.644 967.233 184.997 964.987 183.35 962.891C182.002 960.495 180.505 958.174 178.857 955.928C177.36 953.682 175.938 951.361 174.59 948.965C173.392 946.569 172.344 944.173 171.445 941.777C170.547 939.232 170.098 936.462 170.098 933.467L168.301 915.947L170.098 896.182ZM216.367 927.852C217.565 929.199 218.389 930.397 218.838 931.445C219.437 932.493 219.811 933.467 219.961 934.365C220.26 935.264 220.41 936.237 220.41 937.285C220.56 938.333 220.785 939.606 221.084 941.104C222.282 946.045 224.229 951.211 226.924 956.602C229.619 961.992 232.464 966.559 235.459 970.303L243.994 978.389C246.989 982.132 249.834 985.876 252.529 989.619C255.225 993.213 258.594 995.833 262.637 997.48H271.621C274.915 997.48 278.434 997.106 282.178 996.357C285.921 995.459 289.665 994.71 293.408 994.111C295.505 994.111 297.376 994.036 299.023 993.887C300.671 993.587 302.692 992.689 305.088 991.191L307.783 988.271C314.971 984.378 321.185 979.587 326.426 973.896L341.924 949.414L341.25 926.055C341.999 924.857 342.448 923.734 342.598 922.686C342.747 921.637 342.822 920.065 342.822 917.969C342.822 915.423 342.223 913.102 341.025 911.006C339.827 908.91 339.229 906.364 339.229 903.369L341.25 894.834C340.801 893.037 340.352 890.941 339.902 888.545C339.453 886.149 338.929 883.753 338.33 881.357C337.881 878.812 337.282 876.491 336.533 874.395C335.934 872.148 335.111 870.352 334.062 869.004L322.607 855.752C322.158 855.452 321.559 854.779 320.811 853.73C320.212 852.682 319.538 851.484 318.789 850.137C318.19 848.789 317.591 847.516 316.992 846.318C316.543 845.12 316.318 844.222 316.318 843.623L309.58 838.906C306.885 835.911 304.189 833.366 301.494 831.27C298.799 829.023 295.579 827.601 291.836 827.002L280.83 825.654C276.937 825.055 273.493 824.382 270.498 823.633C267.503 822.734 264.134 822.285 260.391 822.285H258.818L245.117 830.371L223.33 855.752C222.731 857.399 222.207 858.896 221.758 860.244C221.309 861.592 221.084 862.939 221.084 864.287L219.961 871.25L216.367 880.459V886.299C216.367 888.395 216.667 890.342 217.266 892.139C218.014 893.936 218.389 896.032 218.389 898.428C218.389 899.626 218.314 900.599 218.164 901.348C218.014 901.947 217.415 902.62 216.367 903.369V927.852ZM511.279 988.496C510.68 988.796 509.707 989.694 508.359 991.191C507.161 992.539 506.188 993.213 505.439 993.213L496.904 997.48C496.605 997.63 496.081 998.005 495.332 998.604C494.733 999.053 493.984 999.652 493.086 1000.4C492.337 1001 491.663 1001.6 491.064 1002.2C490.465 1002.65 490.091 1002.87 489.941 1002.87C489.642 1003.02 489.043 1003.17 488.145 1003.32C487.396 1003.47 486.497 1003.62 485.449 1003.77C484.551 1003.92 483.652 1004.07 482.754 1004.22C482.005 1004.22 481.406 1004.22 480.957 1004.22C479.759 1004.52 478.636 1005.04 477.588 1005.79C476.689 1006.54 475.716 1007.44 474.668 1008.49C473.77 1009.38 472.721 1010.36 471.523 1011.41C470.326 1012.3 468.978 1013.13 467.48 1013.88H446.143C445.394 1013.88 444.346 1013.73 442.998 1013.43C441.8 1013.13 440.452 1012.75 438.955 1012.3C437.607 1011.86 436.26 1011.33 434.912 1010.73C433.564 1010.13 432.516 1009.61 431.768 1009.16C431.768 1008.86 431.318 1008.19 430.42 1007.14C429.671 1005.94 429.222 1004.97 429.072 1004.22C428.773 1003.92 428.548 1003.54 428.398 1003.1C427.949 1002.65 427.725 1002.2 427.725 1001.75L421.66 995.908C420.462 993.512 419.414 990.518 418.516 986.924C417.767 983.18 417.393 980.111 417.393 977.715L418.965 972.998L417.393 968.281V965.586C417.393 964.837 417.542 963.864 417.842 962.666C418.291 961.318 418.74 960.046 419.189 958.848C419.639 957.5 420.088 956.302 420.537 955.254C420.986 954.056 421.361 953.232 421.66 952.783C421.81 952.633 422.334 952.109 423.232 951.211C424.281 950.163 425.404 949.04 426.602 947.842C427.799 946.494 428.848 945.296 429.746 944.248C430.794 943.2 431.468 942.451 431.768 942.002C431.917 942.002 432.441 941.478 433.34 940.43C434.388 939.382 434.912 938.708 434.912 938.408L435.361 937.51C435.511 937.21 435.586 936.911 435.586 936.611C438.132 934.964 440.602 933.242 442.998 931.445C445.394 929.499 448.089 927.852 451.084 926.504C451.234 926.354 452.282 925.905 454.229 925.156C456.325 924.258 458.571 923.359 460.967 922.461C463.512 921.413 465.983 920.514 468.379 919.766C470.775 919.017 472.572 918.493 473.77 918.193C475.267 917.445 476.839 916.471 478.486 915.273C480.133 914.076 481.706 912.952 483.203 911.904C484.85 910.856 486.348 909.958 487.695 909.209C489.043 908.311 490.166 907.861 491.064 907.861H496.904C497.054 907.861 497.503 907.637 498.252 907.188C498.551 907.038 498.926 906.813 499.375 906.514C499.974 906.364 501.396 906.139 503.643 905.84C506.038 905.54 507.611 905.391 508.359 905.391L511.279 901.572C512.327 900.973 513.376 900.524 514.424 900.225C515.472 899.775 516.445 899.326 517.344 898.877C518.242 898.428 518.991 897.829 519.59 897.08C520.339 896.182 520.938 894.984 521.387 893.486C522.435 890.342 523.109 887.048 523.408 883.604C523.857 880.01 524.082 876.641 524.082 873.496V868.555C524.082 868.255 523.633 867.432 522.734 866.084C521.836 864.736 521.387 863.763 521.387 863.164L518.691 851.709L513.75 845.645L511.279 840.928C510.68 840.628 510.081 839.88 509.482 838.682C508.883 837.484 508.509 836.51 508.359 835.762C508.06 834.863 506.937 834.04 504.99 833.291C503.044 832.393 500.872 831.644 498.477 831.045C496.081 830.296 493.685 829.772 491.289 829.473C489.043 829.023 487.471 828.799 486.572 828.799C486.273 828.799 485.075 828.799 482.979 828.799C481.032 828.649 479.385 828.574 478.037 828.574C476.689 828.574 474.818 828.724 472.422 829.023C470.176 829.173 468.005 829.622 465.908 830.371C463.812 830.97 461.94 831.868 460.293 833.066C458.796 834.264 458.047 835.837 458.047 837.783V839.805C458.197 840.104 458.496 840.778 458.945 841.826C459.395 842.725 459.844 843.773 460.293 844.971C460.742 846.019 461.117 847.067 461.416 848.115C461.865 849.014 462.09 849.613 462.09 849.912C462.09 850.511 461.865 851.41 461.416 852.607C461.117 853.656 460.817 854.779 460.518 855.977C459.469 860.768 458.047 864.437 456.25 866.982C454.453 869.528 451.608 871.999 447.715 874.395L445.02 876.416C444.421 876.865 443.896 877.314 443.447 877.764H426.377C425.029 877.764 423.906 877.24 423.008 876.191C422.109 875.143 421.361 873.945 420.762 872.598C420.163 871.1 419.714 869.678 419.414 868.33C419.115 866.833 418.965 865.71 418.965 864.961C418.965 864.062 419.115 862.865 419.414 861.367C419.714 859.87 420.163 858.447 420.762 857.1C421.361 855.602 421.96 854.255 422.559 853.057C423.307 851.709 424.056 850.661 424.805 849.912C425.254 848.864 425.778 847.965 426.377 847.217C426.676 846.468 426.976 845.869 427.275 845.42C427.725 844.971 428.024 844.671 428.174 844.521L431.768 840.928C435.062 838.831 437.832 836.66 440.078 834.414C442.324 832.168 444.945 829.772 447.939 827.227L463.662 816.895C465.16 815.547 466.507 814.574 467.705 813.975C469.053 813.226 470.4 812.627 471.748 812.178C473.096 811.729 474.443 811.354 475.791 811.055C477.288 810.755 479.01 810.231 480.957 809.482C481.107 809.482 481.481 809.333 482.08 809.033C482.829 808.734 483.577 808.434 484.326 808.135C485.075 807.686 485.824 807.311 486.572 807.012C487.321 806.712 487.845 806.488 488.145 806.338C488.893 806.188 490.316 805.889 492.412 805.439C494.658 804.99 496.979 804.541 499.375 804.092C501.921 803.643 504.316 803.268 506.562 802.969C508.809 802.669 510.381 802.52 511.279 802.52C512.028 802.52 512.702 802.819 513.301 803.418C514.049 803.867 514.574 804.092 514.873 804.092C515.322 804.092 515.996 804.167 516.895 804.316C517.793 804.316 518.691 804.391 519.59 804.541C520.638 804.691 521.536 804.84 522.285 804.99C523.184 804.99 523.783 805.065 524.082 805.215C524.98 805.514 526.178 805.964 527.676 806.562C529.173 807.012 530.671 807.536 532.168 808.135C533.665 808.734 535.013 809.258 536.211 809.707C537.409 810.156 538.158 810.456 538.457 810.605C538.607 810.755 538.981 811.13 539.58 811.729C540.179 812.327 540.853 813.076 541.602 813.975C542.5 814.723 543.324 815.472 544.072 816.221C544.821 816.969 545.345 817.568 545.645 818.018C547.292 820.413 548.939 822.585 550.586 824.531C552.383 826.478 553.656 828.724 554.404 831.27C555.153 832.767 555.677 834.414 555.977 836.211C556.426 837.858 556.8 839.505 557.1 841.152C557.549 842.799 558.073 844.372 558.672 845.869C559.271 847.367 560.244 848.714 561.592 849.912V863.838C561.592 873.721 561.217 883.454 560.469 893.037C559.87 902.471 559.421 912.204 559.121 922.236C558.522 923.734 557.998 925.231 557.549 926.729C557.1 928.076 556.875 929.648 556.875 931.445C556.875 932.793 557.025 934.29 557.324 935.938C557.773 937.585 557.998 938.783 557.998 939.531L555.977 943.799C555.827 944.398 555.752 944.997 555.752 945.596V948.066C555.752 950.312 555.827 952.708 555.977 955.254C556.126 957.799 556.501 960.345 557.1 962.891C557.699 965.436 558.522 967.832 559.57 970.078C560.768 972.324 562.415 974.196 564.512 975.693C565.26 976.292 566.234 977.191 567.432 978.389C568.779 979.437 569.753 979.961 570.352 979.961H571.25C572.747 979.961 574.469 979.736 576.416 979.287C578.363 978.688 580.384 978.089 582.48 977.49C584.577 976.742 586.673 976.068 588.77 975.469C591.016 974.87 593.187 974.57 595.283 974.57C598.128 974.57 599.551 975.469 599.551 977.266C599.551 982.057 598.577 986.699 596.631 991.191C594.834 995.684 592.288 999.727 588.994 1003.32C585.7 1006.76 581.882 1009.61 577.539 1011.86C573.197 1013.95 568.48 1015 563.389 1015C558.298 1015 553.356 1014.78 548.564 1014.33C543.773 1013.73 538.532 1012.38 532.842 1010.28L531.27 1009.16C530.97 1008.86 530.221 1007.96 529.023 1006.46C527.975 1004.82 526.777 1003.1 525.43 1001.3C524.232 999.502 523.109 997.855 522.061 996.357C521.012 994.71 520.413 993.662 520.264 993.213L514.873 988.496H513.301H511.279ZM460.518 954.805C460.518 957.201 460.892 959.971 461.641 963.115C462.539 966.26 463.812 969.255 465.459 972.1C467.106 974.795 469.128 977.116 471.523 979.062C473.919 981.009 476.615 981.982 479.609 981.982C480.208 981.982 480.732 981.908 481.182 981.758C481.631 981.608 482.904 981.009 485 979.961L505.439 978.164C505.889 977.865 506.562 977.266 507.461 976.367C508.509 975.319 509.482 974.271 510.381 973.223C511.429 972.174 512.327 971.201 513.076 970.303C513.975 969.404 514.574 968.73 514.873 968.281C515.023 968.281 515.247 967.832 515.547 966.934C515.996 966.035 516.52 964.912 517.119 963.564C517.718 962.217 518.242 960.794 518.691 959.297C519.29 957.799 519.814 956.452 520.264 955.254C520.563 954.505 520.788 953.382 520.938 951.885C521.237 950.387 521.387 949.564 521.387 949.414C521.237 947.767 521.087 946.12 520.938 944.473C520.788 942.826 520.713 941.178 520.713 939.531C520.713 938.034 520.788 936.686 520.938 935.488C521.087 934.141 521.237 932.793 521.387 931.445L522.959 926.504V922.461C522.959 919.915 522.135 917.594 520.488 915.498C518.841 913.402 516.445 912.354 513.301 912.354C510.755 912.354 508.584 912.952 506.787 914.15C505.14 915.199 503.193 916.546 500.947 918.193C500.199 918.643 498.701 919.466 496.455 920.664C494.209 921.712 491.813 922.835 489.268 924.033C486.872 925.081 484.551 926.13 482.305 927.178C480.208 928.226 478.786 928.9 478.037 929.199L473.77 931.445C473.47 931.445 472.871 931.595 471.973 931.895C471.074 932.194 470.625 932.419 470.625 932.568L467.48 938.408L462.09 943.799C461.341 945.446 460.892 947.393 460.742 949.639C460.592 951.735 460.518 953.457 460.518 954.805ZM619.99 975.469C619.99 973.672 620.14 971.051 620.439 967.607C620.739 964.014 621.263 960.495 622.012 957.051C622.91 953.607 624.108 950.612 625.605 948.066C627.103 945.521 629.124 944.248 631.67 944.248C632.119 944.248 632.493 945.072 632.793 946.719C633.092 948.366 633.392 950.312 633.691 952.559C634.141 954.655 634.665 956.676 635.264 958.623C635.863 960.57 636.611 961.768 637.51 962.217C639.456 963.115 640.729 963.789 641.328 964.238C641.927 964.688 642.451 965.96 642.9 968.057L650.312 978.838C651.061 980.635 652.409 981.908 654.355 982.656C656.302 983.405 657.799 984.453 658.848 985.801C660.495 988.197 662.816 989.993 665.811 991.191C668.805 992.24 672.174 992.764 675.918 992.764L682.432 991.641C682.581 991.491 683.255 991.416 684.453 991.416C685.801 991.266 687.148 991.117 688.496 990.967C689.993 990.817 691.341 990.742 692.539 990.742C693.887 990.592 694.71 990.518 695.01 990.518C695.758 990.218 696.807 989.919 698.154 989.619C699.502 989.17 700.85 988.721 702.197 988.271C703.545 987.822 704.743 987.373 705.791 986.924C706.839 986.475 707.513 986.1 707.812 985.801C707.962 985.651 708.636 985.052 709.834 984.004C711.032 982.806 712.38 981.458 713.877 979.961C715.374 978.464 716.872 976.966 718.369 975.469C720.016 973.822 721.289 972.474 722.188 971.426C723.385 970.228 724.134 969.329 724.434 968.73C724.733 967.982 724.883 966.859 724.883 965.361V963.34C724.883 957.5 723.835 952.633 721.738 948.74C719.642 944.847 716.423 941.029 712.08 937.285C708.486 933.991 704.818 931.445 701.074 929.648C697.331 927.702 693.438 926.204 689.395 925.156C685.501 924.108 681.383 923.285 677.041 922.686C672.699 921.937 668.206 921.113 663.564 920.215C661.917 920.065 660.42 919.541 659.072 918.643C657.874 917.744 656.676 916.771 655.479 915.723C654.43 914.525 653.382 913.327 652.334 912.129C651.286 910.931 650.238 909.883 649.189 908.984L635.488 900.674C632.344 898.428 629.948 895.807 628.301 892.812C626.803 889.668 625.605 886.374 624.707 882.93C623.958 879.486 623.359 875.967 622.91 872.373C622.461 868.779 621.862 865.26 621.113 861.816L617.969 854.629C617.969 849.837 618.643 845.719 619.99 842.275C621.338 838.831 622.985 835.387 624.932 831.943C627.477 831.344 629.424 829.997 630.771 827.9C632.119 825.804 633.691 824.082 635.488 822.734C635.638 822.285 636.162 821.686 637.061 820.938C637.959 820.039 638.857 819.141 639.756 818.242C640.654 817.194 641.478 816.221 642.227 815.322C643.125 814.424 643.574 813.75 643.574 813.301C644.323 813.001 645.221 812.327 646.27 811.279C647.318 810.231 647.842 809.333 647.842 808.584C648.291 808.584 649.04 808.359 650.088 807.91C651.136 807.461 652.259 806.937 653.457 806.338C654.655 805.739 655.778 805.215 656.826 804.766C658.024 804.167 658.923 803.792 659.521 803.643C659.821 803.643 660.42 803.493 661.318 803.193C662.367 802.894 663.115 802.669 663.564 802.52C663.714 802.52 664.238 802.22 665.137 801.621C666.185 800.872 666.934 800.498 667.383 800.498C669.03 800.498 670.602 800.872 672.1 801.621C673.747 802.22 675.394 802.52 677.041 802.52L691.416 800.498L709.385 803.193L722.188 808.584C723.835 808.584 725.706 807.985 727.803 806.787C729.899 805.439 731.771 804.766 733.418 804.766C733.867 804.766 734.242 804.915 734.541 805.215C734.99 805.215 735.365 805.365 735.664 805.664C736.113 805.814 736.562 806.038 737.012 806.338C737.012 806.637 737.161 807.236 737.461 808.135C737.611 808.584 737.835 809.033 738.135 809.482C738.135 811.878 737.536 813.9 736.338 815.547C735.14 817.044 734.541 818.766 734.541 820.713L734.092 826.553C734.092 827.751 734.017 828.949 733.867 830.146C733.867 831.195 733.493 832.168 732.744 833.066C732.295 835.163 732.07 837.933 732.07 841.377C732.22 844.821 732.07 848.19 731.621 851.484C731.172 854.629 730.273 857.399 728.926 859.795C727.728 862.191 725.706 863.389 722.861 863.389L720.615 859.57C720.166 859.271 719.867 858.597 719.717 857.549C719.567 856.351 719.118 855.602 718.369 855.303C717.62 854.704 716.797 853.656 715.898 852.158C715 850.661 714.102 849.014 713.203 847.217C712.454 845.27 711.706 843.398 710.957 841.602C710.358 839.805 709.834 838.382 709.385 837.334L706.24 834.639C703.245 832.393 700.55 830.745 698.154 829.697C695.908 828.649 693.438 827.077 690.742 824.98C690.143 824.382 689.095 824.082 687.598 824.082C686.25 823.932 684.303 823.857 681.758 823.857C679.362 823.857 676.068 824.382 671.875 825.43C667.832 826.328 663.789 827.676 659.746 829.473C655.853 831.27 652.409 833.441 649.414 835.986C646.569 838.382 645.146 841.077 645.146 844.072L646.27 848.789C646.27 849.538 645.895 850.885 645.146 852.832C644.548 854.779 644.023 856.276 643.574 857.324C643.574 858.971 643.799 860.169 644.248 860.918C644.697 861.667 645.296 862.266 646.045 862.715C646.943 863.164 647.842 863.613 648.74 864.062C649.788 864.512 650.911 865.335 652.109 866.533C652.858 867.132 653.307 867.956 653.457 869.004C653.757 869.902 653.981 870.876 654.131 871.924C654.281 872.972 654.43 874.02 654.58 875.068C654.88 876.117 655.479 877.015 656.377 877.764C658.024 879.111 660.42 880.085 663.564 880.684C666.859 881.283 669.704 881.732 672.1 882.031H684.453C687.448 882.331 690.218 883.454 692.764 885.4C695.459 887.347 697.48 888.47 698.828 888.77H712.08L719.043 893.486C722.337 895.583 725.033 897.679 727.129 899.775C729.375 901.722 731.247 903.818 732.744 906.064C734.391 908.311 735.814 910.856 737.012 913.701C738.21 916.396 739.482 919.616 740.83 923.359C740.83 923.359 740.98 923.659 741.279 924.258C741.579 924.857 741.878 925.531 742.178 926.279C742.627 926.878 743.001 927.477 743.301 928.076C743.6 928.675 743.825 929.049 743.975 929.199L741.953 936.162C741.953 936.312 742.103 936.911 742.402 937.959C742.702 938.857 743.076 939.906 743.525 941.104C743.975 942.152 744.349 943.275 744.648 944.473C744.948 945.521 745.098 946.27 745.098 946.719V954.355C745.098 956.751 744.873 959.521 744.424 962.666C743.975 965.811 743.301 969.03 742.402 972.324C741.504 975.469 740.381 978.538 739.033 981.533C737.686 984.528 736.188 986.999 734.541 988.945C734.391 989.245 733.717 989.993 732.52 991.191C731.322 992.389 729.974 993.812 728.477 995.459C727.129 996.956 725.706 998.454 724.209 999.951C722.861 1001.3 721.813 1002.27 721.064 1002.87C720.915 1003.02 720.615 1003.25 720.166 1003.54C719.717 1003.84 719.193 1004.14 718.594 1004.44C717.995 1004.89 717.246 1005.27 716.348 1005.57L713.652 1009.16L707.812 1010.28C707.663 1010.28 707.214 1010.36 706.465 1010.51C705.716 1010.51 704.893 1010.58 703.994 1010.73C703.245 1010.88 702.497 1011.03 701.748 1011.18C700.999 1011.33 700.55 1011.41 700.4 1011.41C699.053 1011.86 697.256 1012.75 695.01 1014.1C692.913 1015.45 691.117 1016.12 689.619 1016.12C686.025 1015.97 683.405 1015.82 681.758 1015.67C680.26 1015.52 678.538 1015.3 676.592 1015H668.955C668.506 1014.85 667.832 1014.7 666.934 1014.55C666.035 1014.25 665.062 1014.03 664.014 1013.88C662.965 1013.58 661.992 1013.35 661.094 1013.2C660.195 1012.9 659.671 1012.75 659.521 1012.75C659.372 1012.6 658.848 1012.38 657.949 1012.08C657.201 1011.63 656.302 1011.18 655.254 1010.73C654.355 1010.28 653.532 1009.91 652.783 1009.61C652.035 1009.31 651.585 1009.16 651.436 1009.16C650.837 1008.86 649.714 1008.64 648.066 1008.49C646.419 1008.19 645.446 1008.04 645.146 1008.04L641.328 1006.02C639.531 1005.42 637.809 1004.82 636.162 1004.22C634.515 1003.62 632.793 1002.87 630.996 1001.97C629.349 1000.92 627.552 999.652 625.605 998.154C623.659 996.507 621.488 994.486 619.092 992.09C618.942 991.491 618.792 990.742 618.643 989.844C618.493 988.945 618.418 988.122 618.418 987.373C618.418 984.977 618.643 982.731 619.092 980.635C619.691 978.389 619.99 976.667 619.99 975.469ZM786.65 1015C784.854 1015 783.431 1015.3 782.383 1015.9C781.484 1016.65 780.511 1017.02 779.463 1017.02C778.864 1017.02 778.115 1016.72 777.217 1016.12C776.468 1015.52 775.27 1014.78 773.623 1013.88C773.324 1013.73 773.099 1013.35 772.949 1012.75C772.949 1012.01 772.799 1011.18 772.5 1010.28C772.201 1009.38 771.976 1008.26 771.826 1006.91C771.826 1006.76 771.976 1006.39 772.275 1005.79C772.725 1005.04 773.174 1004.29 773.623 1003.54C774.072 1002.65 774.521 1001.82 774.971 1001.07C775.42 1000.33 775.794 999.801 776.094 999.502L780.361 997.031H785.303C788.747 997.031 791.816 996.807 794.512 996.357C797.357 995.758 799.603 994.036 801.25 991.191C801.849 986.1 802.298 981.234 802.598 976.592C802.897 971.95 803.646 967.383 804.844 962.891L807.539 952.334V931.445L808.662 911.23V897.979C808.662 897.679 808.512 896.93 808.213 895.732C807.913 894.385 807.614 892.962 807.314 891.465C807.015 889.818 806.715 888.32 806.416 886.973C806.117 885.475 805.967 884.352 805.967 883.604V862.266C805.368 860.618 804.395 858.597 803.047 856.201C801.699 853.805 800.352 852.083 799.004 851.035L792.041 848.789C789.495 846.992 787.174 845.046 785.078 842.949C783.132 840.853 781.559 838.232 780.361 835.088C780.361 833.441 780.736 832.168 781.484 831.27C782.233 830.371 783.206 829.697 784.404 829.248C785.602 828.799 786.875 828.424 788.223 828.125C789.57 827.826 790.843 827.526 792.041 827.227L808.662 818.691C810.01 818.092 811.133 817.643 812.031 817.344C813.079 816.895 814.053 816.445 814.951 815.996C815.85 815.547 816.673 815.023 817.422 814.424C818.32 813.825 819.294 812.926 820.342 811.729L826.855 811.279C827.604 811.279 828.727 811.354 830.225 811.504C831.872 811.654 832.845 811.729 833.145 811.729C833.594 811.729 834.342 811.803 835.391 811.953C836.439 812.103 837.562 812.327 838.76 812.627C839.958 812.926 841.081 813.226 842.129 813.525C843.177 813.825 843.926 814.049 844.375 814.199C845.723 814.798 846.546 816.071 846.846 818.018C847.295 819.814 847.52 821.462 847.52 822.959V830.146L845.947 835.537C845.199 845.27 844.824 854.854 844.824 864.287C844.824 873.721 844.674 883.454 844.375 893.486L843.252 901.572C843.102 901.722 842.952 902.246 842.803 903.145C842.803 904.043 842.803 905.091 842.803 906.289C842.803 907.487 842.803 908.685 842.803 909.883C842.803 910.931 842.803 911.755 842.803 912.354C842.803 913.402 842.803 914.6 842.803 915.947C842.803 917.295 842.803 918.568 842.803 919.766C842.803 920.964 842.803 922.012 842.803 922.91C842.952 923.659 843.102 924.033 843.252 924.033C843.252 924.482 843.402 925.531 843.701 927.178C844.001 928.675 844.225 929.574 844.375 929.873V934.59C844.375 935.039 844.3 936.237 844.15 938.184C844.001 940.13 843.851 942.376 843.701 944.922C843.551 947.318 843.402 949.714 843.252 952.109C843.252 954.355 843.252 956.003 843.252 957.051C843.252 958.398 843.327 960.57 843.477 963.564C843.776 966.41 844.076 969.479 844.375 972.773C844.824 976.068 845.199 979.212 845.498 982.207C845.798 985.052 845.947 987.074 845.947 988.271C845.947 989.919 846.771 991.266 848.418 992.314C850.215 993.213 851.637 993.812 852.686 994.111C853.135 994.111 854.033 994.186 855.381 994.336C856.878 994.486 858.451 994.635 860.098 994.785C861.745 994.935 863.242 995.085 864.59 995.234C866.087 995.234 867.135 995.234 867.734 995.234C868.783 996.432 869.606 997.705 870.205 999.053C870.954 1000.4 871.328 1002.12 871.328 1004.22C871.328 1006.32 871.104 1008.34 870.654 1010.28C870.355 1012.23 869.531 1013.58 868.184 1014.33C866.387 1015.82 864.365 1016.65 862.119 1016.8C860.023 1017.1 857.777 1017.25 855.381 1017.25H851.338L845.947 1015H818.32C818.171 1015 817.197 1014.85 815.4 1014.55C813.604 1014.1 812.406 1013.88 811.807 1013.88H805.518L786.65 1015ZM793.164 717.393L800.127 710.43L807.539 704.59L809.785 699.873C811.582 698.525 813.604 697.777 815.85 697.627C818.096 697.327 820.117 697.178 821.914 697.178H824.16C824.31 697.327 824.759 697.552 825.508 697.852C826.257 698.151 827.005 698.451 827.754 698.75C828.503 699.049 829.176 699.349 829.775 699.648C830.524 699.798 831.048 699.873 831.348 699.873C831.947 700.173 832.845 700.472 834.043 700.771C835.391 700.921 836.738 701.146 838.086 701.445C839.434 701.595 840.706 701.745 841.904 701.895C843.102 701.895 843.926 701.895 844.375 701.895C844.974 702.044 845.648 702.943 846.396 704.59C847.145 706.237 847.744 708.109 848.193 710.205C848.792 712.152 849.242 714.098 849.541 716.045C849.99 717.842 850.215 719.04 850.215 719.639C850.215 723.382 849.766 726.901 848.867 730.195C848.118 733.34 846.247 736.185 843.252 738.73C843.102 738.88 842.653 739.105 841.904 739.404C841.305 739.554 840.632 739.779 839.883 740.078C839.134 740.228 838.385 740.452 837.637 740.752C837.038 740.902 836.738 740.977 836.738 740.977C836.589 741.276 836.214 741.8 835.615 742.549C835.016 743.148 834.342 743.822 833.594 744.57C832.845 745.169 832.096 745.768 831.348 746.367C830.599 746.816 830.15 747.116 830 747.266C829.102 748.314 827.754 748.913 825.957 749.062C824.31 749.212 822.738 749.287 821.24 749.287H812.48C810.833 749.287 809.411 749.212 808.213 749.062C807.015 748.763 805.368 747.79 803.271 746.143C800.726 742.399 798.33 738.955 796.084 735.811C793.838 732.666 792.715 728.698 792.715 723.906L793.164 717.393ZM904.795 975.469C904.795 973.672 904.945 971.051 905.244 967.607C905.544 964.014 906.068 960.495 906.816 957.051C907.715 953.607 908.913 950.612 910.41 948.066C911.908 945.521 913.929 944.248 916.475 944.248C916.924 944.248 917.298 945.072 917.598 946.719C917.897 948.366 918.197 950.312 918.496 952.559C918.945 954.655 919.469 956.676 920.068 958.623C920.667 960.57 921.416 961.768 922.314 962.217C924.261 963.115 925.534 963.789 926.133 964.238C926.732 964.688 927.256 965.96 927.705 968.057L935.117 978.838C935.866 980.635 937.214 981.908 939.16 982.656C941.107 983.405 942.604 984.453 943.652 985.801C945.299 988.197 947.62 989.993 950.615 991.191C953.61 992.24 956.979 992.764 960.723 992.764L967.236 991.641C967.386 991.491 968.06 991.416 969.258 991.416C970.605 991.266 971.953 991.117 973.301 990.967C974.798 990.817 976.146 990.742 977.344 990.742C978.691 990.592 979.515 990.518 979.814 990.518C980.563 990.218 981.611 989.919 982.959 989.619C984.307 989.17 985.654 988.721 987.002 988.271C988.35 987.822 989.548 987.373 990.596 986.924C991.644 986.475 992.318 986.1 992.617 985.801C992.767 985.651 993.441 985.052 994.639 984.004C995.837 982.806 997.184 981.458 998.682 979.961C1000.18 978.464 1001.68 976.966 1003.17 975.469C1004.82 973.822 1006.09 972.474 1006.99 971.426C1008.19 970.228 1008.94 969.329 1009.24 968.73C1009.54 967.982 1009.69 966.859 1009.69 965.361V963.34C1009.69 957.5 1008.64 952.633 1006.54 948.74C1004.45 944.847 1001.23 941.029 996.885 937.285C993.291 933.991 989.622 931.445 985.879 929.648C982.135 927.702 978.242 926.204 974.199 925.156C970.306 924.108 966.188 923.285 961.846 922.686C957.503 921.937 953.011 921.113 948.369 920.215C946.722 920.065 945.225 919.541 943.877 918.643C942.679 917.744 941.481 916.771 940.283 915.723C939.235 914.525 938.187 913.327 937.139 912.129C936.09 910.931 935.042 909.883 933.994 908.984L920.293 900.674C917.148 898.428 914.753 895.807 913.105 892.812C911.608 889.668 910.41 886.374 909.512 882.93C908.763 879.486 908.164 875.967 907.715 872.373C907.266 868.779 906.667 865.26 905.918 861.816L902.773 854.629C902.773 849.837 903.447 845.719 904.795 842.275C906.143 838.831 907.79 835.387 909.736 831.943C912.282 831.344 914.229 829.997 915.576 827.9C916.924 825.804 918.496 824.082 920.293 822.734C920.443 822.285 920.967 821.686 921.865 820.938C922.764 820.039 923.662 819.141 924.561 818.242C925.459 817.194 926.283 816.221 927.031 815.322C927.93 814.424 928.379 813.75 928.379 813.301C929.128 813.001 930.026 812.327 931.074 811.279C932.122 810.231 932.646 809.333 932.646 808.584C933.096 808.584 933.844 808.359 934.893 807.91C935.941 807.461 937.064 806.937 938.262 806.338C939.46 805.739 940.583 805.215 941.631 804.766C942.829 804.167 943.727 803.792 944.326 803.643C944.626 803.643 945.225 803.493 946.123 803.193C947.171 802.894 947.92 802.669 948.369 802.52C948.519 802.52 949.043 802.22 949.941 801.621C950.99 800.872 951.738 800.498 952.188 800.498C953.835 800.498 955.407 800.872 956.904 801.621C958.551 802.22 960.199 802.52 961.846 802.52L976.221 800.498L994.189 803.193L1006.99 808.584C1008.64 808.584 1010.51 807.985 1012.61 806.787C1014.7 805.439 1016.58 804.766 1018.22 804.766C1018.67 804.766 1019.05 804.915 1019.35 805.215C1019.79 805.215 1020.17 805.365 1020.47 805.664C1020.92 805.814 1021.37 806.038 1021.82 806.338C1021.82 806.637 1021.97 807.236 1022.27 808.135C1022.42 808.584 1022.64 809.033 1022.94 809.482C1022.94 811.878 1022.34 813.9 1021.14 815.547C1019.94 817.044 1019.35 818.766 1019.35 820.713L1018.9 826.553C1018.9 827.751 1018.82 828.949 1018.67 830.146C1018.67 831.195 1018.3 832.168 1017.55 833.066C1017.1 835.163 1016.88 837.933 1016.88 841.377C1017.02 844.821 1016.88 848.19 1016.43 851.484C1015.98 854.629 1015.08 857.399 1013.73 859.795C1012.53 862.191 1010.51 863.389 1007.67 863.389L1005.42 859.57C1004.97 859.271 1004.67 858.597 1004.52 857.549C1004.37 856.351 1003.92 855.602 1003.17 855.303C1002.43 854.704 1001.6 853.656 1000.7 852.158C999.805 850.661 998.906 849.014 998.008 847.217C997.259 845.27 996.51 843.398 995.762 841.602C995.163 839.805 994.639 838.382 994.189 837.334L991.045 834.639C988.05 832.393 985.355 830.745 982.959 829.697C980.713 828.649 978.242 827.077 975.547 824.98C974.948 824.382 973.9 824.082 972.402 824.082C971.055 823.932 969.108 823.857 966.562 823.857C964.167 823.857 960.872 824.382 956.68 825.43C952.637 826.328 948.594 827.676 944.551 829.473C940.658 831.27 937.214 833.441 934.219 835.986C931.374 838.382 929.951 841.077 929.951 844.072L931.074 848.789C931.074 849.538 930.7 850.885 929.951 852.832C929.352 854.779 928.828 856.276 928.379 857.324C928.379 858.971 928.604 860.169 929.053 860.918C929.502 861.667 930.101 862.266 930.85 862.715C931.748 863.164 932.646 863.613 933.545 864.062C934.593 864.512 935.716 865.335 936.914 866.533C937.663 867.132 938.112 867.956 938.262 869.004C938.561 869.902 938.786 870.876 938.936 871.924C939.085 872.972 939.235 874.02 939.385 875.068C939.684 876.117 940.283 877.015 941.182 877.764C942.829 879.111 945.225 880.085 948.369 880.684C951.663 881.283 954.508 881.732 956.904 882.031H969.258C972.253 882.331 975.023 883.454 977.568 885.4C980.264 887.347 982.285 888.47 983.633 888.77H996.885L1003.85 893.486C1007.14 895.583 1009.84 897.679 1011.93 899.775C1014.18 901.722 1016.05 903.818 1017.55 906.064C1019.2 908.311 1020.62 910.856 1021.82 913.701C1023.01 916.396 1024.29 919.616 1025.63 923.359C1025.63 923.359 1025.78 923.659 1026.08 924.258C1026.38 924.857 1026.68 925.531 1026.98 926.279C1027.43 926.878 1027.81 927.477 1028.11 928.076C1028.4 928.675 1028.63 929.049 1028.78 929.199L1026.76 936.162C1026.76 936.312 1026.91 936.911 1027.21 937.959C1027.51 938.857 1027.88 939.906 1028.33 941.104C1028.78 942.152 1029.15 943.275 1029.45 944.473C1029.75 945.521 1029.9 946.27 1029.9 946.719V954.355C1029.9 956.751 1029.68 959.521 1029.23 962.666C1028.78 965.811 1028.11 969.03 1027.21 972.324C1026.31 975.469 1025.19 978.538 1023.84 981.533C1022.49 984.528 1020.99 986.999 1019.35 988.945C1019.2 989.245 1018.52 989.993 1017.32 991.191C1016.13 992.389 1014.78 993.812 1013.28 995.459C1011.93 996.956 1010.51 998.454 1009.01 999.951C1007.67 1001.3 1006.62 1002.27 1005.87 1002.87C1005.72 1003.02 1005.42 1003.25 1004.97 1003.54C1004.52 1003.84 1004 1004.14 1003.4 1004.44C1002.8 1004.89 1002.05 1005.27 1001.15 1005.57L998.457 1009.16L992.617 1010.28C992.467 1010.28 992.018 1010.36 991.27 1010.51C990.521 1010.51 989.697 1010.58 988.799 1010.73C988.05 1010.88 987.301 1011.03 986.553 1011.18C985.804 1011.33 985.355 1011.41 985.205 1011.41C983.857 1011.86 982.061 1012.75 979.814 1014.1C977.718 1015.45 975.921 1016.12 974.424 1016.12C970.83 1015.97 968.21 1015.82 966.562 1015.67C965.065 1015.52 963.343 1015.3 961.396 1015H953.76C953.311 1014.85 952.637 1014.7 951.738 1014.55C950.84 1014.25 949.867 1014.03 948.818 1013.88C947.77 1013.58 946.797 1013.35 945.898 1013.2C945 1012.9 944.476 1012.75 944.326 1012.75C944.176 1012.6 943.652 1012.38 942.754 1012.08C942.005 1011.63 941.107 1011.18 940.059 1010.73C939.16 1010.28 938.337 1009.91 937.588 1009.61C936.839 1009.31 936.39 1009.16 936.24 1009.16C935.641 1008.86 934.518 1008.64 932.871 1008.49C931.224 1008.19 930.251 1008.04 929.951 1008.04L926.133 1006.02C924.336 1005.42 922.614 1004.82 920.967 1004.22C919.32 1003.62 917.598 1002.87 915.801 1001.97C914.154 1000.92 912.357 999.652 910.41 998.154C908.464 996.507 906.292 994.486 903.896 992.09C903.747 991.491 903.597 990.742 903.447 989.844C903.298 988.945 903.223 988.122 903.223 987.373C903.223 984.977 903.447 982.731 903.896 980.635C904.495 978.389 904.795 976.667 904.795 975.469Z" fill="white"/>
</svg>
