<svg width="45" height="45" viewBox="0 0 45 45" fill="none" xmlns="http://www.w3.org/2000/svg">
<rect width="45" height="45" rx="22.5" fill="black"/>
<path d="M20.1826 20.246V19.4792C19.8268 19.4203 19.4714 19.4011 19.1765 19.4011C15.1682 19.4011 11.8125 22.609 11.8125 26.5872C11.8125 29.1987 13.0871 31.4313 15.0237 32.7525C13.6743 31.4171 12.8374 29.5482 12.8374 27.4321C12.8374 23.461 16.1828 20.2549 20.1826 20.246ZM22.4924 11.25V26.7247C22.4924 28.752 21.0316 30.0562 19.2548 30.0562C18.6654 30.0562 18.106 29.9187 17.6195 29.6652C18.2366 30.4512 19.2114 30.9033 20.2797 30.9033C22.056 30.9033 23.5173 29.5991 23.5173 27.57V12.0949H26.3328C26.2563 11.8253 26.1932 11.5437 26.1444 11.25H22.4919H22.4924ZM28.9658 15.8143C29.8618 16.736 30.9793 17.2975 32.1058 17.5528V16.861C31.0473 16.786 29.9405 16.4539 28.9658 15.8143Z" fill="#2DCCD3"/>
<path d="M28.9658 15.8139C28.0993 14.9252 27.4387 13.7014 27.1702 12.095H26.3333C26.8108 13.8321 27.7941 15.044 28.9658 15.8139ZM32.1058 17.5524V20.4822C30.4794 20.4822 28.9398 20.1729 27.5833 19.2614C29.1627 20.8366 31.0787 21.3289 33.1307 21.3289V17.7055C32.7923 17.6827 32.4473 17.6323 32.1053 17.5524H32.1058ZM17.6199 29.6643C17.184 29.1149 16.9244 28.4039 16.9244 27.5692C16.9244 25.2272 18.7603 23.9891 21.2079 24.2466V20.3242C20.8521 20.2653 20.4968 20.2461 20.2 20.2461H20.1826V23.3999C17.7349 23.1442 15.8991 24.3805 15.8991 26.7243C15.8991 28.0945 16.6017 29.1341 17.6199 29.6643ZM26.5584 26.4685C26.5584 31.41 22.7681 34.0282 19.1957 34.0282C17.6495 34.0282 16.2128 33.5622 15.0237 32.7521C16.3592 34.0737 18.1968 34.8731 20.2206 34.8731C23.793 34.8731 27.5833 32.2545 27.5833 27.3134V19.2614C27.2275 19.0213 26.886 18.7414 26.5579 18.4147V26.4685H26.5584Z" fill="#F1204A"/>
<path d="M19.1955 34.0293C22.7679 34.0293 26.5582 31.4106 26.5582 26.4696V18.4158C26.8858 18.7425 27.2277 19.0229 27.5835 19.2625C28.9401 20.1735 30.4792 20.4833 32.106 20.4833V17.5535C30.98 17.2977 29.8625 16.7362 28.966 15.815C27.7943 15.0446 26.8111 13.8328 26.3335 12.0961H23.518V27.5707C23.518 29.5998 22.0572 30.904 20.2804 30.904C19.2117 30.904 18.2373 30.4519 17.6202 29.6659C16.602 29.1356 15.8993 28.0956 15.8993 26.7258C15.8993 24.3821 17.7352 23.1457 20.1828 23.4015V20.2476C16.1835 20.2561 12.8376 23.4626 12.8376 27.4337C12.8376 29.5498 13.6746 31.4187 15.0239 32.7541C16.2131 33.5642 17.6497 34.0302 19.196 34.0302L19.1955 34.0293Z" fill="white"/>
</svg>
