<svg width="45" height="45" viewBox="0 0 45 45" fill="none" xmlns="http://www.w3.org/2000/svg">
<rect width="45" height="45" rx="22.5" fill="#25D366"/>
<g clip-path="url(#clip0_239_513)">
<path fill-rule="evenodd" clip-rule="evenodd" d="M30.7945 15.1946C28.7267 13.1356 25.9765 12.001 23.0462 12C17.0081 12 12.094 16.8864 12.0919 22.8927C12.0909 24.8128 12.5956 26.6869 13.5542 28.3386L12 33.984L17.807 32.4692C19.4068 33.3373 21.2084 33.7943 23.0415 33.7949H23.0462C29.0832 33.7949 33.9979 28.9079 34 22.9016C34.001 19.9907 32.8628 17.2542 30.7945 15.1951V15.1946ZM23.0462 31.9552H23.0425C21.409 31.9547 19.8066 31.518 18.4084 30.6933L18.0759 30.4969L14.6299 31.3958L15.5495 28.0544L15.3331 27.7118C14.4219 26.2702 13.9402 24.6039 13.9413 22.8933C13.9434 17.9013 18.0276 13.8397 23.0499 13.8397C25.4817 13.8407 27.7676 14.7835 29.4866 16.4952C31.2058 18.2064 32.1517 20.4817 32.1507 22.9006C32.1485 27.8931 28.0643 31.9547 23.0462 31.9547V31.9552ZM28.0401 25.1743C27.7665 25.038 26.4209 24.3798 26.1698 24.2889C25.9187 24.198 25.7365 24.1526 25.5542 24.4253C25.372 24.698 24.8473 25.3112 24.6876 25.4924C24.5279 25.6742 24.3682 25.6966 24.0946 25.5603C23.821 25.424 22.9391 25.1367 21.8933 24.2095C21.0798 23.4876 20.5303 22.5966 20.3707 22.3239C20.211 22.0513 20.3539 21.9039 20.4904 21.7687C20.6133 21.6465 20.7641 21.4506 20.9011 21.2918C21.0383 21.133 21.0834 21.0191 21.1748 20.8379C21.2662 20.6561 21.2205 20.4973 21.1522 20.361C21.0839 20.2247 20.5367 18.8848 20.3082 18.3401C20.086 17.8094 19.8602 17.8815 19.6926 17.8726C19.5329 17.8648 19.3507 17.8632 19.1679 17.8632C18.9851 17.8632 18.6889 17.9311 18.4378 18.2038C18.1868 18.4764 17.4798 19.135 17.4798 20.4743C17.4798 21.8136 18.4604 23.1085 18.5975 23.2903C18.7346 23.472 20.5277 26.2211 23.2731 27.4005C23.926 27.681 24.436 27.8486 24.8336 27.974C25.4891 28.1814 26.0857 28.1521 26.5574 28.0821C27.0832 28.0038 28.1767 27.4235 28.4047 26.7878C28.6326 26.1521 28.6326 25.6068 28.5644 25.4934C28.4961 25.3801 28.3133 25.3116 28.0396 25.1753L28.0401 25.1743Z" fill="white"/>
</g>
<defs>
<clipPath id="clip0_239_513">
<rect width="22" height="22" fill="white" transform="translate(12 12)"/>
</clipPath>
</defs>
</svg>
